thin.ufo
<glyph name="exclamation" format="2">
  <advance width="171.25"/>
  <unicode hex="0021"/>
  <outline>
    <contour>
      <point x="140.625" y="43.75" type="curve" smooth="yes"/>
      <point x="140.625" y="74.10533"/>
      <point x="115.98033" y="98.75"/>
      <point x="85.625" y="98.75" type="curve" smooth="yes"/>
      <point x="55.269670000000005" y="98.75"/>
      <point x="30.625" y="74.10533"/>
      <point x="30.625" y="43.75" type="curve" smooth="yes"/>
      <point x="30.625" y="13.39467"/>
      <point x="55.269670000000005" y="-11.25"/>
      <point x="85.625" y="-11.25" type="curve" smooth="yes"/>
      <point x="115.98033" y="-11.25"/>
      <point x="140.625" y="13.39467"/>
    </contour>
    <contour>
      <point x="35.625" y="191.66667" type="line"/>
      <point x="135.625" y="191.66667" type="line"/>
      <point x="135.625" y="400.0" type="line"/>
      <point x="35.625" y="400.0" type="line"/>
    </contour>
    <contour>
      <point x="35.625" y="400" type="line"/>
      <point x="135.625" y="400" type="line"/>
      <point x="135.625" y="600" type="line"/>
      <point x="35.625" y="600" type="line"/>
    </contour>
    <contour>
      <point x="35.625" y="600" type="line"/>
      <point x="135.625" y="600" type="line"/>
      <point x="135.625" y="800" type="line"/>
      <point x="35.625" y="800" type="line"/>
    </contour>
  </outline>
</glyph>
<glyph name="numbersign" format="2">
  <advance width="575.5977617600447"/>
  <unicode hex="0023"/>
  <outline>
    <contour>
      <point x="154.42027544001115" y="300.0" type="line"/>
      <point x="99.22877544001118" y="300.0"/>
      <point x="45.99839444447376" y="255.1915"/>
      <point x="35.625" y="200.0" type="curve"/>
      <point x="135.625" y="200.0" type="line"/>
    </contour>
    <contour>
      <point x="210.80610176004473" y="600.0" type="line"/>
      <point x="155.6146017600447" y="600.0"/>
      <point x="102.3842207645073" y="555.1915"/>
      <point x="92.01082632003353" y="500.0" type="curve"/>
      <point x="192.01082632003352" y="500.0" type="line"/>
    </contour>
    <contour>
      <point x="92.92801534797708" y="-5.0" type="line"/>
      <point x="148.11951534797709" y="-5.0"/>
      <point x="201.3498963435145" y="39.8085"/>
      <point x="211.72329078798828" y="95.0" type="curve"/>
      <point x="111.72329078798826" y="95.0" type="line"/>
    </contour>
    <contour>
      <point x="111.72329078798826" y="95.0" type="line"/>
      <point x="211.72329078798828" y="95.0" type="line"/>
      <point x="231.45833" y="200.0" type="line"/>
      <point x="131.45833" y="200.0" type="line"/>
    </contour>
    <contour>
      <point x="131.45833" y="200" type="line"/>
      <point x="231.45833" y="200" type="line"/>
      <point x="269.04888088002235" y="400" type="line"/>
      <point x="169.04888088002235" y="400" type="line"/>
    </contour>
    <contour>
      <point x="169.04888088002235" y="400" type="line"/>
      <point x="269.04888088002235" y="400" type="line"/>
      <point x="306.63943176004466" y="600" type="line"/>
      <point x="206.63943176004472" y="600" type="line"/>
    </contour>
    <contour>
      <point x="345.16974641206764" y="805.0" type="line"/>
      <point x="289.9782464120676" y="805.0"/>
      <point x="236.7478654165302" y="760.1915"/>
      <point x="226.37447097205643" y="705.0" type="curve"/>
      <point x="326.37447097205643" y="705.0" type="line"/>
    </contour>
    <contour>
      <point x="206.63943176004472" y="600" type="line"/>
      <point x="306.63943176004466" y="600" type="line"/>
      <point x="326.37447097205643" y="705.0" type="line"/>
      <point x="226.37447097205643" y="705.0" type="line"/>
    </contour>
    <contour>
      <point x="181.45833" y="200.0" type="line"/>
      <point x="281.45833" y="200.0" type="line"/>
      <point x="300.25360544001114" y="300.0" type="line"/>
      <point x="200.25360544001114" y="300.0" type="line"/>
    </contour>
    <contour>
      <point x="230.42801534797707" y="-5.0" type="line"/>
      <point x="285.6195153479771" y="-5.0"/>
      <point x="338.8498963435145" y="39.8085"/>
      <point x="349.2232907879882" y="95.0" type="curve"/>
      <point x="249.22329078798822" y="95.0" type="line"/>
    </contour>
    <contour>
      <point x="249.22329078798822" y="95.0" type="line"/>
      <point x="349.2232907879882" y="95.0" type="line"/>
      <point x="368.95833" y="200.0" type="line"/>
      <point x="268.95833" y="200.0" type="line"/>
    </contour>
    <contour>
      <point x="268.95833" y="200" type="line"/>
      <point x="368.95833" y="200" type="line"/>
      <point x="406.54888088002235" y="400" type="line"/>
      <point x="306.54888088002235" y="400" type="line"/>
    </contour>
    <contour>
      <point x="306.54888088002235" y="400" type="line"/>
      <point x="406.54888088002235" y="400" type="line"/>
      <point x="444.13943176004466" y="600" type="line"/>
      <point x="344.13943176004466" y="600" type="line"/>
    </contour>
    <contour>
      <point x="482.66974641206764" y="805.0" type="line"/>
      <point x="427.4782464120676" y="805.0"/>
      <point x="374.2478654165302" y="760.1915"/>
      <point x="363.87447097205643" y="705.0" type="curve"/>
      <point x="463.87447097205643" y="705.0" type="line"/>
    </contour>
    <contour>
      <point x="344.13943176004466" y="600" type="line"/>
      <point x="444.13943176004466" y="600" type="line"/>
      <point x="463.87447097205643" y="705.0" type="line"/>
      <point x="363.87447097205643" y="705.0" type="line"/>
    </contour>
    <contour>
      <point x="275.3441563200335" y="500.0" type="line"/>
      <point x="375.3441563200335" y="500.0" type="line"/>
      <point x="394.13943176004466" y="600.0" type="line"/>
      <point x="294.13943176004466" y="600.0" type="line"/>
    </contour>
    <contour>
      <point x="364.79166" y="200.0" type="line"/>
      <point x="419.98316" y="200.0"/>
      <point x="473.2135409955374" y="244.8085"/>
      <point x="483.5869354400112" y="300.0" type="curve"/>
      <point x="383.58693544001113" y="300.0" type="line"/>
    </contour>
    <contour>
      <point x="421.1774863200335" y="500.0" type="line"/>
      <point x="476.3689863200335" y="500.0"/>
      <point x="529.5993673155709" y="544.8085"/>
      <point x="539.9727617600447" y="600.0" type="curve"/>
      <point x="439.9727617600447" y="600.0" type="line"/>
    </contour>
  </outline>
</glyph>
<glyph name="dollar" format="2">
  <advance width="308.75"/>
  <unicode hex="0024"/>
  <outline>
    <contour>
      <point x="85.625" y="0" type="line"/>
      <point x="135.625" y="0" type="line"/>
      <point x="135.625" y="100.0" type="line"/>
      <point x="85.625" y="100.0" type="line"/>
    </contour>
    <contour>
      <point x="135.625" y="100.0" type="line"/>
      <point x="135.625" y="155.1915"/>
      <point x="90.81649999999999" y="200.0"/>
      <point x="35.625" y="200.0" type="curve"/>
      <point x="35.625" y="100.0" type="line"/>
    </contour>
    <contour>
      <point x="35.625" y="450.0" type="line"/>
      <point x="35.625" y="394.8085"/>
      <point x="80.43350000000001" y="350.0"/>
      <point x="135.625" y="350.0" type="curve"/>
      <point x="135.625" y="450.0" type="line"/>
    </contour>
    <contour>
      <point x="35.625" y="450.0" type="line"/>
      <point x="135.625" y="450.0" type="line"/>
      <point x="135.625" y="500.0" type="line"/>
      <point x="35.625" y="500.0" type="line"/>
    </contour>
    <contour>
      <point x="135.625" y="700.0" type="line"/>
      <point x="80.43350000000001" y="700.0"/>
      <point x="35.625" y="655.1915"/>
      <point x="35.625" y="600.0" type="curve"/>
      <point x="135.625" y="600.0" type="line"/>
    </contour>
    <contour>
      <point x="35.625" y="500.0" type="line"/>
      <point x="135.625" y="500.0" type="line"/>
      <point x="135.625" y="600.0" type="line"/>
      <point x="35.625" y="600.0" type="line"/>
    </contour>
    <contour>
      <point x="85.625" y="600" type="line"/>
      <point x="135.625" y="600" type="line"/>
      <point x="135.625" y="700.0" type="line"/>
      <point x="85.625" y="700.0" type="line"/>
    </contour>
    <contour>
      <point x="85.625" y="700.0" type="line"/>
      <point x="135.625" y="700.0" type="line"/>
      <point x="135.625" y="800.0" type="line"/>
      <point x="85.625" y="800.0" type="line"/>
    </contour>
    <contour>
      <point x="173.125" y="0" type="line"/>
      <point x="223.125" y="0" type="line"/>
      <point x="223.125" y="100.0" type="line"/>
      <point x="173.125" y="100.0" type="line"/>
    </contour>
    <contour>
      <point x="173.125" y="100.0" type="line"/>
      <point x="223.125" y="100.0" type="line"/>
      <point x="223.125" y="200.0" type="line"/>
      <point x="173.125" y="200.0" type="line"/>
    </contour>
    <contour>
      <point x="173.125" y="100.0" type="line"/>
      <point x="228.3165" y="100.0"/>
      <point x="273.125" y="144.8085"/>
      <point x="273.125" y="200.0" type="curve"/>
      <point x="173.125" y="200.0" type="line"/>
    </contour>
    <contour>
      <point x="173.125" y="200.0" type="line"/>
      <point x="273.125" y="200.0" type="line"/>
      <point x="273.125" y="300.0" type="line"/>
      <point x="173.125" y="300.0" type="line"/>
    </contour>
    <contour>
      <point x="273.125" y="350.0" type="line"/>
      <point x="273.125" y="405.1915"/>
      <point x="228.3165" y="450.0"/>
      <point x="173.125" y="450.0" type="curve"/>
      <point x="173.125" y="350.0" type="line"/>
    </contour>
    <contour>
      <point x="173.125" y="300.0" type="line"/>
      <point x="273.125" y="300.0" type="line"/>
      <point x="273.125" y="350.0" type="line"/>
      <point x="173.125" y="350.0" type="line"/>
    </contour>
    <contour>
      <point x="170.0" y="700.0" type="line"/>
      <point x="170.0" y="644.8085"/>
      <point x="214.8085" y="600.0"/>
      <point x="270.0" y="600.0" type="curve"/>
      <point x="270.0" y="700.0" type="line"/>
    </contour>
    <contour>
      <point x="170.0" y="700.0" type="line"/>
      <point x="220.0" y="700.0" type="line"/>
      <point x="220.0" y="800.0" type="line"/>
      <point x="170.0" y="800.0" type="line"/>
    </contour>
  </outline>
</glyph>
<glyph name="percent" format="2">
  <advance width="531.25"/>
  <unicode hex="0025"/>
  <outline>
    <contour>
      <point x="90.625" y="805.0" type="line"/>
      <point x="60.269670000000005" y="805.0"/>
      <point x="35.625" y="780.35533"/>
      <point x="35.625" y="750.0" type="curve" smooth="yes"/>
      <point x="35.625" y="719.64467"/>
      <point x="60.269670000000005" y="695.0"/>
      <point x="90.625" y="695.0" type="curve"/>
    </contour>
    <contour>
      <point x="128.125" y="695.0" type="line"/>
      <point x="158.48033" y="695.0"/>
      <point x="183.125" y="719.64467"/>
      <point x="183.125" y="750.0" type="curve" smooth="yes"/>
      <point x="183.125" y="780.35533"/>
      <point x="158.48033" y="805.0"/>
      <point x="128.125" y="805.0" type="curve"/>
    </contour>
    <contour>
      <point x="215.625" y="0.0" type="line"/>
      <point x="270.8165" y="0.0"/>
      <point x="315.625" y="44.8085"/>
      <point x="315.625" y="100.0" type="curve"/>
      <point x="215.625" y="100.0" type="line"/>
    </contour>
    <contour>
      <point x="215.625" y="100.0" type="line"/>
      <point x="315.625" y="100.0" type="line"/>
      <point x="315.625" y="200.0" type="line"/>
      <point x="215.625" y="200.0" type="line"/>
    </contour>
    <contour>
      <point x="215.625" y="200" type="line"/>
      <point x="315.625" y="200" type="line"/>
      <point x="315.625" y="400" type="line"/>
      <point x="215.625" y="400" type="line"/>
    </contour>
    <contour>
      <point x="215.625" y="400" type="line"/>
      <point x="315.625" y="400" type="line"/>
      <point x="315.625" y="600" type="line"/>
      <point x="215.625" y="600" type="line"/>
    </contour>
    <contour>
      <point x="315.625" y="800.0" type="line"/>
      <point x="260.4335" y="800.0"/>
      <point x="215.625" y="755.1915"/>
      <point x="215.625" y="700.0" type="curve"/>
      <point x="315.625" y="700.0" type="line"/>
    </contour>
    <contour>
      <point x="215.625" y="600" type="line"/>
      <point x="315.625" y="600" type="line"/>
      <point x="315.625" y="700.0" type="line"/>
      <point x="215.625" y="700.0" type="line"/>
    </contour>
    <contour>
      <point x="403.125" y="105.0" type="line"/>
      <point x="372.76967" y="105.0"/>
      <point x="348.125" y="80.35533"/>
      <point x="348.125" y="50.0" type="curve" smooth="yes"/>
      <point x="348.125" y="19.64467"/>
      <point x="372.76967" y="-5.0"/>
      <point x="403.125" y="-5.0" type="curve"/>
    </contour>
    <contour>
      <point x="440.625" y="-5.0" type="line"/>
      <point x="470.98033" y="-5.0"/>
      <point x="495.625" y="19.64467"/>
      <point x="495.625" y="50.0" type="curve" smooth="yes"/>
      <point x="495.625" y="80.35533"/>
      <point x="470.98033" y="105.0"/>
      <point x="440.625" y="105.0" type="curve"/>
    </contour>
  </outline>
</glyph>
<glyph name="ampersand" format="2">
  <advance width="408.75"/>
  <unicode hex="0026"/>
  <outline>
    <contour>
      <point x="35.625" y="95.0" type="line"/>
      <point x="35.625" y="39.8085"/>
      <point x="80.43350000000001" y="-5.0"/>
      <point x="135.625" y="-5.0" type="curve"/>
      <point x="135.625" y="95.0" type="line"/>
    </contour>
    <contour>
      <point x="35.625" y="95.0" type="line"/>
      <point x="135.625" y="95.0" type="line"/>
      <point x="135.625" y="200.0" type="line"/>
      <point x="35.625" y="200.0" type="line"/>
    </contour>
    <contour>
      <point x="135.625" y="400.0" type="line"/>
      <point x="80.43350000000001" y="400.0"/>
      <point x="35.625" y="355.1915"/>
      <point x="35.625" y="300.0" type="curve"/>
      <point x="135.625" y="300.0" type="line"/>
    </contour>
    <contour>
      <point x="35.625" y="200" type="line"/>
      <point x="135.625" y="200" type="line"/>
      <point x="135.625" y="300.0" type="line"/>
      <point x="35.625" y="300.0" type="line"/>
    </contour>
    <contour>
      <point x="35.625" y="500.0" type="line"/>
      <point x="35.625" y="444.8085"/>
      <point x="80.43350000000001" y="400.0"/>
      <point x="135.625" y="400.0" type="curve"/>
      <point x="135.625" y="500.0" type="line"/>
    </contour>
    <contour>
      <point x="35.625" y="500.0" type="line"/>
      <point x="135.625" y="500.0" type="line"/>
      <point x="135.625" y="600.0" type="line"/>
      <point x="35.625" y="600.0" type="line"/>
    </contour>
    <contour>
      <point x="135.625" y="800.0" type="line"/>
      <point x="80.43350000000001" y="800.0"/>
      <point x="35.625" y="755.1915"/>
      <point x="35.625" y="700.0" type="curve"/>
      <point x="135.625" y="700.0" type="line"/>
    </contour>
    <contour>
      <point x="35.625" y="600" type="line"/>
      <point x="135.625" y="600" type="line"/>
      <point x="135.625" y="700.0" type="line"/>
      <point x="35.625" y="700.0" type="line"/>
    </contour>
    <contour>
      <point x="173.125" y="-5.0" type="line"/>
      <point x="228.3165" y="-5.0"/>
      <point x="273.125" y="39.8085"/>
      <point x="273.125" y="95.0" type="curve"/>
      <point x="173.125" y="95.0" type="line"/>
    </contour>
    <contour>
      <point x="173.125" y="95.0" type="line"/>
      <point x="273.125" y="95.0" type="line"/>
      <point x="273.125" y="200.0" type="line"/>
      <point x="173.125" y="200.0" type="line"/>
    </contour>
    <contour>
      <point x="173.125" y="200" type="line"/>
      <point x="273.125" y="200" type="line"/>
      <point x="273.125" y="300.0" type="line"/>
      <point x="173.125" y="300.0" type="line"/>
    </contour>
    <contour>
      <point x="273.125" y="500.0" type="line"/>
      <point x="217.9335" y="500.0"/>
      <point x="173.125" y="455.1915"/>
      <point x="173.125" y="400.0" type="curve"/>
      <point x="273.125" y="400.0" type="line"/>
    </contour>
    <contour>
      <point x="173.125" y="300.0" type="line"/>
      <point x="273.125" y="300.0" type="line"/>
      <point x="273.125" y="400.0" type="line"/>
      <point x="173.125" y="400.0" type="line"/>
    </contour>
    <contour>
      <point x="166.875" y="800.0" type="line"/>
      <point x="166.875" y="744.8085"/>
      <point x="211.6835" y="700.0"/>
      <point x="266.875" y="700.0" type="curve"/>
      <point x="266.875" y="800.0" type="line"/>
    </contour>
    <contour>
      <point x="273.125" y="400.0" type="line"/>
      <point x="328.3165" y="400.0"/>
      <point x="373.125" y="444.8085"/>
      <point x="373.125" y="500.0" type="curve"/>
      <point x="273.125" y="500.0" type="line"/>
    </contour>
  </outline>
</glyph>
<glyph name="quotesingle" format="2">
  <advance width="171.25"/>
  <unicode hex="0027"/>
  <outline>
    <contour>
      <point x="35.625" y="700.0" type="line"/>
      <point x="90.81649999999999" y="700.0"/>
      <point x="135.625" y="744.8085"/>
      <point x="135.625" y="800.0" type="curve"/>
      <point x="35.625" y="800.0" type="line"/>
    </contour>
    <contour>
      <point x="35.625" y="800.0" type="line"/>
      <point x="135.625" y="800.0" type="line"/>
      <point x="135.625" y="900.0" type="line"/>
      <point x="35.625" y="900.0" type="line"/>
    </contour>
  </outline>
</glyph>
<glyph name="parenright" format="2">
  <advance width="171.25"/>
  <unicode hex="0029"/>
  <outline>
    <contour>
      <point x="35.625" y="-100.0" type="line"/>
      <point x="90.81649999999999" y="-100.0"/>
      <point x="135.625" y="-55.1915"/>
      <point x="135.625" y="0.0" type="curve"/>
      <point x="35.625" y="0.0" type="line"/>
    </contour>
    <contour>
      <point x="35.625" y="0.0" type="line"/>
      <point x="135.625" y="0.0" type="line"/>
      <point x="135.625" y="100.0" type="line"/>
      <point x="35.625" y="100.0" type="line"/>
    </contour>
    <contour>
      <point x="35.625" y="100.0" type="line"/>
      <point x="135.625" y="100.0" type="line"/>
      <point x="135.625" y="300.0" type="line"/>
      <point x="35.625" y="300.0" type="line"/>
    </contour>
    <contour>
      <point x="35.625" y="300.0" type="line"/>
      <point x="135.625" y="300.0" type="line"/>
      <point x="135.625" y="500.0" type="line"/>
      <point x="35.625" y="500.0" type="line"/>
    </contour>
    <contour>
      <point x="35.625" y="500.0" type="line"/>
      <point x="135.625" y="500.0" type="line"/>
      <point x="135.625" y="700.0" type="line"/>
      <point x="35.625" y="700.0" type="line"/>
    </contour>
    <contour>
      <point x="135.625" y="800.0" type="line"/>
      <point x="135.625" y="855.1915"/>
      <point x="90.81649999999999" y="900.0"/>
      <point x="35.625" y="900.0" type="curve"/>
      <point x="35.625" y="800.0" type="line"/>
    </contour>
    <contour>
      <point x="35.625" y="700.0" type="line"/>
      <point x="135.625" y="700.0" type="line"/>
      <point x="135.625" y="800.0" type="line"/>
      <point x="35.625" y="800.0" type="line"/>
    </contour>
  </outline>
</glyph>
<glyph name="asterisk" format="2">
  <advance width="335.52344100918367"/>
  <unicode hex="002A"/>
  <outline>
    <contour>
      <point x="299.89844100918367" y="704.4658198738521" type="line"/>
      <point x="266.56510767585036" y="762.2008467928147" type="line"/>
      <point x="35.625" y="628.8675134594813" type="line"/>
      <point x="68.95833333333331" y="571.1324865405188" type="line"/>
    </contour>
    <contour>
      <point x="266.5651076758503" y="571.1324865405187" type="line"/>
      <point x="299.89844100918367" y="628.8675134594813" type="line"/>
      <point x="68.95833333333336" y="762.2008467928147" type="line"/>
      <point x="35.62500000000003" y="704.4658198738521" type="line"/>
    </contour>
    <contour>
      <point x="134.42838717125852" y="533.3333333333334" type="line"/>
      <point x="201.09505383792515" y="533.3333333333334" type="line"/>
      <point x="201.09505383792515" y="800.0" type="line"/>
      <point x="134.42838717125852" y="800.0" type="line"/>
    </contour>
  </outline>
</glyph>
<glyph name="plus" format="2">
  <advance width="446.25"/>
  <unicode hex="002B"/>
  <outline>
    <contour>
      <point x="73.125" y="350.0" type="line"/>
      <point x="173.125" y="350.0" type="line"/>
      <point x="173.125" y="450.0" type="line"/>
      <point x="73.125" y="450.0" type="line"/>
    </contour>
    <contour>
      <point x="173.125" y="200.0" type="line"/>
      <point x="273.125" y="200.0" type="line"/>
      <point x="273.125" y="300.0" type="line"/>
      <point x="173.125" y="300.0" type="line"/>
    </contour>
    <contour>
      <point x="173.125" y="300.0" type="line"/>
      <point x="273.125" y="300.0" type="line"/>
      <point x="273.125" y="500.0" type="line"/>
      <point x="173.125" y="500.0" type="line"/>
    </contour>
    <contour>
      <point x="173.125" y="500.0" type="line"/>
      <point x="273.125" y="500.0" type="line"/>
      <point x="273.125" y="600.0" type="line"/>
      <point x="173.125" y="600.0" type="line"/>
    </contour>
    <contour>
      <point x="273.125" y="350.0" type="line"/>
      <point x="373.125" y="350.0" type="line"/>
      <point x="373.125" y="450.0" type="line"/>
      <point x="273.125" y="450.0" type="line"/>
    </contour>
  </outline>
</glyph>
<glyph name="hyphen" format="2">
  <advance width="308.75"/>
  <unicode hex="002D"/>
  <outline>
    <contour>
      <point x="35.625" y="350.0" type="line"/>
      <point x="135.625" y="350.0" type="line"/>
      <point x="135.625" y="450.0" type="line"/>
      <point x="35.625" y="450.0" type="line"/>
    </contour>
    <contour>
      <point x="135.625" y="350.0" type="line"/>
      <point x="173.125" y="350.0" type="line"/>
      <point x="173.125" y="450.0" type="line"/>
      <point x="135.625" y="450.0" type="line"/>
    </contour>
    <contour>
      <point x="173.125" y="350.0" type="line"/>
      <point x="273.125" y="350.0" type="line"/>
      <point x="273.125" y="450.0" type="line"/>
      <point x="173.125" y="450.0" type="line"/>
    </contour>
  </outline>
</glyph>
<glyph name="slash" format="2">
  <advance width="357.4205614471749"/>
  <unicode hex="002F"/>
  <outline>
    <contour>
      <point x="35.625" y="-81.6913975153098" type="line"/>
      <point x="89.83288097637981" y="-92.06479195978358"/>
      <point x="142.26468804260048" y="-56.47674688463775"/>
      <point x="152.63808248707426" y="-2.268865908257908" type="curve"/>
      <point x="54.420275440011196" y="16.526409531753302" type="line"/>
    </contour>
    <contour>
      <point x="54.420275440011196" y="16.526409531753302" type="line"/>
      <point x="152.63808248707426" y="-2.268865908257908" type="line"/>
      <point x="171.43335792708544" y="95.94894113880514" type="line"/>
      <point x="73.21555088002236" y="114.74421657881635" type="line"/>
    </contour>
    <contour>
      <point x="73.21555088002236" y="114.74421657881635" type="line"/>
      <point x="171.43335792708544" y="95.94894113880514" type="line"/>
      <point x="209.02390880710783" y="292.38455523293135" type="line"/>
      <point x="110.80610176004474" y="311.1798306729425" type="line"/>
    </contour>
    <contour>
      <point x="110.80610176004474" y="311.1798306729425" type="line"/>
      <point x="209.02390880710783" y="292.38455523293135" type="line"/>
      <point x="246.6144596871302" y="488.8201693270575" type="line"/>
      <point x="148.3966526400671" y="507.61544476706865" type="line"/>
    </contour>
    <contour>
      <point x="148.3966526400671" y="507.61544476706865" type="line"/>
      <point x="246.6144596871302" y="488.8201693270575" type="line"/>
      <point x="284.20501056715256" y="685.2557834211837" type="line"/>
      <point x="185.98720352008948" y="704.0510588611949" type="line"/>
    </contour>
    <contour>
      <point x="321.7955614471749" y="881.6913975153097" type="line"/>
      <point x="267.58768047079514" y="892.0647919597836"/>
      <point x="215.15587340457444" y="856.4767468846378"/>
      <point x="204.78247896010066" y="802.2688659082579" type="curve"/>
      <point x="303.0002860071637" y="783.4735904682467" type="line"/>
    </contour>
    <contour>
      <point x="185.98720352008948" y="704.0510588611949" type="line"/>
      <point x="284.20501056715256" y="685.2557834211837" type="line"/>
      <point x="303.0002860071637" y="783.4735904682467" type="line"/>
      <point x="204.78247896010066" y="802.2688659082579" type="line"/>
    </contour>
  </outline>
</glyph>
<glyph name="two" format="2">
  <advance width="308.75"/>
  <unicode hex="0032"/>
  <outline>
    <contour>
      <point x="135.625" y="100.0" type="line"/>
      <point x="80.43350000000001" y="100.0"/>
      <point x="35.625" y="55.1915"/>
      <point x="35.625" y="0.0" type="curve"/>
      <point x="135.625" y="0.0" type="line"/>
    </contour>
    <contour>
      <point x="135.625" y="0" type="line"/>
      <point x="173.125" y="0" type="line"/>
      <point x="173.125" y="100.0" type="line"/>
      <point x="135.625" y="100.0" type="line"/>
    </contour>
    <contour>
      <point x="143.75" y="750.0" type="curve" smooth="yes"/>
      <point x="143.75" y="780.35533"/>
      <point x="119.10533" y="805.0"/>
      <point x="88.75" y="805.0" type="curve" smooth="yes"/>
      <point x="58.394670000000005" y="805.0"/>
      <point x="33.75" y="780.35533"/>
      <point x="33.75" y="750.0" type="curve" smooth="yes"/>
      <point x="33.75" y="719.64467"/>
      <point x="58.394670000000005" y="695.0"/>
      <point x="88.75" y="695.0" type="curve" smooth="yes"/>
      <point x="119.10533" y="695.0"/>
      <point x="143.75" y="719.64467"/>
    </contour>
    <contour>
      <point x="173.125" y="0" type="line"/>
      <point x="273.125" y="0" type="line"/>
      <point x="273.125" y="100.0" type="line"/>
      <point x="173.125" y="100.0" type="line"/>
    </contour>
    <contour>
      <point x="173.125" y="161.66667" type="line"/>
      <point x="228.3165" y="161.66667"/>
      <point x="273.125" y="206.47517"/>
      <point x="273.125" y="261.66667" type="curve"/>
      <point x="173.125" y="261.66667" type="line"/>
    </contour>
    <contour>
      <point x="173.125" y="261.66667" type="line"/>
      <point x="273.125" y="261.66667" type="line"/>
      <point x="273.125" y="500.0" type="line"/>
      <point x="173.125" y="500.0" type="line"/>
    </contour>
    <contour>
      <point x="173.125" y="500.0" type="line"/>
      <point x="273.125" y="500.0" type="line"/>
      <point x="273.125" y="600.0" type="line"/>
      <point x="173.125" y="600.0" type="line"/>
    </contour>
    <contour>
      <point x="273.125" y="705.0" type="line"/>
      <point x="273.125" y="760.1915"/>
      <point x="228.3165" y="805.0"/>
      <point x="173.125" y="805.0" type="curve"/>
      <point x="173.125" y="705.0" type="line"/>
    </contour>
    <contour>
      <point x="173.125" y="600" type="line"/>
      <point x="273.125" y="600" type="line"/>
      <point x="273.125" y="705.0" type="line"/>
      <point x="173.125" y="705.0" type="line"/>
    </contour>
  </outline>
</glyph>
<glyph name="three" format="2">
  <advance width="308.75"/>
  <unicode hex="0033"/>
  <outline>
    <contour>
      <point x="140.625" y="50.0" type="curve" smooth="yes"/>
      <point x="140.625" y="80.35533"/>
      <point x="115.98033" y="105.0"/>
      <point x="85.625" y="105.0" type="curve" smooth="yes"/>
      <point x="55.269670000000005" y="105.0"/>
      <point x="30.625" y="80.35533"/>
      <point x="30.625" y="50.0" type="curve" smooth="yes"/>
      <point x="30.625" y="19.64467"/>
      <point x="55.269670000000005" y="-5.0"/>
      <point x="85.625" y="-5.0" type="curve" smooth="yes"/>
      <point x="115.98033" y="-5.0"/>
      <point x="140.625" y="19.64467"/>
    </contour>
    <contour>
      <point x="140.625" y="750.0" type="curve" smooth="yes"/>
      <point x="140.625" y="780.35533"/>
      <point x="115.98033" y="805.0"/>
      <point x="85.625" y="805.0" type="curve" smooth="yes"/>
      <point x="55.269670000000005" y="805.0"/>
      <point x="30.625" y="780.35533"/>
      <point x="30.625" y="750.0" type="curve" smooth="yes"/>
      <point x="30.625" y="719.64467"/>
      <point x="55.269670000000005" y="695.0"/>
      <point x="85.625" y="695.0" type="curve" smooth="yes"/>
      <point x="115.98033" y="695.0"/>
      <point x="140.625" y="719.64467"/>
    </contour>
    <contour>
      <point x="173.125" y="-5.0" type="line"/>
      <point x="228.3165" y="-5.0"/>
      <point x="273.125" y="39.8085"/>
      <point x="273.125" y="95.0" type="curve"/>
      <point x="173.125" y="95.0" type="line"/>
    </contour>
    <contour>
      <point x="173.125" y="95.0" type="line"/>
      <point x="273.125" y="95.0" type="line"/>
      <point x="273.125" y="200.0" type="line"/>
      <point x="173.125" y="200.0" type="line"/>
    </contour>
    <contour>
      <point x="273.125" y="300.0" type="line"/>
      <point x="273.125" y="355.1915"/>
      <point x="228.3165" y="400.0"/>
      <point x="173.125" y="400.0" type="curve"/>
      <point x="173.125" y="300.0" type="line"/>
    </contour>
    <contour>
      <point x="173.125" y="200" type="line"/>
      <point x="273.125" y="200" type="line"/>
      <point x="273.125" y="300.0" type="line"/>
      <point x="173.125" y="300.0" type="line"/>
    </contour>
    <contour>
      <point x="173.125" y="400.0" type="line"/>
      <point x="228.3165" y="400.0"/>
      <point x="273.125" y="444.8085"/>
      <point x="273.125" y="500.0" type="curve"/>
      <point x="173.125" y="500.0" type="line"/>
    </contour>
    <contour>
      <point x="173.125" y="500.0" type="line"/>
      <point x="273.125" y="500.0" type="line"/>
      <point x="273.125" y="600.0" type="line"/>
      <point x="173.125" y="600.0" type="line"/>
    </contour>
    <contour>
      <point x="273.125" y="705.0" type="line"/>
      <point x="273.125" y="760.1915"/>
      <point x="228.3165" y="805.0"/>
      <point x="173.125" y="805.0" type="curve"/>
      <point x="173.125" y="705.0" type="line"/>
    </contour>
    <contour>
      <point x="173.125" y="600" type="line"/>
      <point x="273.125" y="600" type="line"/>
      <point x="273.125" y="705.0" type="line"/>
      <point x="173.125" y="705.0" type="line"/>
    </contour>
  </outline>
</glyph>
<glyph name="five" format="2">
  <advance width="308.75"/>
  <unicode hex="0035"/>
  <outline>
    <contour>
      <point x="140.625" y="45.0" type="curve" smooth="yes"/>
      <point x="140.625" y="75.35533"/>
      <point x="115.98033" y="100.0"/>
      <point x="85.625" y="100.0" type="curve" smooth="yes"/>
      <point x="55.269670000000005" y="100.0"/>
      <point x="30.625" y="75.35533"/>
      <point x="30.625" y="45.0" type="curve" smooth="yes"/>
      <point x="30.625" y="14.64467"/>
      <point x="55.269670000000005" y="-10.0"/>
      <point x="85.625" y="-10.0" type="curve" smooth="yes"/>
      <point x="115.98033" y="-10.0"/>
      <point x="140.625" y="14.64467"/>
    </contour>
    <contour>
      <point x="38.75" y="450.0" type="line"/>
      <point x="38.75" y="394.8085"/>
      <point x="83.55850000000001" y="350.0"/>
      <point x="138.75" y="350.0" type="curve"/>
      <point x="138.75" y="450.0" type="line"/>
    </contour>
    <contour>
      <point x="38.75" y="450.0" type="line"/>
      <point x="138.75" y="450.0" type="line"/>
      <point x="138.75" y="500.0" type="line"/>
      <point x="38.75" y="500.0" type="line"/>
    </contour>
    <contour>
      <point x="38.75" y="500.0" type="line"/>
      <point x="138.75" y="500.0" type="line"/>
      <point x="138.75" y="600.0" type="line"/>
      <point x="38.75" y="600.0" type="line"/>
    </contour>
    <contour>
      <point x="38.75" y="600" type="line"/>
      <point x="138.75" y="600" type="line"/>
      <point x="138.75" y="800" type="line"/>
      <point x="38.75" y="800" type="line"/>
    </contour>
    <contour>
      <point x="173.125" y="-5.0" type="line"/>
      <point x="228.3165" y="-5.0"/>
      <point x="273.125" y="39.8085"/>
      <point x="273.125" y="95.0" type="curve"/>
      <point x="173.125" y="95.0" type="line"/>
    </contour>
    <contour>
      <point x="173.125" y="95.0" type="line"/>
      <point x="273.125" y="95.0" type="line"/>
      <point x="273.125" y="200.0" type="line"/>
      <point x="173.125" y="200.0" type="line"/>
    </contour>
    <contour>
      <point x="173.125" y="200" type="line"/>
      <point x="273.125" y="200" type="line"/>
      <point x="273.125" y="300.0" type="line"/>
      <point x="173.125" y="300.0" type="line"/>
    </contour>
    <contour>
      <point x="273.125" y="350.0" type="line"/>
      <point x="273.125" y="405.1915"/>
      <point x="228.3165" y="450.0"/>
      <point x="173.125" y="450.0" type="curve"/>
      <point x="173.125" y="350.0" type="line"/>
    </contour>
    <contour>
      <point x="173.125" y="300.0" type="line"/>
      <point x="273.125" y="300.0" type="line"/>
      <point x="273.125" y="350.0" type="line"/>
      <point x="173.125" y="350.0" type="line"/>
    </contour>
    <contour>
      <point x="170.0" y="800.0" type="line"/>
      <point x="170.0" y="744.8085"/>
      <point x="214.8085" y="700.0"/>
      <point x="270.0" y="700.0" type="curve"/>
      <point x="270.0" y="800.0" type="line"/>
    </contour>
  </outline>
</glyph>
<glyph name="six" format="2">
  <advance width="308.75"/>
  <unicode hex="0036"/>
  <outline>
    <contour>
      <point x="35.625" y="95.0" type="line"/>
      <point x="35.625" y="39.8085"/>
      <point x="80.43350000000001" y="-5.0"/>
      <point x="135.625" y="-5.0" type="curve"/>
      <point x="135.625" y="95.0" type="line"/>
    </contour>
    <contour>
      <point x="35.625" y="95.0" type="line"/>
      <point x="135.625" y="95.0" type="line"/>
      <point x="135.625" y="200.0" type="line"/>
      <point x="35.625" y="200.0" type="line"/>
    </contour>
    <contour>
      <point x="35.625" y="200" type="line"/>
      <point x="135.625" y="200" type="line"/>
      <point x="135.625" y="400" type="line"/>
      <point x="35.625" y="400" type="line"/>
    </contour>
    <contour>
      <point x="35.625" y="400" type="line"/>
      <point x="135.625" y="400" type="line"/>
      <point x="135.625" y="600" type="line"/>
      <point x="35.625" y="600" type="line"/>
    </contour>
    <contour>
      <point x="135.625" y="805.0" type="line"/>
      <point x="80.43350000000001" y="805.0"/>
      <point x="35.625" y="760.1915"/>
      <point x="35.625" y="705.0" type="curve"/>
      <point x="135.625" y="705.0" type="line"/>
    </contour>
    <contour>
      <point x="35.625" y="600" type="line"/>
      <point x="135.625" y="600" type="line"/>
      <point x="135.625" y="705.0" type="line"/>
      <point x="35.625" y="705.0" type="line"/>
    </contour>
    <contour>
      <point x="173.125" y="-5.0" type="line"/>
      <point x="228.3165" y="-5.0"/>
      <point x="273.125" y="39.8085"/>
      <point x="273.125" y="95.0" type="curve"/>
      <point x="173.125" y="95.0" type="line"/>
    </contour>
    <contour>
      <point x="173.125" y="95.0" type="line"/>
      <point x="273.125" y="95.0" type="line"/>
      <point x="273.125" y="200.0" type="line"/>
      <point x="173.125" y="200.0" type="line"/>
    </contour>
    <contour>
      <point x="173.125" y="200" type="line"/>
      <point x="273.125" y="200" type="line"/>
      <point x="273.125" y="300.0" type="line"/>
      <point x="173.125" y="300.0" type="line"/>
    </contour>
    <contour>
      <point x="273.125" y="400.0" type="line"/>
      <point x="273.125" y="455.1915"/>
      <point x="228.3165" y="500.0"/>
      <point x="173.125" y="500.0" type="curve"/>
      <point x="173.125" y="400.0" type="line"/>
    </contour>
    <contour>
      <point x="173.125" y="300.0" type="line"/>
      <point x="273.125" y="300.0" type="line"/>
      <point x="273.125" y="400.0" type="line"/>
      <point x="173.125" y="400.0" type="line"/>
    </contour>
    <contour>
      <point x="270.0" y="755.0" type="curve" smooth="yes"/>
      <point x="270.0" y="782.59575"/>
      <point x="247.59575" y="805.0"/>
      <point x="220.0" y="805.0" type="curve" smooth="yes"/>
      <point x="192.40425" y="805.0"/>
      <point x="170.0" y="782.59575"/>
      <point x="170.0" y="755.0" type="curve" smooth="yes"/>
      <point x="170.0" y="727.40425"/>
      <point x="192.40425" y="705.0"/>
      <point x="220.0" y="705.0" type="curve" smooth="yes"/>
      <point x="247.59575" y="705.0"/>
      <point x="270.0" y="727.40425"/>
    </contour>
  </outline>
</glyph>
<glyph name="seven" format="2">
  <advance width="308.75"/>
  <unicode hex="0037"/>
  <outline>
    <contour>
      <point x="35.625" y="700.0" type="line"/>
      <point x="135.625" y="700.0" type="line"/>
      <point x="135.625" y="800.0" type="line"/>
      <point x="35.625" y="800.0" type="line"/>
    </contour>
    <contour>
      <point x="135.625" y="700.0" type="line"/>
      <point x="173.125" y="700.0" type="line"/>
      <point x="173.125" y="800.0" type="line"/>
      <point x="135.625" y="800.0" type="line"/>
    </contour>
    <contour>
      <point x="173.125" y="0" type="line"/>
      <point x="273.125" y="0" type="line"/>
      <point x="273.125" y="200" type="line"/>
      <point x="173.125" y="200" type="line"/>
    </contour>
    <contour>
      <point x="173.125" y="200" type="line"/>
      <point x="273.125" y="200" type="line"/>
      <point x="273.125" y="400" type="line"/>
      <point x="173.125" y="400" type="line"/>
    </contour>
    <contour>
      <point x="273.125" y="675.0" type="line"/>
      <point x="217.9335" y="675.0"/>
      <point x="173.125" y="630.1915"/>
      <point x="173.125" y="575.0" type="curve"/>
      <point x="273.125" y="575.0" type="line"/>
    </contour>
    <contour>
      <point x="173.125" y="400" type="line"/>
      <point x="273.125" y="400" type="line"/>
      <point x="273.125" y="575.0" type="line"/>
      <point x="173.125" y="575.0" type="line"/>
    </contour>
    <contour>
      <point x="173.125" y="700.0" type="line"/>
      <point x="228.3165" y="700.0"/>
      <point x="273.125" y="744.8085"/>
      <point x="273.125" y="800.0" type="curve"/>
      <point x="173.125" y="800.0" type="line"/>
    </contour>
  </outline>
</glyph>
<glyph name="semicolon" format="2">
  <advance width="171.25"/>
  <unicode hex="003B"/>
  <outline>
    <contour>
      <point x="35.625" y="-100.0" type="line"/>
      <point x="90.81649999999999" y="-100.0"/>
      <point x="135.625" y="-55.1915"/>
      <point x="135.625" y="0.0" type="curve"/>
      <point x="35.625" y="0.0" type="line"/>
    </contour>
    <contour>
      <point x="35.625" y="0.0" type="line"/>
      <point x="135.625" y="0.0" type="line"/>
      <point x="135.625" y="100.0" type="line"/>
      <point x="35.625" y="100.0" type="line"/>
    </contour>
    <contour>
      <point x="140.625" y="550.0" type="curve" smooth="yes"/>
      <point x="140.625" y="580.35533"/>
      <point x="115.98033" y="605.0"/>
      <point x="85.625" y="605.0" type="curve" smooth="yes"/>
      <point x="55.269670000000005" y="605.0"/>
      <point x="30.625" y="580.35533"/>
      <point x="30.625" y="550.0" type="curve" smooth="yes"/>
      <point x="30.625" y="519.64467"/>
      <point x="55.269670000000005" y="495.0"/>
      <point x="85.625" y="495.0" type="curve" smooth="yes"/>
      <point x="115.98033" y="495.0"/>
      <point x="140.625" y="519.64467"/>
    </contour>
  </outline>
</glyph>
<glyph name="less" format="2">
  <advance width="271.25"/>
  <unicode hex="003C"/>
  <outline>
    <contour>
      <point x="35.625" y="200.0" type="line"/>
      <point x="35.625" y="144.8085"/>
      <point x="80.43350000000001" y="100.0"/>
      <point x="135.625" y="100.0" type="curve"/>
      <point x="135.625" y="200.0" type="line"/>
    </contour>
    <contour>
      <point x="35.625" y="200.0" type="line"/>
      <point x="135.625" y="200.0" type="line"/>
      <point x="135.625" y="300.0" type="line"/>
      <point x="35.625" y="300.0" type="line"/>
    </contour>
    <contour>
      <point x="35.625" y="300.0" type="line"/>
      <point x="135.625" y="300.0" type="line"/>
      <point x="135.625" y="500.0" type="line"/>
      <point x="35.625" y="500.0" type="line"/>
    </contour>
    <contour>
      <point x="135.625" y="700.0" type="line"/>
      <point x="80.43350000000001" y="700.0"/>
      <point x="35.625" y="655.1915"/>
      <point x="35.625" y="600.0" type="curve"/>
      <point x="135.625" y="600.0" type="line"/>
    </contour>
    <contour>
      <point x="35.625" y="500.0" type="line"/>
      <point x="135.625" y="500.0" type="line"/>
      <point x="135.625" y="600.0" type="line"/>
      <point x="35.625" y="600.0" type="line"/>
    </contour>
    <contour>
      <point x="235.625" y="100.0" type="line"/>
      <point x="235.625" y="155.1915"/>
      <point x="190.8165" y="200.0"/>
      <point x="135.625" y="200.0" type="curve"/>
      <point x="135.625" y="100.0" type="line"/>
    </contour>
    <contour>
      <point x="135.625" y="600.0" type="line"/>
      <point x="190.8165" y="600.0"/>
      <point x="235.625" y="644.8085"/>
      <point x="235.625" y="700.0" type="curve"/>
      <point x="135.625" y="700.0" type="line"/>
    </contour>
  </outline>
</glyph>
<glyph name="question" format="2">
  <advance width="308.75"/>
  <unicode hex="003F"/>
  <outline>
    <contour>
      <point x="140.625" y="43.75" type="curve" smooth="yes"/>
      <point x="140.625" y="74.10533"/>
      <point x="115.98033" y="98.75"/>
      <point x="85.625" y="98.75" type="curve" smooth="yes"/>
      <point x="55.269670000000005" y="98.75"/>
      <point x="30.625" y="74.10533"/>
      <point x="30.625" y="43.75" type="curve" smooth="yes"/>
      <point x="30.625" y="13.39467"/>
      <point x="55.269670000000005" y="-11.25"/>
      <point x="85.625" y="-11.25" type="curve" smooth="yes"/>
      <point x="115.98033" y="-11.25"/>
      <point x="140.625" y="13.39467"/>
    </contour>
    <contour>
      <point x="35.625" y="191.66667" type="line"/>
      <point x="135.625" y="191.66667" type="line"/>
      <point x="135.625" y="400.0" type="line"/>
      <point x="35.625" y="400.0" type="line"/>
    </contour>
    <contour>
      <point x="135.625" y="500.0" type="line"/>
      <point x="80.43350000000001" y="500.0"/>
      <point x="35.625" y="455.1915"/>
      <point x="35.625" y="400.0" type="curve"/>
      <point x="135.625" y="400.0" type="line"/>
    </contour>
    <contour>
      <point x="140.625" y="762.5" type="curve" smooth="yes"/>
      <point x="140.625" y="792.85533"/>
      <point x="115.98033" y="817.5"/>
      <point x="85.625" y="817.5" type="curve" smooth="yes"/>
      <point x="55.269670000000005" y="817.5"/>
      <point x="30.625" y="792.85533"/>
      <point x="30.625" y="762.5" type="curve" smooth="yes"/>
      <point x="30.625" y="732.14467"/>
      <point x="55.269670000000005" y="707.5"/>
      <point x="85.625" y="707.5" type="curve" smooth="yes"/>
      <point x="115.98033" y="707.5"/>
      <point x="140.625" y="732.14467"/>
    </contour>
    <contour>
      <point x="173.125" y="405.0" type="line"/>
      <point x="228.3165" y="405.0"/>
      <point x="273.125" y="449.8085"/>
      <point x="273.125" y="505.0" type="curve"/>
      <point x="173.125" y="505.0" type="line"/>
    </contour>
    <contour>
      <point x="173.125" y="505.0" type="line"/>
      <point x="273.125" y="505.0" type="line"/>
      <point x="273.125" y="605.0" type="line"/>
      <point x="173.125" y="605.0" type="line"/>
    </contour>
    <contour>
      <point x="273.125" y="705.0" type="line"/>
      <point x="273.125" y="760.1915"/>
      <point x="228.3165" y="805.0"/>
      <point x="173.125" y="805.0" type="curve"/>
      <point x="173.125" y="705.0" type="line"/>
    </contour>
    <contour>
      <point x="173.125" y="605.0" type="line"/>
      <point x="273.125" y="605.0" type="line"/>
      <point x="273.125" y="705.0" type="line"/>
      <point x="173.125" y="705.0" type="line"/>
    </contour>
  </outline>
</glyph>
<glyph name="at" format="2">
  <advance width="842.0704"/>
  <unicode hex="0040"/>
  <outline>
    <contour>
      <point x="296.03520000000003" y="300.0" type="curve"/>
      <point x="396.03520000000003" y="300.0" type="line"/>
      <point x="396.03520000000003" y="200.0" type="line"/>
      <point x="340.8437" y="200.0"/>
      <point x="296.03520000000003" y="244.8085"/>
    </contour>
    <contour>
      <point x="296.03520000000003" y="300.0" type="line"/>
      <point x="296.03520000000003" y="400.0" type="line"/>
      <point x="396.03520000000003" y="400.0" type="line"/>
      <point x="396.03520000000003" y="300.0" type="line"/>
    </contour>
    <contour>
      <point x="396.03520000000003" y="600.0" type="curve"/>
      <point x="396.03520000000003" y="500.0" type="line"/>
      <point x="296.03520000000003" y="500.0" type="line"/>
      <point x="296.03520000000003" y="555.1915"/>
      <point x="340.8437" y="600.0"/>
    </contour>
    <contour>
      <point x="296.03520000000003" y="400" type="line"/>
      <point x="296.03520000000003" y="500.0" type="line"/>
      <point x="396.03520000000003" y="500.0" type="line"/>
      <point x="396.03520000000003" y="400" type="line"/>
    </contour>
    <contour>
      <point x="433.53520000000003" y="300.0" type="curve"/>
      <point x="533.5352" y="300.0" type="line"/>
      <point x="533.5352" y="200.0" type="line"/>
      <point x="478.3437" y="200.0"/>
      <point x="433.53520000000003" y="244.8085"/>
    </contour>
    <contour>
      <point x="433.53520000000003" y="300.0" type="line"/>
      <point x="433.53520000000003" y="400.0" type="line"/>
      <point x="533.5352" y="400.0" type="line"/>
      <point x="533.5352" y="300.0" type="line"/>
    </contour>
    <contour>
      <point x="433.53520000000003" y="400" type="line"/>
      <point x="433.53520000000003" y="600" type="line"/>
      <point x="533.5352" y="600" type="line"/>
      <point x="533.5352" y="400" type="line"/>
    </contour>
    <contour>
      <point x="756.4454" y="400.0" type="curve" smooth="yes"/>
      <point x="756.4454" y="585.11793"/>
      <point x="606.15313" y="735.4102"/>
      <point x="421.03520000000003" y="735.4102" type="curve" smooth="yes"/>
      <point x="235.91727" y="735.4102"/>
      <point x="85.625" y="585.11793"/>
      <point x="85.625" y="400.0" type="curve" smooth="yes"/>
      <point x="85.625" y="214.88207"/>
      <point x="235.91727" y="64.5898"/>
      <point x="421.03520000000003" y="64.5898" type="curve" smooth="yes"/>
      <point x="606.15313" y="64.5898"/>
      <point x="756.4454" y="214.88207"/>
    </contour>
  </outline>
</glyph>
<glyph name="H" format="2">
  <advance width="446.25"/>
  <unicode hex="0048"/>
  <outline>
    <contour>
      <point x="35.625" y="0" type="line"/>
      <point x="135.625" y="0" type="line"/>
      <point x="135.625" y="200" type="line"/>
      <point x="35.625" y="200" type="line"/>
    </contour>
    <contour>
      <point x="35.625" y="200" type="line"/>
      <point x="135.625" y="200" type="line"/>
      <point x="135.625" y="400" type="line"/>
      <point x="35.625" y="400" type="line"/>
    </contour>
    <contour>
      <point x="35.625" y="400" type="line"/>
      <point x="135.625" y="400" type="line"/>
      <point x="135.625" y="600" type="line"/>
      <point x="35.625" y="600" type="line"/>
    </contour>
    <contour>
      <point x="35.625" y="600" type="line"/>
      <point x="135.625" y="600" type="line"/>
      <point x="135.625" y="800" type="line"/>
      <point x="35.625" y="800" type="line"/>
    </contour>
    <contour>
      <point x="173.125" y="450.0" type="line"/>
      <point x="173.125" y="394.8085"/>
      <point x="217.9335" y="350.0"/>
      <point x="273.125" y="350.0" type="curve"/>
      <point x="273.125" y="450.0" type="line"/>
    </contour>
    <contour>
      <point x="310.625" y="0" type="line"/>
      <point x="410.625" y="0" type="line"/>
      <point x="410.625" y="200" type="line"/>
      <point x="310.625" y="200" type="line"/>
    </contour>
    <contour>
      <point x="310.625" y="200" type="line"/>
      <point x="410.625" y="200" type="line"/>
      <point x="410.625" y="400" type="line"/>
      <point x="310.625" y="400" type="line"/>
    </contour>
    <contour>
      <point x="310.625" y="400" type="line"/>
      <point x="410.625" y="400" type="line"/>
      <point x="410.625" y="600" type="line"/>
      <point x="310.625" y="600" type="line"/>
    </contour>
    <contour>
      <point x="310.625" y="600" type="line"/>
      <point x="410.625" y="600" type="line"/>
      <point x="410.625" y="800" type="line"/>
      <point x="310.625" y="800" type="line"/>
    </contour>
  </outline>
</glyph>
<glyph name="L" format="2">
  <advance width="308.75"/>
  <unicode hex="004C"/>
  <outline>
    <contour>
      <point x="35.625" y="0" type="line"/>
      <point x="135.625" y="0" type="line"/>
      <point x="135.625" y="200" type="line"/>
      <point x="35.625" y="200" type="line"/>
    </contour>
    <contour>
      <point x="35.625" y="200" type="line"/>
      <point x="135.625" y="200" type="line"/>
      <point x="135.625" y="400" type="line"/>
      <point x="35.625" y="400" type="line"/>
    </contour>
    <contour>
      <point x="35.625" y="400" type="line"/>
      <point x="135.625" y="400" type="line"/>
      <point x="135.625" y="600" type="line"/>
      <point x="35.625" y="600" type="line"/>
    </contour>
    <contour>
      <point x="35.625" y="600" type="line"/>
      <point x="135.625" y="600" type="line"/>
      <point x="135.625" y="800" type="line"/>
      <point x="35.625" y="800" type="line"/>
    </contour>
    <contour>
      <point x="273.125" y="100.0" type="line"/>
      <point x="217.9335" y="100.0"/>
      <point x="173.125" y="55.1915"/>
      <point x="173.125" y="0.0" type="curve"/>
      <point x="273.125" y="0.0" type="line"/>
    </contour>
  </outline>
</glyph>
<glyph name="N" format="2">
  <advance width="308.75"/>
  <unicode hex="004E"/>
  <outline>
    <contour>
      <point x="35.625" y="0" type="line"/>
      <point x="135.625" y="0" type="line"/>
      <point x="135.625" y="200" type="line"/>
      <point x="35.625" y="200" type="line"/>
    </contour>
    <contour>
      <point x="35.625" y="200" type="line"/>
      <point x="135.625" y="200" type="line"/>
      <point x="135.625" y="400" type="line"/>
      <point x="35.625" y="400" type="line"/>
    </contour>
    <contour>
      <point x="35.625" y="400" type="line"/>
      <point x="135.625" y="400" type="line"/>
      <point x="135.625" y="600" type="line"/>
      <point x="35.625" y="600" type="line"/>
    </contour>
    <contour>
      <point x="35.625" y="600" type="line"/>
      <point x="135.625" y="600" type="line"/>
      <point x="135.625" y="800" type="line"/>
      <point x="35.625" y="800" type="line"/>
    </contour>
    <contour>
      <point x="173.125" y="0" type="line"/>
      <point x="273.125" y="0" type="line"/>
      <point x="273.125" y="200" type="line"/>
      <point x="173.125" y="200" type="line"/>
    </contour>
    <contour>
      <point x="173.125" y="200" type="line"/>
      <point x="273.125" y="200" type="line"/>
      <point x="273.125" y="400" type="line"/>
      <point x="173.125" y="400" type="line"/>
    </contour>
    <contour>
      <point x="173.125" y="400" type="line"/>
      <point x="273.125" y="400" type="line"/>
      <point x="273.125" y="600" type="line"/>
      <point x="173.125" y="600" type="line"/>
    </contour>
    <contour>
      <point x="273.125" y="700.0" type="line"/>
      <point x="273.125" y="755.1915"/>
      <point x="228.3165" y="800.0"/>
      <point x="173.125" y="800.0" type="curve"/>
      <point x="173.125" y="700.0" type="line"/>
    </contour>
    <contour>
      <point x="173.125" y="600" type="line"/>
      <point x="273.125" y="600" type="line"/>
      <point x="273.125" y="700.0" type="line"/>
      <point x="173.125" y="700.0" type="line"/>
    </contour>
  </outline>
</glyph>
<glyph name="P" format="2">
  <advance width="308.75"/>
  <unicode hex="0050"/>
  <outline>
    <contour>
      <point x="35.625" y="0" type="line"/>
      <point x="135.625" y="0" type="line"/>
      <point x="135.625" y="200" type="line"/>
      <point x="35.625" y="200" type="line"/>
    </contour>
    <contour>
      <point x="35.625" y="200" type="line"/>
      <point x="135.625" y="200" type="line"/>
      <point x="135.625" y="400" type="line"/>
      <point x="35.625" y="400" type="line"/>
    </contour>
    <contour>
      <point x="35.625" y="400" type="line"/>
      <point x="135.625" y="400" type="line"/>
      <point x="135.625" y="600" type="line"/>
      <point x="35.625" y="600" type="line"/>
    </contour>
    <contour>
      <point x="35.625" y="600" type="line"/>
      <point x="135.625" y="600" type="line"/>
      <point x="135.625" y="800" type="line"/>
      <point x="35.625" y="800" type="line"/>
    </contour>
    <contour>
      <point x="173.125" y="200.0" type="line"/>
      <point x="228.3165" y="200.0"/>
      <point x="273.125" y="244.8085"/>
      <point x="273.125" y="300.0" type="curve"/>
      <point x="173.125" y="300.0" type="line"/>
    </contour>
    <contour>
      <point x="173.125" y="300.0" type="line"/>
      <point x="273.125" y="300.0" type="line"/>
      <point x="273.125" y="400.0" type="line"/>
      <point x="173.125" y="400.0" type="line"/>
    </contour>
    <contour>
      <point x="173.125" y="400" type="line"/>
      <point x="273.125" y="400" type="line"/>
      <point x="273.125" y="600" type="line"/>
      <point x="173.125" y="600" type="line"/>
    </contour>
    <contour>
      <point x="273.125" y="700.0" type="line"/>
      <point x="273.125" y="755.1915"/>
      <point x="228.3165" y="800.0"/>
      <point x="173.125" y="800.0" type="curve"/>
      <point x="173.125" y="700.0" type="line"/>
    </contour>
    <contour>
      <point x="173.125" y="600" type="line"/>
      <point x="273.125" y="600" type="line"/>
      <point x="273.125" y="700.0" type="line"/>
      <point x="173.125" y="700.0" type="line"/>
    </contour>
  </outline>
</glyph>
<glyph name="U" format="2">
  <advance width="308.75"/>
  <unicode hex="0055"/>
  <outline>
    <contour>
      <point x="35.625" y="95.0" type="line"/>
      <point x="35.625" y="39.8085"/>
      <point x="80.43350000000001" y="-5.0"/>
      <point x="135.625" y="-5.0" type="curve"/>
      <point x="135.625" y="95.0" type="line"/>
    </contour>
    <contour>
      <point x="35.625" y="95.0" type="line"/>
      <point x="135.625" y="95.0" type="line"/>
      <point x="135.625" y="195.0" type="line"/>
      <point x="35.625" y="195.0" type="line"/>
    </contour>
    <contour>
      <point x="35.625" y="195.0" type="line"/>
      <point x="135.625" y="195.0" type="line"/>
      <point x="135.625" y="400.0" type="line"/>
      <point x="35.625" y="400.0" type="line"/>
    </contour>
    <contour>
      <point x="35.625" y="400" type="line"/>
      <point x="135.625" y="400" type="line"/>
      <point x="135.625" y="600" type="line"/>
      <point x="35.625" y="600" type="line"/>
    </contour>
    <contour>
      <point x="35.625" y="600" type="line"/>
      <point x="135.625" y="600" type="line"/>
      <point x="135.625" y="800" type="line"/>
      <point x="35.625" y="800" type="line"/>
    </contour>
    <contour>
      <point x="173.125" y="-5.0" type="line"/>
      <point x="228.3165" y="-5.0"/>
      <point x="273.125" y="39.8085"/>
      <point x="273.125" y="95.0" type="curve"/>
      <point x="173.125" y="95.0" type="line"/>
    </contour>
    <contour>
      <point x="173.125" y="95.0" type="line"/>
      <point x="273.125" y="95.0" type="line"/>
      <point x="273.125" y="195.0" type="line"/>
      <point x="173.125" y="195.0" type="line"/>
    </contour>
    <contour>
      <point x="173.125" y="195.0" type="line"/>
      <point x="273.125" y="195.0" type="line"/>
      <point x="273.125" y="400.0" type="line"/>
      <point x="173.125" y="400.0" type="line"/>
    </contour>
    <contour>
      <point x="173.125" y="400" type="line"/>
      <point x="273.125" y="400" type="line"/>
      <point x="273.125" y="600" type="line"/>
      <point x="173.125" y="600" type="line"/>
    </contour>
    <contour>
      <point x="173.125" y="600" type="line"/>
      <point x="273.125" y="600" type="line"/>
      <point x="273.125" y="800" type="line"/>
      <point x="173.125" y="800" type="line"/>
    </contour>
  </outline>
</glyph>
<glyph name="Y" format="2">
  <advance width="308.75"/>
  <unicode hex="0059"/>
  <outline>
    <contour>
      <point x="143.75" y="40.0" type="curve" smooth="yes"/>
      <point x="143.75" y="70.35533"/>
      <point x="119.10533" y="95.0"/>
      <point x="88.75" y="95.0" type="curve" smooth="yes"/>
      <point x="58.394670000000005" y="95.0"/>
      <point x="33.75" y="70.35533"/>
      <point x="33.75" y="40.0" type="curve" smooth="yes"/>
      <point x="33.75" y="9.64467"/>
      <point x="58.394670000000005" y="-15.0"/>
      <point x="88.75" y="-15.0" type="curve" smooth="yes"/>
      <point x="119.10533" y="-15.0"/>
      <point x="143.75" y="9.64467"/>
    </contour>
    <contour>
      <point x="35.625" y="300.0" type="line"/>
      <point x="35.625" y="244.8085"/>
      <point x="80.43350000000001" y="200.0"/>
      <point x="135.625" y="200.0" type="curve"/>
      <point x="135.625" y="300.0" type="line"/>
    </contour>
    <contour>
      <point x="35.625" y="300.0" type="line"/>
      <point x="135.625" y="300.0" type="line"/>
      <point x="135.625" y="400.0" type="line"/>
      <point x="35.625" y="400.0" type="line"/>
    </contour>
    <contour>
      <point x="35.625" y="400" type="line"/>
      <point x="135.625" y="400" type="line"/>
      <point x="135.625" y="605.0" type="line"/>
      <point x="35.625" y="605.0" type="line"/>
    </contour>
    <contour>
      <point x="135.625" y="705.0" type="line"/>
      <point x="135.625" y="760.1915"/>
      <point x="90.81649999999999" y="805.0"/>
      <point x="35.625" y="805.0" type="curve"/>
      <point x="35.625" y="705.0" type="line"/>
    </contour>
    <contour>
      <point x="35.625" y="605.0" type="line"/>
      <point x="135.625" y="605.0" type="line"/>
      <point x="135.625" y="705.0" type="line"/>
      <point x="35.625" y="705.0" type="line"/>
    </contour>
    <contour>
      <point x="173.125" y="-5.0" type="line"/>
      <point x="228.3165" y="-5.0"/>
      <point x="273.125" y="39.8085"/>
      <point x="273.125" y="95.0" type="curve"/>
      <point x="173.125" y="95.0" type="line"/>
    </contour>
    <contour>
      <point x="173.125" y="95.0" type="line"/>
      <point x="273.125" y="95.0" type="line"/>
      <point x="273.125" y="195.0" type="line"/>
      <point x="173.125" y="195.0" type="line"/>
    </contour>
    <contour>
      <point x="173.125" y="195.0" type="line"/>
      <point x="273.125" y="195.0" type="line"/>
      <point x="273.125" y="400.0" type="line"/>
      <point x="173.125" y="400.0" type="line"/>
    </contour>
    <contour>
      <point x="173.125" y="400" type="line"/>
      <point x="273.125" y="400" type="line"/>
      <point x="273.125" y="600" type="line"/>
      <point x="173.125" y="600" type="line"/>
    </contour>
    <contour>
      <point x="173.125" y="600" type="line"/>
      <point x="273.125" y="600" type="line"/>
      <point x="273.125" y="800" type="line"/>
      <point x="173.125" y="800" type="line"/>
    </contour>
  </outline>
</glyph>
<glyph name="bracketleft" format="2">
  <advance width="271.25"/>
  <unicode hex="005B"/>
  <outline>
    <contour>
      <point x="35.625" y="-100.0" type="line"/>
      <point x="135.625" y="-100.0" type="line"/>
      <point x="135.625" y="100.0" type="line"/>
      <point x="35.625" y="100.0" type="line"/>
    </contour>
    <contour>
      <point x="35.625" y="100.0" type="line"/>
      <point x="135.625" y="100.0" type="line"/>
      <point x="135.625" y="300.0" type="line"/>
      <point x="35.625" y="300.0" type="line"/>
    </contour>
    <contour>
      <point x="35.625" y="300.0" type="line"/>
      <point x="135.625" y="300.0" type="line"/>
      <point x="135.625" y="500.0" type="line"/>
      <point x="35.625" y="500.0" type="line"/>
    </contour>
    <contour>
      <point x="35.625" y="500.0" type="line"/>
      <point x="135.625" y="500.0" type="line"/>
      <point x="135.625" y="700.0" type="line"/>
      <point x="35.625" y="700.0" type="line"/>
    </contour>
    <contour>
      <point x="35.625" y="700.0" type="line"/>
      <point x="135.625" y="700.0" type="line"/>
      <point x="135.625" y="900.0" type="line"/>
      <point x="35.625" y="900.0" type="line"/>
    </contour>
    <contour>
      <point x="235.625" y="-100.0" type="line"/>
      <point x="235.625" y="-44.8085"/>
      <point x="190.8165" y="0.0"/>
      <point x="135.625" y="0.0" type="curve"/>
      <point x="135.625" y="-100.0" type="line"/>
    </contour>
    <contour>
      <point x="135.625" y="800.0" type="line"/>
      <point x="190.8165" y="800.0"/>
      <point x="235.625" y="844.8085"/>
      <point x="235.625" y="900.0" type="curve"/>
      <point x="135.625" y="900.0" type="line"/>
    </contour>
  </outline>
</glyph>
<glyph name="underscore" format="2">
  <advance width="308.75"/>
  <unicode hex="005F"/>
  <outline>
    <contour>
      <point x="35.625" y="-150.0" type="line"/>
      <point x="135.625" y="-150.0" type="line"/>
      <point x="135.625" y="-50.0" type="line"/>
      <point x="35.625" y="-50.0" type="line"/>
    </contour>
    <contour>
      <point x="135.625" y="-150.0" type="line"/>
      <point x="173.125" y="-150.0" type="line"/>
      <point x="173.125" y="-50.0" type="line"/>
      <point x="135.625" y="-50.0" type="line"/>
    </contour>
    <contour>
      <point x="173.125" y="-150.0" type="line"/>
      <point x="273.125" y="-150.0" type="line"/>
      <point x="273.125" y="-50.0" type="line"/>
      <point x="173.125" y="-50.0" type="line"/>
    </contour>
  </outline>
</glyph>
<glyph name="b" format="2">
  <advance width="308.75"/>
  <unicode hex="0062"/>
  <outline>
    <contour>
      <point x="35.625" y="0" type="line"/>
      <point x="135.625" y="0" type="line"/>
      <point x="135.625" y="200" type="line"/>
      <point x="35.625" y="200" type="line"/>
    </contour>
    <contour>
      <point x="35.625" y="200" type="line"/>
      <point x="135.625" y="200" type="line"/>
      <point x="135.625" y="400" type="line"/>
      <point x="35.625" y="400" type="line"/>
    </contour>
    <contour>
      <point x="35.625" y="400" type="line"/>
      <point x="135.625" y="400" type="line"/>
      <point x="135.625" y="600" type="line"/>
      <point x="35.625" y="600" type="line"/>
    </contour>
    <contour>
      <point x="35.625" y="600" type="line"/>
      <point x="135.625" y="600" type="line"/>
      <point x="135.625" y="800" type="line"/>
      <point x="35.625" y="800" type="line"/>
    </contour>
    <contour>
      <point x="173.125" y="0.0" type="line"/>
      <point x="228.3165" y="0.0"/>
      <point x="273.125" y="44.8085"/>
      <point x="273.125" y="100.0" type="curve"/>
      <point x="173.125" y="100.0" type="line"/>
    </contour>
    <contour>
      <point x="173.125" y="100.0" type="line"/>
      <point x="273.125" y="100.0" type="line"/>
      <point x="273.125" y="200.0" type="line"/>
      <point x="173.125" y="200.0" type="line"/>
    </contour>
    <contour>
      <point x="173.125" y="200" type="line"/>
      <point x="273.125" y="200" type="line"/>
      <point x="273.125" y="405.0" type="line"/>
      <point x="173.125" y="405.0" type="line"/>
    </contour>
    <contour>
      <point x="273.125" y="505.0" type="line"/>
      <point x="273.125" y="560.1915"/>
      <point x="228.3165" y="605.0"/>
      <point x="173.125" y="605.0" type="curve"/>
      <point x="173.125" y="505.0" type="line"/>
    </contour>
    <contour>
      <point x="173.125" y="405.0" type="line"/>
      <point x="273.125" y="405.0" type="line"/>
      <point x="273.125" y="505.0" type="line"/>
      <point x="173.125" y="505.0" type="line"/>
    </contour>
  </outline>
</glyph>
<glyph name="e" format="2">
  <advance width="308.75"/>
  <unicode hex="0065"/>
  <outline>
    <contour>
      <point x="35.625" y="95.0" type="line"/>
      <point x="35.625" y="39.8085"/>
      <point x="80.43350000000001" y="-5.0"/>
      <point x="135.625" y="-5.0" type="curve"/>
      <point x="135.625" y="95.0" type="line"/>
    </contour>
    <contour>
      <point x="35.625" y="95.0" type="line"/>
      <point x="135.625" y="95.0" type="line"/>
      <point x="135.625" y="195.0" type="line"/>
      <point x="35.625" y="195.0" type="line"/>
    </contour>
    <contour>
      <point x="35.625" y="195.0" type="line"/>
      <point x="135.625" y="195.0" type="line"/>
      <point x="135.625" y="405.0" type="line"/>
      <point x="35.625" y="405.0" type="line"/>
    </contour>
    <contour>
      <point x="135.625" y="605.0" type="line"/>
      <point x="80.43350000000001" y="605.0"/>
      <point x="35.625" y="560.1915"/>
      <point x="35.625" y="505.0" type="curve"/>
      <point x="135.625" y="505.0" type="line"/>
    </contour>
    <contour>
      <point x="35.625" y="405.0" type="line"/>
      <point x="135.625" y="405.0" type="line"/>
      <point x="135.625" y="505.0" type="line"/>
      <point x="35.625" y="505.0" type="line"/>
    </contour>
    <contour>
      <point x="173.125" y="195.0" type="line"/>
      <point x="273.125" y="195.0" type="line"/>
      <point x="273.125" y="405.0" type="line"/>
      <point x="173.125" y="405.0" type="line"/>
    </contour>
    <contour>
      <point x="273.125" y="505.0" type="line"/>
      <point x="273.125" y="560.1915"/>
      <point x="228.3165" y="605.0"/>
      <point x="173.125" y="605.0" type="curve"/>
      <point x="173.125" y="505.0" type="line"/>
    </contour>
    <contour>
      <point x="173.125" y="405.0" type="line"/>
      <point x="273.125" y="405.0" type="line"/>
      <point x="273.125" y="505.0" type="line"/>
      <point x="173.125" y="505.0" type="line"/>
    </contour>
  </outline>
</glyph>
<glyph name="f" format="2">
  <advance width="308.75"/>
  <unicode hex="0066"/>
  <outline>
    <contour>
      <point x="35.625" y="0" type="line"/>
      <point x="135.625" y="0" type="line"/>
      <point x="135.625" y="200" type="line"/>
      <point x="35.625" y="200" type="line"/>
    </contour>
    <contour>
      <point x="35.625" y="200" type="line"/>
      <point x="135.625" y="200" type="line"/>
      <point x="135.625" y="400" type="line"/>
      <point x="35.625" y="400" type="line"/>
    </contour>
    <contour>
      <point x="35.625" y="400" type="line"/>
      <point x="135.625" y="400" type="line"/>
      <point x="135.625" y="600" type="line"/>
      <point x="35.625" y="600" type="line"/>
    </contour>
    <contour>
      <point x="135.625" y="800.0" type="line"/>
      <point x="80.43350000000001" y="800.0"/>
      <point x="35.625" y="755.1915"/>
      <point x="35.625" y="700.0" type="curve"/>
      <point x="135.625" y="700.0" type="line"/>
    </contour>
    <contour>
      <point x="35.625" y="600" type="line"/>
      <point x="135.625" y="600" type="line"/>
      <point x="135.625" y="700.0" type="line"/>
      <point x="35.625" y="700.0" type="line"/>
    </contour>
    <contour>
      <point x="173.125" y="587.5" type="line"/>
      <point x="173.125" y="532.3085"/>
      <point x="217.9335" y="487.5"/>
      <point x="273.125" y="487.5" type="curve"/>
      <point x="273.125" y="587.5" type="line"/>
    </contour>
    <contour>
      <point x="173.125" y="800.0" type="line"/>
      <point x="173.125" y="744.8085"/>
      <point x="217.9335" y="700.0"/>
      <point x="273.125" y="700.0" type="curve"/>
      <point x="273.125" y="800.0" type="line"/>
    </contour>
  </outline>
</glyph>
<glyph name="l" format="2">
  <advance width="171.25"/>
  <unicode hex="006C"/>
  <outline>
    <contour>
      <point x="35.625" y="95.0" type="line"/>
      <point x="35.625" y="39.8085"/>
      <point x="80.43350000000001" y="-5.0"/>
      <point x="135.625" y="-5.0" type="curve"/>
      <point x="135.625" y="95.0" type="line"/>
    </contour>
    <contour>
      <point x="35.625" y="95.0" type="line"/>
      <point x="135.625" y="95.0" type="line"/>
      <point x="135.625" y="195.0" type="line"/>
      <point x="35.625" y="195.0" type="line"/>
    </contour>
    <contour>
      <point x="35.625" y="195.0" type="line"/>
      <point x="135.625" y="195.0" type="line"/>
      <point x="135.625" y="400.0" type="line"/>
      <point x="35.625" y="400.0" type="line"/>
    </contour>
    <contour>
      <point x="35.625" y="400" type="line"/>
      <point x="135.625" y="400" type="line"/>
      <point x="135.625" y="600" type="line"/>
      <point x="35.625" y="600" type="line"/>
    </contour>
    <contour>
      <point x="35.625" y="600" type="line"/>
      <point x="135.625" y="600" type="line"/>
      <point x="135.625" y="800" type="line"/>
      <point x="35.625" y="800" type="line"/>
    </contour>
  </outline>
</glyph>
<glyph name="q" format="2">
  <advance width="308.75"/>
  <unicode hex="0071"/>
  <outline>
    <contour>
      <point x="35.625" y="100.0" type="line"/>
      <point x="35.625" y="44.8085"/>
      <point x="80.43350000000001" y="0.0"/>
      <point x="135.625" y="0.0" type="curve"/>
      <point x="135.625" y="100.0" type="line"/>
    </contour>
    <contour>
      <point x="35.625" y="100.0" type="line"/>
      <point x="135.625" y="100.0" type="line"/>
      <point x="135.625" y="200.0" type="line"/>
      <point x="35.625" y="200.0" type="line"/>
    </contour>
    <contour>
      <point x="35.625" y="200" type="line"/>
      <point x="135.625" y="200" type="line"/>
      <point x="135.625" y="400" type="line"/>
      <point x="35.625" y="400" type="line"/>
    </contour>
    <contour>
      <point x="135.625" y="600.0" type="line"/>
      <point x="80.43350000000001" y="600.0"/>
      <point x="35.625" y="555.1915"/>
      <point x="35.625" y="500.0" type="curve"/>
      <point x="135.625" y="500.0" type="line"/>
    </contour>
    <contour>
      <point x="35.625" y="400" type="line"/>
      <point x="135.625" y="400" type="line"/>
      <point x="135.625" y="500.0" type="line"/>
      <point x="35.625" y="500.0" type="line"/>
    </contour>
    <contour>
      <point x="173.125" y="-200" type="line"/>
      <point x="273.125" y="-200" type="line"/>
      <point x="273.125" y="0" type="line"/>
      <point x="173.125" y="0" type="line"/>
    </contour>
    <contour>
      <point x="173.125" y="0" type="line"/>
      <point x="273.125" y="0" type="line"/>
      <point x="273.125" y="200" type="line"/>
      <point x="173.125" y="200" type="line"/>
    </contour>
    <contour>
      <point x="173.125" y="200" type="line"/>
      <point x="273.125" y="200" type="line"/>
      <point x="273.125" y="400" type="line"/>
      <point x="173.125" y="400" type="line"/>
    </contour>
    <contour>
      <point x="173.125" y="400" type="line"/>
      <point x="273.125" y="400" type="line"/>
      <point x="273.125" y="600" type="line"/>
      <point x="173.125" y="600" type="line"/>
    </contour>
  </outline>
</glyph>
<glyph name="s" format="2">
  <advance width="308.75"/>
  <unicode hex="0073"/>
  <outline>
    <contour>
      <point x="137.1875" y="0" type="line"/>
      <point x="137.1875" y="55.1915"/>
      <point x="92.37899999999999" y="100.0"/>
      <point x="37.1875" y="100.0" type="curve"/>
      <point x="37.1875" y="0" type="line"/>
    </contour>
    <contour>
      <point x="35.625" y="350.0" type="line"/>
      <point x="35.625" y="294.8085"/>
      <point x="80.43350000000001" y="250.0"/>
      <point x="135.625" y="250.0" type="curve"/>
      <point x="135.625" y="350.0" type="line"/>
    </contour>
    <contour>
      <point x="35.625" y="350.0" type="line"/>
      <point x="135.625" y="350.0" type="line"/>
      <point x="135.625" y="400.0" type="line"/>
      <point x="35.625" y="400.0" type="line"/>
    </contour>
    <contour>
      <point x="135.625" y="600.0" type="line"/>
      <point x="80.43350000000001" y="600.0"/>
      <point x="35.625" y="555.1915"/>
      <point x="35.625" y="500.0" type="curve"/>
      <point x="135.625" y="500.0" type="line"/>
    </contour>
    <contour>
      <point x="35.625" y="400" type="line"/>
      <point x="135.625" y="400" type="line"/>
      <point x="135.625" y="500.0" type="line"/>
      <point x="35.625" y="500.0" type="line"/>
    </contour>
    <contour>
      <point x="173.125" y="-5.0" type="line"/>
      <point x="228.3165" y="-5.0"/>
      <point x="273.125" y="39.8085"/>
      <point x="273.125" y="95.0" type="curve"/>
      <point x="173.125" y="95.0" type="line"/>
    </contour>
    <contour>
      <point x="173.125" y="95.0" type="line"/>
      <point x="273.125" y="95.0" type="line"/>
      <point x="273.125" y="195.0" type="line"/>
      <point x="173.125" y="195.0" type="line"/>
    </contour>
    <contour>
      <point x="273.125" y="245.0" type="line"/>
      <point x="273.125" y="300.1915"/>
      <point x="228.3165" y="345.0"/>
      <point x="173.125" y="345.0" type="curve"/>
      <point x="173.125" y="245.0" type="line"/>
    </contour>
    <contour>
      <point x="173.125" y="195.0" type="line"/>
      <point x="273.125" y="195.0" type="line"/>
      <point x="273.125" y="245.0" type="line"/>
      <point x="173.125" y="245.0" type="line"/>
    </contour>
    <contour>
      <point x="170.0" y="600.0" type="line"/>
      <point x="170.0" y="544.8085"/>
      <point x="214.8085" y="500.0"/>
      <point x="270.0" y="500.0" type="curve"/>
      <point x="270.0" y="600.0" type="line"/>
    </contour>
  </outline>
</glyph>
<glyph name="t" format="2">
  <advance width="308.75"/>
  <unicode hex="0074"/>
  <outline>
    <contour>
      <point x="35.625" y="0" type="line"/>
      <point x="135.625" y="0" type="line"/>
      <point x="135.625" y="200" type="line"/>
      <point x="35.625" y="200" type="line"/>
    </contour>
    <contour>
      <point x="35.625" y="200" type="line"/>
      <point x="135.625" y="200" type="line"/>
      <point x="135.625" y="400" type="line"/>
      <point x="35.625" y="400" type="line"/>
    </contour>
    <contour>
      <point x="35.625" y="400" type="line"/>
      <point x="135.625" y="400" type="line"/>
      <point x="135.625" y="600" type="line"/>
      <point x="35.625" y="600" type="line"/>
    </contour>
    <contour>
      <point x="135.625" y="800.0" type="line"/>
      <point x="80.43350000000001" y="800.0"/>
      <point x="35.625" y="755.1915"/>
      <point x="35.625" y="700.0" type="curve"/>
      <point x="135.625" y="700.0" type="line"/>
    </contour>
    <contour>
      <point x="35.625" y="600" type="line"/>
      <point x="135.625" y="600" type="line"/>
      <point x="135.625" y="700.0" type="line"/>
      <point x="35.625" y="700.0" type="line"/>
    </contour>
    <contour>
      <point x="173.125" y="500.0" type="line"/>
      <point x="228.3165" y="500.0"/>
      <point x="273.125" y="544.8085"/>
      <point x="273.125" y="600.0" type="curve"/>
      <point x="173.125" y="600.0" type="line"/>
    </contour>
  </outline>
</glyph>
<glyph name="v" format="2">
  <advance width="308.75"/>
  <unicode hex="0076"/>
  <outline>
    <contour>
      <point x="35.625" y="95.0" type="line"/>
      <point x="35.625" y="39.8085"/>
      <point x="80.43350000000001" y="-5.0"/>
      <point x="135.625" y="-5.0" type="curve"/>
      <point x="135.625" y="95.0" type="line"/>
    </contour>
    <contour>
      <point x="35.625" y="95.0" type="line"/>
      <point x="135.625" y="95.0" type="line"/>
      <point x="135.625" y="195.0" type="line"/>
      <point x="35.625" y="195.0" type="line"/>
    </contour>
    <contour>
      <point x="35.625" y="195.0" type="line"/>
      <point x="135.625" y="195.0" type="line"/>
      <point x="135.625" y="405.0" type="line"/>
      <point x="35.625" y="405.0" type="line"/>
    </contour>
    <contour>
      <point x="135.625" y="505.0" type="line"/>
      <point x="135.625" y="560.1915"/>
      <point x="90.81649999999999" y="605.0"/>
      <point x="35.625" y="605.0" type="curve"/>
      <point x="35.625" y="505.0" type="line"/>
    </contour>
    <contour>
      <point x="35.625" y="405.0" type="line"/>
      <point x="135.625" y="405.0" type="line"/>
      <point x="135.625" y="505.0" type="line"/>
      <point x="35.625" y="505.0" type="line"/>
    </contour>
    <contour>
      <point x="173.125" y="-5.0" type="line"/>
      <point x="228.3165" y="-5.0"/>
      <point x="273.125" y="39.8085"/>
      <point x="273.125" y="95.0" type="curve"/>
      <point x="173.125" y="95.0" type="line"/>
    </contour>
    <contour>
      <point x="173.125" y="95.0" type="line"/>
      <point x="273.125" y="95.0" type="line"/>
      <point x="273.125" y="195.0" type="line"/>
      <point x="173.125" y="195.0" type="line"/>
    </contour>
    <contour>
      <point x="173.125" y="195.0" type="line"/>
      <point x="273.125" y="195.0" type="line"/>
      <point x="273.125" y="400.0" type="line"/>
      <point x="173.125" y="400.0" type="line"/>
    </contour>
    <contour>
      <point x="173.125" y="400" type="line"/>
      <point x="273.125" y="400" type="line"/>
      <point x="273.125" y="600" type="line"/>
      <point x="173.125" y="600" type="line"/>
    </contour>
  </outline>
</glyph>
<glyph name="w" format="2">
  <advance width="446.25"/>
  <unicode hex="0077"/>
  <outline>
    <contour>
      <point x="35.625" y="100.0" type="line"/>
      <point x="35.625" y="44.8085"/>
      <point x="80.43350000000001" y="0.0"/>
      <point x="135.625" y="0.0" type="curve"/>
      <point x="135.625" y="100.0" type="line"/>
    </contour>
    <contour>
      <point x="35.625" y="100.0" type="line"/>
      <point x="135.625" y="100.0" type="line"/>
      <point x="135.625" y="200.0" type="line"/>
      <point x="35.625" y="200.0" type="line"/>
    </contour>
    <contour>
      <point x="35.625" y="200" type="line"/>
      <point x="135.625" y="200" type="line"/>
      <point x="135.625" y="400" type="line"/>
      <point x="35.625" y="400" type="line"/>
    </contour>
    <contour>
      <point x="135.625" y="500.0" type="line"/>
      <point x="135.625" y="555.1915"/>
      <point x="90.81649999999999" y="600.0"/>
      <point x="35.625" y="600.0" type="curve"/>
      <point x="35.625" y="500.0" type="line"/>
    </contour>
    <contour>
      <point x="35.625" y="400" type="line"/>
      <point x="135.625" y="400" type="line"/>
      <point x="135.625" y="500.0" type="line"/>
      <point x="35.625" y="500.0" type="line"/>
    </contour>
    <contour>
      <point x="173.125" y="0" type="line"/>
      <point x="273.125" y="0" type="line"/>
      <point x="273.125" y="200" type="line"/>
      <point x="173.125" y="200" type="line"/>
    </contour>
    <contour>
      <point x="173.125" y="200" type="line"/>
      <point x="273.125" y="200" type="line"/>
      <point x="273.125" y="400" type="line"/>
      <point x="173.125" y="400" type="line"/>
    </contour>
    <contour>
      <point x="273.125" y="500.0" type="line"/>
      <point x="273.125" y="555.1915"/>
      <point x="228.3165" y="600.0"/>
      <point x="173.125" y="600.0" type="curve"/>
      <point x="173.125" y="500.0" type="line"/>
    </contour>
    <contour>
      <point x="173.125" y="400" type="line"/>
      <point x="273.125" y="400" type="line"/>
      <point x="273.125" y="500.0" type="line"/>
      <point x="173.125" y="500.0" type="line"/>
    </contour>
    <contour>
      <point x="310.625" y="0.0" type="line"/>
      <point x="365.8165" y="0.0"/>
      <point x="410.625" y="44.8085"/>
      <point x="410.625" y="100.0" type="curve"/>
      <point x="310.625" y="100.0" type="line"/>
    </contour>
    <contour>
      <point x="310.625" y="100.0" type="line"/>
      <point x="410.625" y="100.0" type="line"/>
      <point x="410.625" y="200.0" type="line"/>
      <point x="310.625" y="200.0" type="line"/>
    </contour>
    <contour>
      <point x="310.625" y="200" type="line"/>
      <point x="410.625" y="200" type="line"/>
      <point x="410.625" y="400" type="line"/>
      <point x="310.625" y="400" type="line"/>
    </contour>
    <contour>
      <point x="310.625" y="400" type="line"/>
      <point x="410.625" y="400" type="line"/>
      <point x="410.625" y="600" type="line"/>
      <point x="310.625" y="600" type="line"/>
    </contour>
  </outline>
</glyph>
<glyph name="braceleft" format="2">
  <advance width="171.25"/>
  <unicode hex="007B"/>
  <outline>
    <contour>
      <point x="35.625" y="0.0" type="line"/>
      <point x="35.625" y="-55.1915"/>
      <point x="80.43350000000001" y="-100.0"/>
      <point x="135.625" y="-100.0" type="curve"/>
      <point x="135.625" y="0.0" type="line"/>
    </contour>
    <contour>
      <point x="35.625" y="0.0" type="line"/>
      <point x="135.625" y="0.0" type="line"/>
      <point x="135.625" y="100.0" type="line"/>
      <point x="35.625" y="100.0" type="line"/>
    </contour>
    <contour>
      <point x="35.625" y="100.0" type="line"/>
      <point x="135.625" y="100.0" type="line"/>
      <point x="135.625" y="200.0" type="line"/>
      <point x="35.625" y="200.0" type="line"/>
    </contour>
    <contour>
      <point x="135.625" y="300.0" type="line"/>
      <point x="135.625" y="355.1915"/>
      <point x="90.81649999999999" y="400.0"/>
      <point x="35.625" y="400.0" type="curve"/>
      <point x="35.625" y="300.0" type="line"/>
    </contour>
    <contour>
      <point x="35.625" y="200" type="line"/>
      <point x="135.625" y="200" type="line"/>
      <point x="135.625" y="300.0" type="line"/>
      <point x="35.625" y="300.0" type="line"/>
    </contour>
    <contour>
      <point x="35.625" y="400.0" type="line"/>
      <point x="90.81649999999999" y="400.0"/>
      <point x="135.625" y="444.8085"/>
      <point x="135.625" y="500.0" type="curve"/>
      <point x="35.625" y="500.0" type="line"/>
    </contour>
    <contour>
      <point x="35.625" y="500.0" type="line"/>
      <point x="135.625" y="500.0" type="line"/>
      <point x="135.625" y="600.0" type="line"/>
      <point x="35.625" y="600.0" type="line"/>
    </contour>
    <contour>
      <point x="35.625" y="600" type="line"/>
      <point x="135.625" y="600" type="line"/>
      <point x="135.625" y="700.0" type="line"/>
      <point x="35.625" y="700.0" type="line"/>
    </contour>
    <contour>
      <point x="135.625" y="900.0" type="line"/>
      <point x="80.43350000000001" y="900.0"/>
      <point x="35.625" y="855.1915"/>
      <point x="35.625" y="800.0" type="curve"/>
      <point x="135.625" y="800.0" type="line"/>
    </contour>
    <contour>
      <point x="35.625" y="700.0" type="line"/>
      <point x="135.625" y="700.0" type="line"/>
      <point x="135.625" y="800.0" type="line"/>
      <point x="35.625" y="800.0" type="line"/>
    </contour>
  </outline>
</glyph>
<glyph name="tilde" format="2">
  <advance width="308.75"/>
  <unicode hex="007E"/>
  <outline>
    <contour>
      <point x="135.625" y="450.0" type="line"/>
      <point x="80.43350000000001" y="450.0"/>
      <point x="35.625" y="405.1915"/>
      <point x="35.625" y="350.0" type="curve"/>
      <point x="135.625" y="350.0" type="line"/>
    </contour>
    <contour>
      <point x="135.625" y="350.0" type="line"/>
      <point x="173.125" y="350.0" type="line"/>
      <point x="173.125" y="450.0" type="line"/>
      <point x="135.625" y="450.0" type="line"/>
    </contour>
    <contour>
      <point x="173.125" y="350.0" type="line"/>
      <point x="228.3165" y="350.0"/>
      <point x="273.125" y="394.8085"/>
      <point x="273.125" y="450.0" type="curve"/>
      <point x="173.125" y="450.0" type="line"/>
    </contour>
  </outline>
</glyph>
<glyph name="invexclamation" format="2">
  <advance width="171.25"/>
  <unicode hex="00A1"/>
  <outline>
    <contour>
      <point x="35.625" y="-200" type="line"/>
      <point x="135.625" y="-200" type="line"/>
      <point x="135.625" y="0" type="line"/>
      <point x="35.625" y="0" type="line"/>
    </contour>
    <contour>
      <point x="35.625" y="0" type="line"/>
      <point x="135.625" y="0" type="line"/>
      <point x="135.625" y="200" type="line"/>
      <point x="35.625" y="200" type="line"/>
    </contour>
    <contour>
      <point x="35.625" y="200" type="line"/>
      <point x="135.625" y="200" type="line"/>
      <point x="135.625" y="408.33333" type="line"/>
      <point x="35.625" y="408.33333" type="line"/>
    </contour>
    <contour>
      <point x="140.625" y="556.25" type="curve" smooth="yes"/>
      <point x="140.625" y="586.60533"/>
      <point x="115.98033" y="611.25"/>
      <point x="85.625" y="611.25" type="curve" smooth="yes"/>
      <point x="55.269670000000005" y="611.25"/>
      <point x="30.625" y="586.60533"/>
      <point x="30.625" y="556.25" type="curve" smooth="yes"/>
      <point x="30.625" y="525.89467"/>
      <point x="55.269670000000005" y="501.25"/>
      <point x="85.625" y="501.25" type="curve" smooth="yes"/>
      <point x="115.98033" y="501.25"/>
      <point x="140.625" y="525.89467"/>
    </contour>
  </outline>
</glyph>
<glyph name="cent" format="2">
  <advance width="308.75"/>
  <unicode hex="00A2"/>
  <outline>
    <contour>
      <point x="85.625" y="0" type="line"/>
      <point x="135.625" y="0" type="line"/>
      <point x="135.625" y="100.0" type="line"/>
      <point x="85.625" y="100.0" type="line"/>
    </contour>
    <contour>
      <point x="85.625" y="100.0" type="line"/>
      <point x="135.625" y="100.0" type="line"/>
      <point x="135.625" y="200.0" type="line"/>
      <point x="85.625" y="200.0" type="line"/>
    </contour>
    <contour>
      <point x="35.625" y="200.0" type="line"/>
      <point x="35.625" y="144.8085"/>
      <point x="80.43350000000001" y="100.0"/>
      <point x="135.625" y="100.0" type="curve"/>
      <point x="135.625" y="200.0" type="line"/>
    </contour>
    <contour>
      <point x="35.625" y="200.0" type="line"/>
      <point x="135.625" y="200.0" type="line"/>
      <point x="135.625" y="300.0" type="line"/>
      <point x="35.625" y="300.0" type="line"/>
    </contour>
    <contour>
      <point x="135.625" y="500.0" type="line"/>
      <point x="80.43350000000001" y="500.0"/>
      <point x="35.625" y="455.1915"/>
      <point x="35.625" y="400.0" type="curve"/>
      <point x="135.625" y="400.0" type="line"/>
    </contour>
    <contour>
      <point x="35.625" y="300.0" type="line"/>
      <point x="135.625" y="300.0" type="line"/>
      <point x="135.625" y="400.0" type="line"/>
      <point x="35.625" y="400.0" type="line"/>
    </contour>
    <contour>
      <point x="85.625" y="400" type="line"/>
      <point x="135.625" y="400" type="line"/>
      <point x="135.625" y="500.0" type="line"/>
      <point x="85.625" y="500.0" type="line"/>
    </contour>
    <contour>
      <point x="85.625" y="500.0" type="line"/>
      <point x="135.625" y="500.0" type="line"/>
      <point x="135.625" y="600.0" type="line"/>
      <point x="85.625" y="600.0" type="line"/>
    </contour>
    <contour>
      <point x="173.125" y="0" type="line"/>
      <point x="223.125" y="0" type="line"/>
      <point x="223.125" y="100.0" type="line"/>
      <point x="173.125" y="100.0" type="line"/>
    </contour>
    <contour>
      <point x="273.125" y="200.0" type="line"/>
      <point x="217.9335" y="200.0"/>
      <point x="173.125" y="155.1915"/>
      <point x="173.125" y="100.0" type="curve"/>
      <point x="273.125" y="100.0" type="line"/>
    </contour>
    <contour>
      <point x="173.125" y="500.0" type="line"/>
      <point x="173.125" y="444.8085"/>
      <point x="217.9335" y="400.0"/>
      <point x="273.125" y="400.0" type="curve"/>
      <point x="273.125" y="500.0" type="line"/>
    </contour>
    <contour>
      <point x="173.125" y="500.0" type="line"/>
      <point x="223.125" y="500.0" type="line"/>
      <point x="223.125" y="600.0" type="line"/>
      <point x="173.125" y="600.0" type="line"/>
    </contour>
  </outline>
</glyph>
<glyph name="currency" format="2">
  <advance width="308.75"/>
  <unicode hex="00A4"/>
  <outline>
    <contour>
      <point x="35.625" y="350.0" type="line"/>
      <point x="35.625" y="294.8085"/>
      <point x="80.43350000000001" y="250.0"/>
      <point x="135.625" y="250.0" type="curve"/>
      <point x="135.625" y="350.0" type="line"/>
    </contour>
    <contour>
      <point x="35.625" y="350.0" type="line"/>
      <point x="135.625" y="350.0" type="line"/>
      <point x="135.625" y="400.0" type="line"/>
      <point x="35.625" y="400.0" type="line"/>
    </contour>
    <contour>
      <point x="135.625" y="550.0" type="line"/>
      <point x="80.43350000000001" y="550.0"/>
      <point x="35.625" y="505.1915"/>
      <point x="35.625" y="450.0" type="curve"/>
      <point x="135.625" y="450.0" type="line"/>
    </contour>
    <contour>
      <point x="35.625" y="400" type="line"/>
      <point x="135.625" y="400" type="line"/>
      <point x="135.625" y="450.0" type="line"/>
      <point x="35.625" y="450.0" type="line"/>
    </contour>
    <contour>
      <point x="35.625" y="225.0" type="line"/>
      <point x="85.625" y="225.0" type="line"/>
      <point x="85.625" y="275.0" type="line"/>
      <point x="35.625" y="275.0" type="line"/>
    </contour>
    <contour>
      <point x="35.625" y="525.0" type="line"/>
      <point x="85.625" y="525.0" type="line"/>
      <point x="85.625" y="575.0" type="line"/>
      <point x="35.625" y="575.0" type="line"/>
    </contour>
    <contour>
      <point x="173.125" y="250.0" type="line"/>
      <point x="228.3165" y="250.0"/>
      <point x="273.125" y="294.8085"/>
      <point x="273.125" y="350.0" type="curve"/>
      <point x="173.125" y="350.0" type="line"/>
    </contour>
    <contour>
      <point x="173.125" y="350.0" type="line"/>
      <point x="273.125" y="350.0" type="line"/>
      <point x="273.125" y="400.0" type="line"/>
      <point x="173.125" y="400.0" type="line"/>
    </contour>
    <contour>
      <point x="273.125" y="450.0" type="line"/>
      <point x="273.125" y="505.1915"/>
      <point x="228.3165" y="550.0"/>
      <point x="173.125" y="550.0" type="curve"/>
      <point x="173.125" y="450.0" type="line"/>
    </contour>
    <contour>
      <point x="173.125" y="400" type="line"/>
      <point x="273.125" y="400" type="line"/>
      <point x="273.125" y="450.0" type="line"/>
      <point x="173.125" y="450.0" type="line"/>
    </contour>
    <contour>
      <point x="223.125" y="225.0" type="line"/>
      <point x="273.125" y="225.0" type="line"/>
      <point x="273.125" y="275.0" type="line"/>
      <point x="223.125" y="275.0" type="line"/>
    </contour>
    <contour>
      <point x="223.125" y="525.0" type="line"/>
      <point x="273.125" y="525.0" type="line"/>
      <point x="273.125" y="575.0" type="line"/>
      <point x="223.125" y="575.0" type="line"/>
    </contour>
  </outline>
</glyph>
<glyph name="yen" format="2">
  <advance width="483.75"/>
  <unicode hex="00A5"/>
  <outline>
    <contour>
      <point x="35.625" y="400.0" type="line"/>
      <point x="85.625" y="400.0" type="line"/>
      <point x="85.625" y="450.0" type="line"/>
      <point x="35.625" y="450.0" type="line"/>
    </contour>
    <contour>
      <point x="35.625" y="550.0" type="line"/>
      <point x="85.625" y="550.0" type="line"/>
      <point x="85.625" y="600.0" type="line"/>
      <point x="35.625" y="600.0" type="line"/>
    </contour>
    <contour>
      <point x="123.125" y="300.0" type="line"/>
      <point x="123.125" y="244.8085"/>
      <point x="167.9335" y="200.0"/>
      <point x="223.125" y="200.0" type="curve"/>
      <point x="223.125" y="300.0" type="line"/>
    </contour>
    <contour>
      <point x="123.125" y="300.0" type="line"/>
      <point x="223.125" y="300.0" type="line"/>
      <point x="223.125" y="400.0" type="line"/>
      <point x="123.125" y="400.0" type="line"/>
    </contour>
    <contour>
      <point x="123.125" y="400" type="line"/>
      <point x="223.125" y="400" type="line"/>
      <point x="223.125" y="605.0" type="line"/>
      <point x="123.125" y="605.0" type="line"/>
    </contour>
    <contour>
      <point x="223.125" y="705.0" type="line"/>
      <point x="223.125" y="760.1915"/>
      <point x="178.3165" y="805.0"/>
      <point x="123.125" y="805.0" type="curve"/>
      <point x="123.125" y="705.0" type="line"/>
    </contour>
    <contour>
      <point x="123.125" y="605.0" type="line"/>
      <point x="223.125" y="605.0" type="line"/>
      <point x="223.125" y="705.0" type="line"/>
      <point x="123.125" y="705.0" type="line"/>
    </contour>
    <contour>
      <point x="260.625" y="-5.0" type="line"/>
      <point x="315.8165" y="-5.0"/>
      <point x="360.625" y="39.8085"/>
      <point x="360.625" y="95.0" type="curve"/>
      <point x="260.625" y="95.0" type="line"/>
    </contour>
    <contour>
      <point x="260.625" y="95.0" type="line"/>
      <point x="360.625" y="95.0" type="line"/>
      <point x="360.625" y="195.0" type="line"/>
      <point x="260.625" y="195.0" type="line"/>
    </contour>
    <contour>
      <point x="260.625" y="195.0" type="line"/>
      <point x="360.625" y="195.0" type="line"/>
      <point x="360.625" y="400.0" type="line"/>
      <point x="260.625" y="400.0" type="line"/>
    </contour>
    <contour>
      <point x="260.625" y="400" type="line"/>
      <point x="360.625" y="400" type="line"/>
      <point x="360.625" y="600" type="line"/>
      <point x="260.625" y="600" type="line"/>
    </contour>
    <contour>
      <point x="260.625" y="600" type="line"/>
      <point x="360.625" y="600" type="line"/>
      <point x="360.625" y="800" type="line"/>
      <point x="260.625" y="800" type="line"/>
    </contour>
    <contour>
      <point x="398.125" y="400.0" type="line"/>
      <point x="448.125" y="400.0" type="line"/>
      <point x="448.125" y="450.0" type="line"/>
      <point x="398.125" y="450.0" type="line"/>
    </contour>
    <contour>
      <point x="398.125" y="550.0" type="line"/>
      <point x="448.125" y="550.0" type="line"/>
      <point x="448.125" y="600.0" type="line"/>
      <point x="398.125" y="600.0" type="line"/>
    </contour>
  </outline>
</glyph>
<glyph name="brokenbar" format="2">
  <advance width="171.25"/>
  <unicode hex="00A6"/>
  <outline>
    <contour>
      <point x="35.625" y="-100.0" type="line"/>
      <point x="135.625" y="-100.0" type="line"/>
      <point x="135.625" y="100.0" type="line"/>
      <point x="35.625" y="100.0" type="line"/>
    </contour>
    <contour>
      <point x="35.625" y="100.0" type="line"/>
      <point x="135.625" y="100.0" type="line"/>
      <point x="135.625" y="300.0" type="line"/>
      <point x="35.625" y="300.0" type="line"/>
    </contour>
    <contour>
      <point x="35.625" y="500.0" type="line"/>
      <point x="135.625" y="500.0" type="line"/>
      <point x="135.625" y="700.0" type="line"/>
      <point x="35.625" y="700.0" type="line"/>
    </contour>
    <contour>
      <point x="35.625" y="700.0" type="line"/>
      <point x="135.625" y="700.0" type="line"/>
      <point x="135.625" y="900.0" type="line"/>
      <point x="35.625" y="900.0" type="line"/>
    </contour>
  </outline>
</glyph>
<glyph name="section" format="2">
  <advance width="308.75"/>
  <unicode hex="00A7"/>
  <outline>
    <contour>
      <point x="135.625" y="-200" type="line"/>
      <point x="135.625" y="-144.8085"/>
      <point x="90.81649999999999" y="-100.0"/>
      <point x="35.625" y="-100.0" type="curve"/>
      <point x="35.625" y="-200" type="line"/>
    </contour>
    <contour>
      <point x="35.625" y="200.0" type="line"/>
      <point x="35.625" y="144.8085"/>
      <point x="80.43350000000001" y="100.0"/>
      <point x="135.625" y="100.0" type="curve"/>
      <point x="135.625" y="200.0" type="line"/>
    </contour>
    <contour>
      <point x="35.625" y="200.0" type="line"/>
      <point x="135.625" y="200.0" type="line"/>
      <point x="135.625" y="300.0" type="line"/>
      <point x="35.625" y="300.0" type="line"/>
    </contour>
    <contour>
      <point x="135.625" y="500.0" type="line"/>
      <point x="80.43350000000001" y="500.0"/>
      <point x="35.625" y="455.1915"/>
      <point x="35.625" y="400.0" type="curve"/>
      <point x="135.625" y="400.0" type="line"/>
    </contour>
    <contour>
      <point x="35.625" y="300.0" type="line"/>
      <point x="135.625" y="300.0" type="line"/>
      <point x="135.625" y="400.0" type="line"/>
      <point x="35.625" y="400.0" type="line"/>
    </contour>
    <contour>
      <point x="35.625" y="550.0" type="line"/>
      <point x="35.625" y="494.8085"/>
      <point x="80.43350000000001" y="450.0"/>
      <point x="135.625" y="450.0" type="curve"/>
      <point x="135.625" y="550.0" type="line"/>
    </contour>
    <contour>
      <point x="35.625" y="550.0" type="line"/>
      <point x="135.625" y="550.0" type="line"/>
      <point x="135.625" y="600.0" type="line"/>
      <point x="35.625" y="600.0" type="line"/>
    </contour>
    <contour>
      <point x="135.625" y="800.0" type="line"/>
      <point x="80.43350000000001" y="800.0"/>
      <point x="35.625" y="755.1915"/>
      <point x="35.625" y="700.0" type="curve"/>
      <point x="135.625" y="700.0" type="line"/>
    </contour>
    <contour>
      <point x="35.625" y="600" type="line"/>
      <point x="135.625" y="600" type="line"/>
      <point x="135.625" y="700.0" type="line"/>
      <point x="35.625" y="700.0" type="line"/>
    </contour>
    <contour>
      <point x="173.125" y="-200.0" type="line"/>
      <point x="228.3165" y="-200.0"/>
      <point x="273.125" y="-155.1915"/>
      <point x="273.125" y="-100.0" type="curve"/>
      <point x="173.125" y="-100.0" type="line"/>
    </contour>
    <contour>
      <point x="173.125" y="-100.0" type="line"/>
      <point x="273.125" y="-100.0" type="line"/>
      <point x="273.125" y="0.0" type="line"/>
      <point x="173.125" y="0.0" type="line"/>
    </contour>
    <contour>
      <point x="273.125" y="50.0" type="line"/>
      <point x="273.125" y="105.1915"/>
      <point x="228.3165" y="150.0"/>
      <point x="173.125" y="150.0" type="curve"/>
      <point x="173.125" y="50.0" type="line"/>
    </contour>
    <contour>
      <point x="173.125" y="0" type="line"/>
      <point x="273.125" y="0" type="line"/>
      <point x="273.125" y="50.0" type="line"/>
      <point x="173.125" y="50.0" type="line"/>
    </contour>
    <contour>
      <point x="173.125" y="100.0" type="line"/>
      <point x="228.3165" y="100.0"/>
      <point x="273.125" y="144.8085"/>
      <point x="273.125" y="200.0" type="curve"/>
      <point x="173.125" y="200.0" type="line"/>
    </contour>
    <contour>
      <point x="173.125" y="200.0" type="line"/>
      <point x="273.125" y="200.0" type="line"/>
      <point x="273.125" y="300.0" type="line"/>
      <point x="173.125" y="300.0" type="line"/>
    </contour>
    <contour>
      <point x="273.125" y="400.0" type="line"/>
      <point x="273.125" y="455.1915"/>
      <point x="228.3165" y="500.0"/>
      <point x="173.125" y="500.0" type="curve"/>
      <point x="173.125" y="400.0" type="line"/>
    </contour>
    <contour>
      <point x="173.125" y="300.0" type="line"/>
      <point x="273.125" y="300.0" type="line"/>
      <point x="273.125" y="400.0" type="line"/>
      <point x="173.125" y="400.0" type="line"/>
    </contour>
    <contour>
      <point x="173.125" y="800.0" type="line"/>
      <point x="173.125" y="744.8085"/>
      <point x="217.9335" y="700.0"/>
      <point x="273.125" y="700.0" type="curve"/>
      <point x="273.125" y="800.0" type="line"/>
    </contour>
  </outline>
</glyph>
<glyph name="copyright" format="2">
  <advance width="842.0704"/>
  <unicode hex="00A9"/>
  <outline>
    <contour>
      <point x="296.03520000000003" y="300.0" type="curve"/>
      <point x="396.03520000000003" y="300.0" type="line"/>
      <point x="396.03520000000003" y="200.0" type="line"/>
      <point x="340.8437" y="200.0"/>
      <point x="296.03520000000003" y="244.8085"/>
    </contour>
    <contour>
      <point x="296.03520000000003" y="300.0" type="line"/>
      <point x="296.03520000000003" y="400.0" type="line"/>
      <point x="396.03520000000003" y="400.0" type="line"/>
      <point x="396.03520000000003" y="300.0" type="line"/>
    </contour>
    <contour>
      <point x="396.03520000000003" y="605.0" type="curve"/>
      <point x="396.03520000000003" y="505.0" type="line"/>
      <point x="296.03520000000003" y="505.0" type="line"/>
      <point x="296.03520000000003" y="560.1915"/>
      <point x="340.8437" y="605.0"/>
    </contour>
    <contour>
      <point x="296.03520000000003" y="400" type="line"/>
      <point x="296.03520000000003" y="505.0" type="line"/>
      <point x="396.03520000000003" y="505.0" type="line"/>
      <point x="396.03520000000003" y="400" type="line"/>
    </contour>
    <contour>
      <point x="531.9727" y="300.0" type="curve"/>
      <point x="531.9727" y="200.0" type="line"/>
      <point x="431.97270000000003" y="200.0" type="line"/>
      <point x="431.97270000000003" y="255.1915"/>
      <point x="476.7812" y="300.0"/>
    </contour>
    <contour>
      <point x="533.5352" y="560.0" type="curve" smooth="yes"/>
      <point x="533.5352" y="532.40425"/>
      <point x="511.13095" y="510.0"/>
      <point x="483.53520000000003" y="510.0" type="curve" smooth="yes"/>
      <point x="455.93944999999997" y="510.0"/>
      <point x="433.53520000000003" y="532.40425"/>
      <point x="433.53520000000003" y="560.0" type="curve" smooth="yes"/>
      <point x="433.53520000000003" y="587.59575"/>
      <point x="455.93944999999997" y="610.0"/>
      <point x="483.53520000000003" y="610.0" type="curve" smooth="yes"/>
      <point x="511.13095" y="610.0"/>
      <point x="533.5352" y="587.59575"/>
    </contour>
    <contour>
      <point x="756.4454" y="405.0" type="curve" smooth="yes"/>
      <point x="756.4454" y="590.11793"/>
      <point x="606.15313" y="740.4102"/>
      <point x="421.03520000000003" y="740.4102" type="curve" smooth="yes"/>
      <point x="235.91727" y="740.4102"/>
      <point x="85.625" y="590.11793"/>
      <point x="85.625" y="405.0" type="curve" smooth="yes"/>
      <point x="85.625" y="219.88207"/>
      <point x="235.91727" y="69.5898"/>
      <point x="421.03520000000003" y="69.5898" type="curve" smooth="yes"/>
      <point x="606.15313" y="69.5898"/>
      <point x="756.4454" y="219.88207"/>
    </contour>
  </outline>
</glyph>
<glyph name="ordinalfeminine" format="2">
  <advance width="308.75"/>
  <unicode hex="00AA"/>
  <outline>
    <contour>
      <point x="35.625" y="500.0" type="line"/>
      <point x="35.625" y="444.8085"/>
      <point x="80.43350000000001" y="400.0"/>
      <point x="135.625" y="400.0" type="curve"/>
      <point x="135.625" y="500.0" type="line"/>
    </contour>
    <contour>
      <point x="35.625" y="500.0" type="line"/>
      <point x="135.625" y="500.0" type="line"/>
      <point x="135.625" y="600.0" type="line"/>
      <point x="35.625" y="600.0" type="line"/>
    </contour>
    <contour>
      <point x="135.625" y="800.0" type="line"/>
      <point x="80.43350000000001" y="800.0"/>
      <point x="35.625" y="755.1915"/>
      <point x="35.625" y="700.0" type="curve"/>
      <point x="135.625" y="700.0" type="line"/>
    </contour>
    <contour>
      <point x="35.625" y="600" type="line"/>
      <point x="135.625" y="600" type="line"/>
      <point x="135.625" y="700.0" type="line"/>
      <point x="35.625" y="700.0" type="line"/>
    </contour>
    <contour>
      <point x="173.125" y="500.0" type="line"/>
      <point x="173.125" y="444.8085"/>
      <point x="217.9335" y="400.0"/>
      <point x="273.125" y="400.0" type="curve"/>
      <point x="273.125" y="500.0" type="line"/>
    </contour>
    <contour>
      <point x="173.125" y="500.0" type="line"/>
      <point x="273.125" y="500.0" type="line"/>
      <point x="273.125" y="600.0" type="line"/>
      <point x="173.125" y="600.0" type="line"/>
    </contour>
    <contour>
      <point x="173.125" y="600" type="line"/>
      <point x="273.125" y="600" type="line"/>
      <point x="273.125" y="800" type="line"/>
      <point x="173.125" y="800" type="line"/>
    </contour>
  </outline>
</glyph>
<glyph name="plus_minus" format="2">
  <advance width="446.25"/>
  <unicode hex="00B1"/>
  <outline>
    <contour>
      <point x="73.125" y="150.0" type="line"/>
      <point x="173.125" y="150.0" type="line"/>
      <point x="173.125" y="250.0" type="line"/>
      <point x="73.125" y="250.0" type="line"/>
    </contour>
    <contour>
      <point x="73.125" y="450.0" type="line"/>
      <point x="173.125" y="450.0" type="line"/>
      <point x="173.125" y="550.0" type="line"/>
      <point x="73.125" y="550.0" type="line"/>
    </contour>
    <contour>
      <point x="173.125" y="150.0" type="line"/>
      <point x="273.125" y="150.0" type="line"/>
      <point x="273.125" y="250.0" type="line"/>
      <point x="173.125" y="250.0" type="line"/>
    </contour>
    <contour>
      <point x="173.125" y="300.0" type="line"/>
      <point x="273.125" y="300.0" type="line"/>
      <point x="273.125" y="400.0" type="line"/>
      <point x="173.125" y="400.0" type="line"/>
    </contour>
    <contour>
      <point x="173.125" y="400" type="line"/>
      <point x="273.125" y="400" type="line"/>
      <point x="273.125" y="600" type="line"/>
      <point x="173.125" y="600" type="line"/>
    </contour>
    <contour>
      <point x="173.125" y="600" type="line"/>
      <point x="273.125" y="600" type="line"/>
      <point x="273.125" y="700.0" type="line"/>
      <point x="173.125" y="700.0" type="line"/>
    </contour>
    <contour>
      <point x="273.125" y="150.0" type="line"/>
      <point x="373.125" y="150.0" type="line"/>
      <point x="373.125" y="250.0" type="line"/>
      <point x="273.125" y="250.0" type="line"/>
    </contour>
    <contour>
      <point x="273.125" y="450.0" type="line"/>
      <point x="373.125" y="450.0" type="line"/>
      <point x="373.125" y="550.0" type="line"/>
      <point x="273.125" y="550.0" type="line"/>
    </contour>
  </outline>
</glyph>
<glyph name="sup_two" format="2">
  <advance width="308.75"/>
  <unicode hex="00B2"/>
  <outline>
    <contour>
      <point x="135.625" y="300.0" type="line"/>
      <point x="80.43350000000001" y="300.0"/>
      <point x="35.625" y="255.1915"/>
      <point x="35.625" y="200.0" type="curve"/>
      <point x="135.625" y="200.0" type="line"/>
    </contour>
    <contour>
      <point x="135.625" y="200" type="line"/>
      <point x="173.125" y="200" type="line"/>
      <point x="173.125" y="300.0" type="line"/>
      <point x="135.625" y="300.0" type="line"/>
    </contour>
    <contour>
      <point x="143.75" y="750.0" type="curve" smooth="yes"/>
      <point x="143.75" y="780.35533"/>
      <point x="119.10533" y="805.0"/>
      <point x="88.75" y="805.0" type="curve" smooth="yes"/>
      <point x="58.394670000000005" y="805.0"/>
      <point x="33.75" y="780.35533"/>
      <point x="33.75" y="750.0" type="curve" smooth="yes"/>
      <point x="33.75" y="719.64467"/>
      <point x="58.394670000000005" y="695.0"/>
      <point x="88.75" y="695.0" type="curve" smooth="yes"/>
      <point x="119.10533" y="695.0"/>
      <point x="143.75" y="719.64467"/>
    </contour>
    <contour>
      <point x="173.125" y="200" type="line"/>
      <point x="273.125" y="200" type="line"/>
      <point x="273.125" y="300.0" type="line"/>
      <point x="173.125" y="300.0" type="line"/>
    </contour>
    <contour>
      <point x="173.125" y="345.0" type="line"/>
      <point x="228.3165" y="345.0"/>
      <point x="273.125" y="389.8085"/>
      <point x="273.125" y="445.0" type="curve"/>
      <point x="173.125" y="445.0" type="line"/>
    </contour>
    <contour>
      <point x="173.125" y="445.0" type="line"/>
      <point x="273.125" y="445.0" type="line"/>
      <point x="273.125" y="605.0" type="line"/>
      <point x="173.125" y="605.0" type="line"/>
    </contour>
    <contour>
      <point x="273.125" y="705.0" type="line"/>
      <point x="273.125" y="760.1915"/>
      <point x="228.3165" y="805.0"/>
      <point x="173.125" y="805.0" type="curve"/>
      <point x="173.125" y="705.0" type="line"/>
    </contour>
    <contour>
      <point x="173.125" y="605.0" type="line"/>
      <point x="273.125" y="605.0" type="line"/>
      <point x="273.125" y="705.0" type="line"/>
      <point x="173.125" y="705.0" type="line"/>
    </contour>
  </outline>
</glyph>
<glyph name="sup_three" format="2">
  <advance width="308.75"/>
  <unicode hex="00B3"/>
  <outline>
    <contour>
      <point x="140.625" y="250.0" type="curve" smooth="yes"/>
      <point x="140.625" y="280.35533"/>
      <point x="115.98033" y="305.0"/>
      <point x="85.625" y="305.0" type="curve" smooth="yes"/>
      <point x="55.269670000000005" y="305.0"/>
      <point x="30.625" y="280.35533"/>
      <point x="30.625" y="250.0" type="curve" smooth="yes"/>
      <point x="30.625" y="219.64467"/>
      <point x="55.269670000000005" y="195.0"/>
      <point x="85.625" y="195.0" type="curve" smooth="yes"/>
      <point x="115.98033" y="195.0"/>
      <point x="140.625" y="219.64467"/>
    </contour>
    <contour>
      <point x="140.625" y="750.0" type="curve" smooth="yes"/>
      <point x="140.625" y="780.35533"/>
      <point x="115.98033" y="805.0"/>
      <point x="85.625" y="805.0" type="curve" smooth="yes"/>
      <point x="55.269670000000005" y="805.0"/>
      <point x="30.625" y="780.35533"/>
      <point x="30.625" y="750.0" type="curve" smooth="yes"/>
      <point x="30.625" y="719.64467"/>
      <point x="55.269670000000005" y="695.0"/>
      <point x="85.625" y="695.0" type="curve" smooth="yes"/>
      <point x="115.98033" y="695.0"/>
      <point x="140.625" y="719.64467"/>
    </contour>
    <contour>
      <point x="173.125" y="195.0" type="line"/>
      <point x="228.3165" y="195.0"/>
      <point x="273.125" y="239.8085"/>
      <point x="273.125" y="295.0" type="curve"/>
      <point x="173.125" y="295.0" type="line"/>
    </contour>
    <contour>
      <point x="173.125" y="295.0" type="line"/>
      <point x="273.125" y="295.0" type="line"/>
      <point x="273.125" y="400.0" type="line"/>
      <point x="173.125" y="400.0" type="line"/>
    </contour>
    <contour>
      <point x="273.125" y="500.0" type="line"/>
      <point x="273.125" y="555.1915"/>
      <point x="228.3165" y="600.0"/>
      <point x="173.125" y="600.0" type="curve"/>
      <point x="173.125" y="500.0" type="line"/>
    </contour>
    <contour>
      <point x="173.125" y="400" type="line"/>
      <point x="273.125" y="400" type="line"/>
      <point x="273.125" y="500.0" type="line"/>
      <point x="173.125" y="500.0" type="line"/>
    </contour>
    <contour>
      <point x="173.125" y="600.0" type="line"/>
      <point x="228.3165" y="600.0"/>
      <point x="273.125" y="644.8085"/>
      <point x="273.125" y="700.0" type="curve"/>
      <point x="173.125" y="700.0" type="line"/>
    </contour>
    <contour>
      <point x="173.125" y="700.0" type="line"/>
      <point x="273.125" y="700.0" type="line"/>
      <point x="273.125" y="800.0" type="line"/>
      <point x="173.125" y="800.0" type="line"/>
    </contour>
  </outline>
</glyph>
<glyph name="mu" format="2">
  <advance width="346.25"/>
  <unicode hex="00B5"/>
  <outline>
    <contour>
      <point x="35.625" y="-200" type="line"/>
      <point x="135.625" y="-200" type="line"/>
      <point x="135.625" y="0" type="line"/>
      <point x="35.625" y="0" type="line"/>
    </contour>
    <contour>
      <point x="35.625" y="0" type="line"/>
      <point x="135.625" y="0" type="line"/>
      <point x="135.625" y="200" type="line"/>
      <point x="35.625" y="200" type="line"/>
    </contour>
    <contour>
      <point x="35.625" y="200" type="line"/>
      <point x="135.625" y="200" type="line"/>
      <point x="135.625" y="400" type="line"/>
      <point x="35.625" y="400" type="line"/>
    </contour>
    <contour>
      <point x="35.625" y="400" type="line"/>
      <point x="135.625" y="400" type="line"/>
      <point x="135.625" y="600" type="line"/>
      <point x="35.625" y="600" type="line"/>
    </contour>
    <contour>
      <point x="173.125" y="100.0" type="line"/>
      <point x="173.125" y="44.8085"/>
      <point x="217.9335" y="0.0"/>
      <point x="273.125" y="0.0" type="curve"/>
      <point x="273.125" y="100.0" type="line"/>
    </contour>
    <contour>
      <point x="173.125" y="100.0" type="line"/>
      <point x="273.125" y="100.0" type="line"/>
      <point x="273.125" y="200.0" type="line"/>
      <point x="173.125" y="200.0" type="line"/>
    </contour>
    <contour>
      <point x="273.125" y="0" type="line"/>
      <point x="310.625" y="0" type="line"/>
      <point x="310.625" y="100.0" type="line"/>
      <point x="273.125" y="100.0" type="line"/>
    </contour>
    <contour>
      <point x="173.125" y="200" type="line"/>
      <point x="273.125" y="200" type="line"/>
      <point x="273.125" y="400" type="line"/>
      <point x="173.125" y="400" type="line"/>
    </contour>
    <contour>
      <point x="173.125" y="400" type="line"/>
      <point x="273.125" y="400" type="line"/>
      <point x="273.125" y="600" type="line"/>
      <point x="173.125" y="600" type="line"/>
    </contour>
  </outline>
</glyph>
<glyph name="ordinalmasculine" format="2">
  <advance width="308.75"/>
  <unicode hex="00BA"/>
  <outline>
    <contour>
      <point x="35.625" y="500.0" type="line"/>
      <point x="35.625" y="444.8085"/>
      <point x="80.43350000000001" y="400.0"/>
      <point x="135.625" y="400.0" type="curve"/>
      <point x="135.625" y="500.0" type="line"/>
    </contour>
    <contour>
      <point x="35.625" y="500.0" type="line"/>
      <point x="135.625" y="500.0" type="line"/>
      <point x="135.625" y="600.0" type="line"/>
      <point x="35.625" y="600.0" type="line"/>
    </contour>
    <contour>
      <point x="135.625" y="800.0" type="line"/>
      <point x="80.43350000000001" y="800.0"/>
      <point x="35.625" y="755.1915"/>
      <point x="35.625" y="700.0" type="curve"/>
      <point x="135.625" y="700.0" type="line"/>
    </contour>
    <contour>
      <point x="35.625" y="600" type="line"/>
      <point x="135.625" y="600" type="line"/>
      <point x="135.625" y="700.0" type="line"/>
      <point x="35.625" y="700.0" type="line"/>
    </contour>
    <contour>
      <point x="173.125" y="400.0" type="line"/>
      <point x="228.3165" y="400.0"/>
      <point x="273.125" y="444.8085"/>
      <point x="273.125" y="500.0" type="curve"/>
      <point x="173.125" y="500.0" type="line"/>
    </contour>
    <contour>
      <point x="173.125" y="500.0" type="line"/>
      <point x="273.125" y="500.0" type="line"/>
      <point x="273.125" y="600.0" type="line"/>
      <point x="173.125" y="600.0" type="line"/>
    </contour>
    <contour>
      <point x="273.125" y="700.0" type="line"/>
      <point x="273.125" y="755.1915"/>
      <point x="228.3165" y="800.0"/>
      <point x="173.125" y="800.0" type="curve"/>
      <point x="173.125" y="700.0" type="line"/>
    </contour>
    <contour>
      <point x="173.125" y="600" type="line"/>
      <point x="273.125" y="600" type="line"/>
      <point x="273.125" y="700.0" type="line"/>
      <point x="173.125" y="700.0" type="line"/>
    </contour>
  </outline>
</glyph>
<glyph name="angledblright" format="2">
  <advance width="308.75"/>
  <unicode hex="00BB"/>
  <outline>
    <contour>
      <point x="35.625" y="300.0" type="line"/>
      <point x="90.81649999999999" y="300.0"/>
      <point x="135.625" y="344.8085"/>
      <point x="135.625" y="400.0" type="curve"/>
      <point x="35.625" y="400.0" type="line"/>
    </contour>
    <contour>
      <point x="135.625" y="400" type="line"/>
      <point x="135.625" y="455.1915"/>
      <point x="90.81649999999999" y="500.0"/>
      <point x="35.625" y="500.0" type="curve"/>
      <point x="35.625" y="400" type="line"/>
    </contour>
    <contour>
      <point x="173.125" y="300.0" type="line"/>
      <point x="228.3165" y="300.0"/>
      <point x="273.125" y="344.8085"/>
      <point x="273.125" y="400.0" type="curve"/>
      <point x="173.125" y="400.0" type="line"/>
    </contour>
    <contour>
      <point x="273.125" y="400" type="line"/>
      <point x="273.125" y="455.1915"/>
      <point x="228.3165" y="500.0"/>
      <point x="173.125" y="500.0" type="curve"/>
      <point x="173.125" y="400" type="line"/>
    </contour>
  </outline>
</glyph>
<glyph name="one_over_four" format="2">
  <advance width="583.75"/>
  <unicode hex="00BC"/>
  <outline>
    <contour>
      <point x="16.875" y="200" type="line"/>
      <point x="116.875" y="200" type="line"/>
      <point x="116.875" y="400" type="line"/>
      <point x="16.875" y="400" type="line"/>
    </contour>
    <contour>
      <point x="16.875" y="400" type="line"/>
      <point x="116.875" y="400" type="line"/>
      <point x="116.875" y="600" type="line"/>
      <point x="16.875" y="600" type="line"/>
    </contour>
    <contour>
      <point x="16.875" y="600" type="line"/>
      <point x="116.875" y="600" type="line"/>
      <point x="116.875" y="800" type="line"/>
      <point x="16.875" y="800" type="line"/>
    </contour>
    <contour>
      <point x="173.125" y="-200.0" type="line"/>
      <point x="228.3165" y="-200.0"/>
      <point x="273.125" y="-155.1915"/>
      <point x="273.125" y="-100.0" type="curve"/>
      <point x="173.125" y="-100.0" type="line"/>
    </contour>
    <contour>
      <point x="173.125" y="-100.0" type="line"/>
      <point x="273.125" y="-100.0" type="line"/>
      <point x="273.125" y="0.0" type="line"/>
      <point x="173.125" y="0.0" type="line"/>
    </contour>
    <contour>
      <point x="173.125" y="0" type="line"/>
      <point x="273.125" y="0" type="line"/>
      <point x="273.125" y="200" type="line"/>
      <point x="173.125" y="200" type="line"/>
    </contour>
    <contour>
      <point x="173.125" y="200" type="line"/>
      <point x="273.125" y="200" type="line"/>
      <point x="273.125" y="400" type="line"/>
      <point x="173.125" y="400" type="line"/>
    </contour>
    <contour>
      <point x="173.125" y="400" type="line"/>
      <point x="273.125" y="400" type="line"/>
      <point x="273.125" y="600" type="line"/>
      <point x="173.125" y="600" type="line"/>
    </contour>
    <contour>
      <point x="273.125" y="800.0" type="line"/>
      <point x="217.9335" y="800.0"/>
      <point x="173.125" y="755.1915"/>
      <point x="173.125" y="700.0" type="curve"/>
      <point x="273.125" y="700.0" type="line"/>
    </contour>
    <contour>
      <point x="173.125" y="600" type="line"/>
      <point x="273.125" y="600" type="line"/>
      <point x="273.125" y="700.0" type="line"/>
      <point x="173.125" y="700.0" type="line"/>
    </contour>
    <contour>
      <point x="329.375" y="0.0" type="line"/>
      <point x="384.5665" y="0.0"/>
      <point x="429.375" y="44.8085"/>
      <point x="429.375" y="100.0" type="curve"/>
      <point x="329.375" y="100.0" type="line"/>
    </contour>
    <contour>
      <point x="329.375" y="100.0" type="line"/>
      <point x="429.375" y="100.0" type="line"/>
      <point x="429.375" y="200.0" type="line"/>
      <point x="329.375" y="200.0" type="line"/>
    </contour>
    <contour>
      <point x="329.375" y="200" type="line"/>
      <point x="429.375" y="200" type="line"/>
      <point x="429.375" y="400" type="line"/>
      <point x="329.375" y="400" type="line"/>
    </contour>
    <contour>
      <point x="466.875" y="-200" type="line"/>
      <point x="566.875" y="-200" type="line"/>
      <point x="566.875" y="0" type="line"/>
      <point x="466.875" y="0" type="line"/>
    </contour>
    <contour>
      <point x="466.875" y="0" type="line"/>
      <point x="566.875" y="0" type="line"/>
      <point x="566.875" y="200" type="line"/>
      <point x="466.875" y="200" type="line"/>
    </contour>
  </outline>
</glyph>
<glyph name="one_over_two" format="2">
  <advance width="583.75"/>
  <unicode hex="00BD"/>
  <outline>
    <contour>
      <point x="16.875" y="200" type="line"/>
      <point x="116.875" y="200" type="line"/>
      <point x="116.875" y="400" type="line"/>
      <point x="16.875" y="400" type="line"/>
    </contour>
    <contour>
      <point x="16.875" y="400" type="line"/>
      <point x="116.875" y="400" type="line"/>
      <point x="116.875" y="600" type="line"/>
      <point x="16.875" y="600" type="line"/>
    </contour>
    <contour>
      <point x="16.875" y="600" type="line"/>
      <point x="116.875" y="600" type="line"/>
      <point x="116.875" y="800" type="line"/>
      <point x="16.875" y="800" type="line"/>
    </contour>
    <contour>
      <point x="173.125" y="-200.0" type="line"/>
      <point x="228.3165" y="-200.0"/>
      <point x="273.125" y="-155.1915"/>
      <point x="273.125" y="-100.0" type="curve"/>
      <point x="173.125" y="-100.0" type="line"/>
    </contour>
    <contour>
      <point x="173.125" y="-100.0" type="line"/>
      <point x="273.125" y="-100.0" type="line"/>
      <point x="273.125" y="0.0" type="line"/>
      <point x="173.125" y="0.0" type="line"/>
    </contour>
    <contour>
      <point x="173.125" y="0" type="line"/>
      <point x="273.125" y="0" type="line"/>
      <point x="273.125" y="200" type="line"/>
      <point x="173.125" y="200" type="line"/>
    </contour>
    <contour>
      <point x="173.125" y="200" type="line"/>
      <point x="273.125" y="200" type="line"/>
      <point x="273.125" y="400" type="line"/>
      <point x="173.125" y="400" type="line"/>
    </contour>
    <contour>
      <point x="173.125" y="400" type="line"/>
      <point x="273.125" y="400" type="line"/>
      <point x="273.125" y="600" type="line"/>
      <point x="173.125" y="600" type="line"/>
    </contour>
    <contour>
      <point x="273.125" y="800.0" type="line"/>
      <point x="217.9335" y="800.0"/>
      <point x="173.125" y="755.1915"/>
      <point x="173.125" y="700.0" type="curve"/>
      <point x="273.125" y="700.0" type="line"/>
    </contour>
    <contour>
      <point x="173.125" y="600" type="line"/>
      <point x="273.125" y="600" type="line"/>
      <point x="273.125" y="700.0" type="line"/>
      <point x="173.125" y="700.0" type="line"/>
    </contour>
    <contour>
      <point x="429.375" y="-100.0" type="line"/>
      <point x="374.1835" y="-100.0"/>
      <point x="329.375" y="-144.8085"/>
      <point x="329.375" y="-200.0" type="curve"/>
      <point x="429.375" y="-200.0" type="line"/>
    </contour>
    <contour>
      <point x="429.375" y="-200" type="line"/>
      <point x="466.875" y="-200" type="line"/>
      <point x="466.875" y="-100.0" type="line"/>
      <point x="429.375" y="-100.0" type="line"/>
    </contour>
    <contour>
      <point x="437.5" y="350.0" type="curve" smooth="yes"/>
      <point x="437.5" y="380.35533"/>
      <point x="412.85533" y="405.0"/>
      <point x="382.5" y="405.0" type="curve" smooth="yes"/>
      <point x="352.14467" y="405.0"/>
      <point x="327.5" y="380.35533"/>
      <point x="327.5" y="350.0" type="curve" smooth="yes"/>
      <point x="327.5" y="319.64467"/>
      <point x="352.14467" y="295.0"/>
      <point x="382.5" y="295.0" type="curve" smooth="yes"/>
      <point x="412.85533" y="295.0"/>
      <point x="437.5" y="319.64467"/>
    </contour>
    <contour>
      <point x="466.875" y="-200" type="line"/>
      <point x="566.875" y="-200" type="line"/>
      <point x="566.875" y="-100.0" type="line"/>
      <point x="466.875" y="-100.0" type="line"/>
    </contour>
    <contour>
      <point x="466.875" y="-55.0" type="line"/>
      <point x="522.0665" y="-55.0"/>
      <point x="566.875" y="-10.1915"/>
      <point x="566.875" y="45.0" type="curve"/>
      <point x="466.875" y="45.0" type="line"/>
    </contour>
    <contour>
      <point x="466.875" y="45.0" type="line"/>
      <point x="566.875" y="45.0" type="line"/>
      <point x="566.875" y="205.0" type="line"/>
      <point x="466.875" y="205.0" type="line"/>
    </contour>
    <contour>
      <point x="566.875" y="305.0" type="line"/>
      <point x="566.875" y="360.1915"/>
      <point x="522.0665" y="405.0"/>
      <point x="466.875" y="405.0" type="curve"/>
      <point x="466.875" y="305.0" type="line"/>
    </contour>
    <contour>
      <point x="466.875" y="205.0" type="line"/>
      <point x="566.875" y="205.0" type="line"/>
      <point x="566.875" y="305.0" type="line"/>
      <point x="466.875" y="305.0" type="line"/>
    </contour>
  </outline>
</glyph>
<glyph name="three_over_four" format="2">
  <advance width="721.25"/>
  <unicode hex="00BE"/>
  <outline>
    <contour>
      <point x="121.875" y="250.0" type="curve" smooth="yes"/>
      <point x="121.875" y="280.35533"/>
      <point x="97.23033000000001" y="305.0"/>
      <point x="66.875" y="305.0" type="curve" smooth="yes"/>
      <point x="36.51967" y="305.0"/>
      <point x="11.875" y="280.35533"/>
      <point x="11.875" y="250.0" type="curve" smooth="yes"/>
      <point x="11.875" y="219.64467"/>
      <point x="36.51967" y="195.0"/>
      <point x="66.875" y="195.0" type="curve" smooth="yes"/>
      <point x="97.23033000000001" y="195.0"/>
      <point x="121.875" y="219.64467"/>
    </contour>
    <contour>
      <point x="121.875" y="750.0" type="curve" smooth="yes"/>
      <point x="121.875" y="780.35533"/>
      <point x="97.23033000000001" y="805.0"/>
      <point x="66.875" y="805.0" type="curve" smooth="yes"/>
      <point x="36.51967" y="805.0"/>
      <point x="11.875" y="780.35533"/>
      <point x="11.875" y="750.0" type="curve" smooth="yes"/>
      <point x="11.875" y="719.64467"/>
      <point x="36.51967" y="695.0"/>
      <point x="66.875" y="695.0" type="curve" smooth="yes"/>
      <point x="97.23033000000001" y="695.0"/>
      <point x="121.875" y="719.64467"/>
    </contour>
    <contour>
      <point x="154.375" y="195.0" type="line"/>
      <point x="209.5665" y="195.0"/>
      <point x="254.375" y="239.8085"/>
      <point x="254.375" y="295.0" type="curve"/>
      <point x="154.375" y="295.0" type="line"/>
    </contour>
    <contour>
      <point x="154.375" y="295.0" type="line"/>
      <point x="254.375" y="295.0" type="line"/>
      <point x="254.375" y="400.0" type="line"/>
      <point x="154.375" y="400.0" type="line"/>
    </contour>
    <contour>
      <point x="254.375" y="500.0" type="line"/>
      <point x="254.375" y="555.1915"/>
      <point x="209.5665" y="600.0"/>
      <point x="154.375" y="600.0" type="curve"/>
      <point x="154.375" y="500.0" type="line"/>
    </contour>
    <contour>
      <point x="154.375" y="400" type="line"/>
      <point x="254.375" y="400" type="line"/>
      <point x="254.375" y="500.0" type="line"/>
      <point x="154.375" y="500.0" type="line"/>
    </contour>
    <contour>
      <point x="154.375" y="600.0" type="line"/>
      <point x="209.5665" y="600.0"/>
      <point x="254.375" y="644.8085"/>
      <point x="254.375" y="700.0" type="curve"/>
      <point x="154.375" y="700.0" type="line"/>
    </contour>
    <contour>
      <point x="154.375" y="700.0" type="line"/>
      <point x="254.375" y="700.0" type="line"/>
      <point x="254.375" y="800.0" type="line"/>
      <point x="154.375" y="800.0" type="line"/>
    </contour>
    <contour>
      <point x="310.625" y="-200.0" type="line"/>
      <point x="365.8165" y="-200.0"/>
      <point x="410.625" y="-155.1915"/>
      <point x="410.625" y="-100.0" type="curve"/>
      <point x="310.625" y="-100.0" type="line"/>
    </contour>
    <contour>
      <point x="310.625" y="-100.0" type="line"/>
      <point x="410.625" y="-100.0" type="line"/>
      <point x="410.625" y="0.0" type="line"/>
      <point x="310.625" y="0.0" type="line"/>
    </contour>
    <contour>
      <point x="310.625" y="0" type="line"/>
      <point x="410.625" y="0" type="line"/>
      <point x="410.625" y="200" type="line"/>
      <point x="310.625" y="200" type="line"/>
    </contour>
    <contour>
      <point x="310.625" y="200" type="line"/>
      <point x="410.625" y="200" type="line"/>
      <point x="410.625" y="400" type="line"/>
      <point x="310.625" y="400" type="line"/>
    </contour>
    <contour>
      <point x="310.625" y="400" type="line"/>
      <point x="410.625" y="400" type="line"/>
      <point x="410.625" y="600" type="line"/>
      <point x="310.625" y="600" type="line"/>
    </contour>
    <contour>
      <point x="410.625" y="800.0" type="line"/>
      <point x="355.4335" y="800.0"/>
      <point x="310.625" y="755.1915"/>
      <point x="310.625" y="700.0" type="curve"/>
      <point x="410.625" y="700.0" type="line"/>
    </contour>
    <contour>
      <point x="310.625" y="600" type="line"/>
      <point x="410.625" y="600" type="line"/>
      <point x="410.625" y="700.0" type="line"/>
      <point x="310.625" y="700.0" type="line"/>
    </contour>
    <contour>
      <point x="466.875" y="0.0" type="line"/>
      <point x="522.0665" y="0.0"/>
      <point x="566.875" y="44.8085"/>
      <point x="566.875" y="100.0" type="curve"/>
      <point x="466.875" y="100.0" type="line"/>
    </contour>
    <contour>
      <point x="466.875" y="100.0" type="line"/>
      <point x="566.875" y="100.0" type="line"/>
      <point x="566.875" y="200.0" type="line"/>
      <point x="466.875" y="200.0" type="line"/>
    </contour>
    <contour>
      <point x="466.875" y="200" type="line"/>
      <point x="566.875" y="200" type="line"/>
      <point x="566.875" y="400" type="line"/>
      <point x="466.875" y="400" type="line"/>
    </contour>
    <contour>
      <point x="604.375" y="-200" type="line"/>
      <point x="704.375" y="-200" type="line"/>
      <point x="704.375" y="0" type="line"/>
      <point x="604.375" y="0" type="line"/>
    </contour>
    <contour>
      <point x="604.375" y="0" type="line"/>
      <point x="704.375" y="0" type="line"/>
      <point x="704.375" y="200" type="line"/>
      <point x="604.375" y="200" type="line"/>
    </contour>
  </outline>
</glyph>
<glyph name="invquestion" format="2">
  <advance width="308.75"/>
  <unicode hex="00BF"/>
  <outline>
    <contour>
      <point x="35.625" y="-105.0" type="line"/>
      <point x="35.625" y="-160.1915"/>
      <point x="80.43350000000001" y="-205.0"/>
      <point x="135.625" y="-205.0" type="curve"/>
      <point x="135.625" y="-105.0" type="line"/>
    </contour>
    <contour>
      <point x="35.625" y="-105.0" type="line"/>
      <point x="135.625" y="-105.0" type="line"/>
      <point x="135.625" y="-5.0" type="line"/>
      <point x="35.625" y="-5.0" type="line"/>
    </contour>
    <contour>
      <point x="135.625" y="195.0" type="line"/>
      <point x="80.43350000000001" y="195.0"/>
      <point x="35.625" y="150.1915"/>
      <point x="35.625" y="95.0" type="curve"/>
      <point x="135.625" y="95.0" type="line"/>
    </contour>
    <contour>
      <point x="35.625" y="-5.0" type="line"/>
      <point x="135.625" y="-5.0" type="line"/>
      <point x="135.625" y="95.0" type="line"/>
      <point x="35.625" y="95.0" type="line"/>
    </contour>
    <contour>
      <point x="278.125" y="-162.5" type="curve" smooth="yes"/>
      <point x="278.125" y="-132.14467"/>
      <point x="253.48033" y="-107.5"/>
      <point x="223.125" y="-107.5" type="curve" smooth="yes"/>
      <point x="192.76967" y="-107.5"/>
      <point x="168.125" y="-132.14467"/>
      <point x="168.125" y="-162.5" type="curve" smooth="yes"/>
      <point x="168.125" y="-192.85533"/>
      <point x="192.76967" y="-217.5"/>
      <point x="223.125" y="-217.5" type="curve" smooth="yes"/>
      <point x="253.48033" y="-217.5"/>
      <point x="278.125" y="-192.85533"/>
    </contour>
    <contour>
      <point x="173.125" y="100.0" type="line"/>
      <point x="228.3165" y="100.0"/>
      <point x="273.125" y="144.8085"/>
      <point x="273.125" y="200.0" type="curve"/>
      <point x="173.125" y="200.0" type="line"/>
    </contour>
    <contour>
      <point x="173.125" y="200" type="line"/>
      <point x="273.125" y="200" type="line"/>
      <point x="273.125" y="408.33333" type="line"/>
      <point x="173.125" y="408.33333" type="line"/>
    </contour>
    <contour>
      <point x="278.125" y="556.25" type="curve" smooth="yes"/>
      <point x="278.125" y="586.60533"/>
      <point x="253.48033" y="611.25"/>
      <point x="223.125" y="611.25" type="curve" smooth="yes"/>
      <point x="192.76967" y="611.25"/>
      <point x="168.125" y="586.60533"/>
      <point x="168.125" y="556.25" type="curve" smooth="yes"/>
      <point x="168.125" y="525.89467"/>
      <point x="192.76967" y="501.25"/>
      <point x="223.125" y="501.25" type="curve" smooth="yes"/>
      <point x="253.48033" y="501.25"/>
      <point x="278.125" y="525.89467"/>
    </contour>
  </outline>
</glyph>
<glyph name="A_with_ring" format="2">
  <advance width="308.75"/>
  <unicode hex="00C5"/>
  <outline>
    <contour>
      <point x="35.625" y="0" type="line"/>
      <point x="135.625" y="0" type="line"/>
      <point x="135.625" y="200" type="line"/>
      <point x="35.625" y="200" type="line"/>
    </contour>
    <contour>
      <point x="35.625" y="200" type="line"/>
      <point x="135.625" y="200" type="line"/>
      <point x="135.625" y="400" type="line"/>
      <point x="35.625" y="400" type="line"/>
    </contour>
    <contour>
      <point x="35.625" y="400" type="line"/>
      <point x="135.625" y="400" type="line"/>
      <point x="135.625" y="605.0" type="line"/>
      <point x="35.625" y="605.0" type="line"/>
    </contour>
    <contour>
      <point x="135.625" y="805.0" type="line"/>
      <point x="80.43350000000001" y="805.0"/>
      <point x="35.625" y="760.1915"/>
      <point x="35.625" y="705.0" type="curve"/>
      <point x="135.625" y="705.0" type="line"/>
    </contour>
    <contour>
      <point x="35.625" y="605.0" type="line"/>
      <point x="135.625" y="605.0" type="line"/>
      <point x="135.625" y="705.0" type="line"/>
      <point x="35.625" y="705.0" type="line"/>
    </contour>
    <contour>
      <point x="173.125" y="0" type="line"/>
      <point x="273.125" y="0" type="line"/>
      <point x="273.125" y="200" type="line"/>
      <point x="173.125" y="200" type="line"/>
    </contour>
    <contour>
      <point x="173.125" y="200" type="line"/>
      <point x="273.125" y="200" type="line"/>
      <point x="273.125" y="400" type="line"/>
      <point x="173.125" y="400" type="line"/>
    </contour>
    <contour>
      <point x="173.125" y="400" type="line"/>
      <point x="273.125" y="400" type="line"/>
      <point x="273.125" y="605.0" type="line"/>
      <point x="173.125" y="605.0" type="line"/>
    </contour>
    <contour>
      <point x="273.125" y="705.0" type="line"/>
      <point x="273.125" y="760.1915"/>
      <point x="228.3165" y="805.0"/>
      <point x="173.125" y="805.0" type="curve"/>
      <point x="173.125" y="705.0" type="line"/>
    </contour>
    <contour>
      <point x="173.125" y="605.0" type="line"/>
      <point x="273.125" y="605.0" type="line"/>
      <point x="273.125" y="705.0" type="line"/>
      <point x="173.125" y="705.0" type="line"/>
    </contour>
    <contour>
      <point x="135.625" y="952.2222222222222" type="line"/>
      <point x="105.26967" y="952.2222222222222"/>
      <point x="80.625" y="927.5775522222222"/>
      <point x="80.625" y="897.2222222222222" type="curve" smooth="yes"/>
      <point x="80.625" y="866.8668922222222"/>
      <point x="105.26967" y="842.2222222222222"/>
      <point x="135.625" y="842.2222222222222" type="curve"/>
    </contour>
    <contour>
      <point x="173.125" y="842.2222222222222" type="line"/>
      <point x="203.48033" y="842.2222222222222"/>
      <point x="228.125" y="866.8668922222222"/>
      <point x="228.125" y="897.2222222222222" type="curve" smooth="yes"/>
      <point x="228.125" y="927.5775522222222"/>
      <point x="203.48033" y="952.2222222222222"/>
      <point x="173.125" y="952.2222222222222" type="curve"/>
    </contour>
  </outline>
</glyph>
<glyph name="AE" format="2">
  <advance width="583.75"/>
  <unicode hex="00C6"/>
  <outline>
    <contour>
      <point x="35.625" y="0" type="line"/>
      <point x="135.625" y="0" type="line"/>
      <point x="135.625" y="200" type="line"/>
      <point x="35.625" y="200" type="line"/>
    </contour>
    <contour>
      <point x="35.625" y="200" type="line"/>
      <point x="135.625" y="200" type="line"/>
      <point x="135.625" y="400" type="line"/>
      <point x="35.625" y="400" type="line"/>
    </contour>
    <contour>
      <point x="35.625" y="400" type="line"/>
      <point x="135.625" y="400" type="line"/>
      <point x="135.625" y="605.0" type="line"/>
      <point x="35.625" y="605.0" type="line"/>
    </contour>
    <contour>
      <point x="135.625" y="805.0" type="line"/>
      <point x="80.43350000000001" y="805.0"/>
      <point x="35.625" y="760.1915"/>
      <point x="35.625" y="705.0" type="curve"/>
      <point x="135.625" y="705.0" type="line"/>
    </contour>
    <contour>
      <point x="35.625" y="605.0" type="line"/>
      <point x="135.625" y="605.0" type="line"/>
      <point x="135.625" y="705.0" type="line"/>
      <point x="35.625" y="705.0" type="line"/>
    </contour>
    <contour>
      <point x="173.125" y="0" type="line"/>
      <point x="273.125" y="0" type="line"/>
      <point x="273.125" y="200" type="line"/>
      <point x="173.125" y="200" type="line"/>
    </contour>
    <contour>
      <point x="173.125" y="200" type="line"/>
      <point x="273.125" y="200" type="line"/>
      <point x="273.125" y="400" type="line"/>
      <point x="173.125" y="400" type="line"/>
    </contour>
    <contour>
      <point x="173.125" y="400" type="line"/>
      <point x="273.125" y="400" type="line"/>
      <point x="273.125" y="605.0" type="line"/>
      <point x="173.125" y="605.0" type="line"/>
    </contour>
    <contour>
      <point x="273.125" y="705.0" type="line"/>
      <point x="273.125" y="760.1915"/>
      <point x="228.3165" y="805.0"/>
      <point x="173.125" y="805.0" type="curve"/>
      <point x="173.125" y="705.0" type="line"/>
    </contour>
    <contour>
      <point x="173.125" y="605.0" type="line"/>
      <point x="273.125" y="605.0" type="line"/>
      <point x="273.125" y="705.0" type="line"/>
      <point x="173.125" y="705.0" type="line"/>
    </contour>
    <contour>
      <point x="310.625" y="0" type="line"/>
      <point x="410.625" y="0" type="line"/>
      <point x="410.625" y="200" type="line"/>
      <point x="310.625" y="200" type="line"/>
    </contour>
    <contour>
      <point x="310.625" y="200" type="line"/>
      <point x="410.625" y="200" type="line"/>
      <point x="410.625" y="400" type="line"/>
      <point x="310.625" y="400" type="line"/>
    </contour>
    <contour>
      <point x="310.625" y="400" type="line"/>
      <point x="410.625" y="400" type="line"/>
      <point x="410.625" y="600" type="line"/>
      <point x="310.625" y="600" type="line"/>
    </contour>
    <contour>
      <point x="310.625" y="600" type="line"/>
      <point x="410.625" y="600" type="line"/>
      <point x="410.625" y="800" type="line"/>
      <point x="310.625" y="800" type="line"/>
    </contour>
    <contour>
      <point x="548.125" y="100.0" type="line"/>
      <point x="492.9335" y="100.0"/>
      <point x="448.125" y="55.1915"/>
      <point x="448.125" y="0.0" type="curve"/>
      <point x="548.125" y="0.0" type="line"/>
    </contour>
    <contour>
      <point x="448.125" y="500.0" type="line"/>
      <point x="448.125" y="444.8085"/>
      <point x="492.9335" y="400.0"/>
      <point x="548.125" y="400.0" type="curve"/>
      <point x="548.125" y="500.0" type="line"/>
    </contour>
    <contour>
      <point x="448.125" y="800.0" type="line"/>
      <point x="448.125" y="744.8085"/>
      <point x="492.9335" y="700.0"/>
      <point x="548.125" y="700.0" type="curve"/>
      <point x="548.125" y="800.0" type="line"/>
    </contour>
  </outline>
</glyph>
<glyph name="E_with_acute" format="2">
  <advance width="308.75"/>
  <unicode hex="00C9"/>
  <outline>
    <contour>
      <point x="35.625" y="0" type="line"/>
      <point x="135.625" y="0" type="line"/>
      <point x="135.625" y="200" type="line"/>
      <point x="35.625" y="200" type="line"/>
    </contour>
    <contour>
      <point x="35.625" y="200" type="line"/>
      <point x="135.625" y="200" type="line"/>
      <point x="135.625" y="400" type="line"/>
      <point x="35.625" y="400" type="line"/>
    </contour>
    <contour>
      <point x="35.625" y="400" type="line"/>
      <point x="135.625" y="400" type="line"/>
      <point x="135.625" y="600" type="line"/>
      <point x="35.625" y="600" type="line"/>
    </contour>
    <contour>
      <point x="35.625" y="600" type="line"/>
      <point x="135.625" y="600" type="line"/>
      <point x="135.625" y="800" type="line"/>
      <point x="35.625" y="800" type="line"/>
    </contour>
    <contour>
      <point x="273.125" y="100.0" type="line"/>
      <point x="217.9335" y="100.0"/>
      <point x="173.125" y="55.1915"/>
      <point x="173.125" y="0.0" type="curve"/>
      <point x="273.125" y="0.0" type="line"/>
    </contour>
    <contour>
      <point x="173.125" y="450.0" type="line"/>
      <point x="173.125" y="394.8085"/>
      <point x="217.9335" y="350.0"/>
      <point x="273.125" y="350.0" type="curve"/>
      <point x="273.125" y="450.0" type="line"/>
    </contour>
    <contour>
      <point x="173.125" y="800.0" type="line"/>
      <point x="173.125" y="744.8085"/>
      <point x="217.9335" y="700.0"/>
      <point x="273.125" y="700.0" type="curve"/>
      <point x="273.125" y="800.0" type="line"/>
    </contour>
    <contour>
      <point x="148.125" y="847.2222222222222" type="line"/>
      <point x="203.31650000000002" y="847.2222222222222"/>
      <point x="248.125" y="892.0307222222222"/>
      <point x="248.125" y="947.2222222222222" type="curve"/>
      <point x="148.125" y="947.2222222222222" type="line"/>
    </contour>
  </outline>
</glyph>
<glyph name="I_with_grave" format="2">
  <advance width="171.25"/>
  <unicode hex="00CC"/>
  <outline>
    <contour>
      <point x="35.625" y="0" type="line"/>
      <point x="135.625" y="0" type="line"/>
      <point x="135.625" y="200" type="line"/>
      <point x="35.625" y="200" type="line"/>
    </contour>
    <contour>
      <point x="35.625" y="200" type="line"/>
      <point x="135.625" y="200" type="line"/>
      <point x="135.625" y="400" type="line"/>
      <point x="35.625" y="400" type="line"/>
    </contour>
    <contour>
      <point x="35.625" y="400" type="line"/>
      <point x="135.625" y="400" type="line"/>
      <point x="135.625" y="600" type="line"/>
      <point x="35.625" y="600" type="line"/>
    </contour>
    <contour>
      <point x="35.625" y="600" type="line"/>
      <point x="135.625" y="600" type="line"/>
      <point x="135.625" y="800" type="line"/>
      <point x="35.625" y="800" type="line"/>
    </contour>
    <contour>
      <point x="-8.125" y="947.2222222222222" type="line"/>
      <point x="-8.125" y="892.0307222222222"/>
      <point x="36.6835" y="847.2222222222222"/>
      <point x="91.875" y="847.2222222222222" type="curve"/>
      <point x="91.875" y="947.2222222222222" type="line"/>
    </contour>
  </outline>
</glyph>
<glyph name="I_with_acute" format="2">
  <advance width="171.25"/>
  <unicode hex="00CD"/>
  <outline>
    <contour>
      <point x="35.625" y="0" type="line"/>
      <point x="135.625" y="0" type="line"/>
      <point x="135.625" y="200" type="line"/>
      <point x="35.625" y="200" type="line"/>
    </contour>
    <contour>
      <point x="35.625" y="200" type="line"/>
      <point x="135.625" y="200" type="line"/>
      <point x="135.625" y="400" type="line"/>
      <point x="35.625" y="400" type="line"/>
    </contour>
    <contour>
      <point x="35.625" y="400" type="line"/>
      <point x="135.625" y="400" type="line"/>
      <point x="135.625" y="600" type="line"/>
      <point x="35.625" y="600" type="line"/>
    </contour>
    <contour>
      <point x="35.625" y="600" type="line"/>
      <point x="135.625" y="600" type="line"/>
      <point x="135.625" y="800" type="line"/>
      <point x="35.625" y="800" type="line"/>
    </contour>
    <contour>
      <point x="79.375" y="847.2222222222222" type="line"/>
      <point x="134.56650000000002" y="847.2222222222222"/>
      <point x="179.375" y="892.0307222222222"/>
      <point x="179.375" y="947.2222222222222" type="curve"/>
      <point x="79.375" y="947.2222222222222" type="line"/>
    </contour>
  </outline>
</glyph>
<glyph name="I_with_diaeresis" format="2">
  <advance width="171.25"/>
  <unicode hex="00CF"/>
  <outline>
    <contour>
      <point x="35.625" y="0" type="line"/>
      <point x="135.625" y="0" type="line"/>
      <point x="135.625" y="200" type="line"/>
      <point x="35.625" y="200" type="line"/>
    </contour>
    <contour>
      <point x="35.625" y="200" type="line"/>
      <point x="135.625" y="200" type="line"/>
      <point x="135.625" y="400" type="line"/>
      <point x="35.625" y="400" type="line"/>
    </contour>
    <contour>
      <point x="35.625" y="400" type="line"/>
      <point x="135.625" y="400" type="line"/>
      <point x="135.625" y="600" type="line"/>
      <point x="35.625" y="600" type="line"/>
    </contour>
    <contour>
      <point x="35.625" y="600" type="line"/>
      <point x="135.625" y="600" type="line"/>
      <point x="135.625" y="800" type="line"/>
      <point x="35.625" y="800" type="line"/>
    </contour>
    <contour>
      <point x="71.875" y="897.2222222222222" type="curve" smooth="yes"/>
      <point x="71.875" y="927.5775522222222"/>
      <point x="47.230329999999995" y="952.2222222222222"/>
      <point x="16.875" y="952.2222222222222" type="curve" smooth="yes"/>
      <point x="-13.480329999999999" y="952.2222222222222"/>
      <point x="-38.125" y="927.5775522222222"/>
      <point x="-38.125" y="897.2222222222222" type="curve" smooth="yes"/>
      <point x="-38.125" y="866.8668922222222"/>
      <point x="-13.480329999999999" y="842.2222222222222"/>
      <point x="16.875" y="842.2222222222222" type="curve" smooth="yes"/>
      <point x="47.230329999999995" y="842.2222222222222"/>
      <point x="71.875" y="866.8668922222222"/>
    </contour>
    <contour>
      <point x="209.375" y="897.2222222222222" type="curve" smooth="yes"/>
      <point x="209.375" y="927.5775522222222"/>
      <point x="184.73033" y="952.2222222222222"/>
      <point x="154.375" y="952.2222222222222" type="curve" smooth="yes"/>
      <point x="124.01966999999999" y="952.2222222222222"/>
      <point x="99.375" y="927.5775522222222"/>
      <point x="99.375" y="897.2222222222222" type="curve" smooth="yes"/>
      <point x="99.375" y="866.8668922222222"/>
      <point x="124.01966999999999" y="842.2222222222222"/>
      <point x="154.375" y="842.2222222222222" type="curve" smooth="yes"/>
      <point x="184.73033" y="842.2222222222222"/>
      <point x="209.375" y="866.8668922222222"/>
    </contour>
  </outline>
</glyph>
<glyph name="ETH" format="2">
  <advance width="446.25"/>
  <unicode hex="00D0"/>
  <outline>
    <contour>
      <point x="198.125" y="450.0" type="line"/>
      <point x="142.93349999999998" y="450.0"/>
      <point x="98.125" y="405.1915"/>
      <point x="98.125" y="350.0" type="curve"/>
      <point x="198.125" y="350.0" type="line"/>
    </contour>
    <contour>
      <point x="173.125" y="0" type="line"/>
      <point x="273.125" y="0" type="line"/>
      <point x="273.125" y="200" type="line"/>
      <point x="173.125" y="200" type="line"/>
    </contour>
    <contour>
      <point x="173.125" y="200" type="line"/>
      <point x="273.125" y="200" type="line"/>
      <point x="273.125" y="400" type="line"/>
      <point x="173.125" y="400" type="line"/>
    </contour>
    <contour>
      <point x="173.125" y="400" type="line"/>
      <point x="273.125" y="400" type="line"/>
      <point x="273.125" y="600" type="line"/>
      <point x="173.125" y="600" type="line"/>
    </contour>
    <contour>
      <point x="173.125" y="600" type="line"/>
      <point x="273.125" y="600" type="line"/>
      <point x="273.125" y="800" type="line"/>
      <point x="173.125" y="800" type="line"/>
    </contour>
    <contour>
      <point x="310.625" y="0.0" type="line"/>
      <point x="365.8165" y="0.0"/>
      <point x="410.625" y="44.8085"/>
      <point x="410.625" y="100.0" type="curve"/>
      <point x="310.625" y="100.0" type="line"/>
    </contour>
    <contour>
      <point x="310.625" y="100.0" type="line"/>
      <point x="410.625" y="100.0" type="line"/>
      <point x="410.625" y="200.0" type="line"/>
      <point x="310.625" y="200.0" type="line"/>
    </contour>
    <contour>
      <point x="310.625" y="200" type="line"/>
      <point x="410.625" y="200" type="line"/>
      <point x="410.625" y="400" type="line"/>
      <point x="310.625" y="400" type="line"/>
    </contour>
    <contour>
      <point x="310.625" y="400" type="line"/>
      <point x="410.625" y="400" type="line"/>
      <point x="410.625" y="600" type="line"/>
      <point x="310.625" y="600" type="line"/>
    </contour>
    <contour>
      <point x="410.625" y="700.0" type="line"/>
      <point x="410.625" y="755.1915"/>
      <point x="365.8165" y="800.0"/>
      <point x="310.625" y="800.0" type="curve"/>
      <point x="310.625" y="700.0" type="line"/>
    </contour>
    <contour>
      <point x="310.625" y="600" type="line"/>
      <point x="410.625" y="600" type="line"/>
      <point x="410.625" y="700.0" type="line"/>
      <point x="310.625" y="700.0" type="line"/>
    </contour>
  </outline>
</glyph>
<glyph name="O_with_circumflex" format="2">
  <advance width="308.75"/>
  <unicode hex="00D4"/>
  <outline>
    <contour>
      <point x="35.625" y="95.0" type="line"/>
      <point x="35.625" y="39.8085"/>
      <point x="80.43350000000001" y="-5.0"/>
      <point x="135.625" y="-5.0" type="curve"/>
      <point x="135.625" y="95.0" type="line"/>
    </contour>
    <contour>
      <point x="35.625" y="95.0" type="line"/>
      <point x="135.625" y="95.0" type="line"/>
      <point x="135.625" y="195.0" type="line"/>
      <point x="35.625" y="195.0" type="line"/>
    </contour>
    <contour>
      <point x="35.625" y="195.0" type="line"/>
      <point x="135.625" y="195.0" type="line"/>
      <point x="135.625" y="400.0" type="line"/>
      <point x="35.625" y="400.0" type="line"/>
    </contour>
    <contour>
      <point x="35.625" y="400" type="line"/>
      <point x="135.625" y="400" type="line"/>
      <point x="135.625" y="605.0" type="line"/>
      <point x="35.625" y="605.0" type="line"/>
    </contour>
    <contour>
      <point x="135.625" y="805.0" type="line"/>
      <point x="80.43350000000001" y="805.0"/>
      <point x="35.625" y="760.1915"/>
      <point x="35.625" y="705.0" type="curve"/>
      <point x="135.625" y="705.0" type="line"/>
    </contour>
    <contour>
      <point x="35.625" y="605.0" type="line"/>
      <point x="135.625" y="605.0" type="line"/>
      <point x="135.625" y="705.0" type="line"/>
      <point x="35.625" y="705.0" type="line"/>
    </contour>
    <contour>
      <point x="173.125" y="-5.0" type="line"/>
      <point x="228.3165" y="-5.0"/>
      <point x="273.125" y="39.8085"/>
      <point x="273.125" y="95.0" type="curve"/>
      <point x="173.125" y="95.0" type="line"/>
    </contour>
    <contour>
      <point x="173.125" y="95.0" type="line"/>
      <point x="273.125" y="95.0" type="line"/>
      <point x="273.125" y="195.0" type="line"/>
      <point x="173.125" y="195.0" type="line"/>
    </contour>
    <contour>
      <point x="173.125" y="195.0" type="line"/>
      <point x="273.125" y="195.0" type="line"/>
      <point x="273.125" y="400.0" type="line"/>
      <point x="173.125" y="400.0" type="line"/>
    </contour>
    <contour>
      <point x="173.125" y="400" type="line"/>
      <point x="273.125" y="400" type="line"/>
      <point x="273.125" y="605.0" type="line"/>
      <point x="173.125" y="605.0" type="line"/>
    </contour>
    <contour>
      <point x="273.125" y="705.0" type="line"/>
      <point x="273.125" y="760.1915"/>
      <point x="228.3165" y="805.0"/>
      <point x="173.125" y="805.0" type="curve"/>
      <point x="173.125" y="705.0" type="line"/>
    </contour>
    <contour>
      <point x="173.125" y="605.0" type="line"/>
      <point x="273.125" y="605.0" type="line"/>
      <point x="273.125" y="705.0" type="line"/>
      <point x="173.125" y="705.0" type="line"/>
    </contour>
    <contour>
      <point x="51.25" y="847.2222222222222" type="line"/>
      <point x="106.4415" y="847.2222222222222"/>
      <point x="151.25" y="892.0307222222222"/>
      <point x="151.25" y="947.2222222222222" type="curve"/>
      <point x="51.25" y="947.2222222222222" type="line"/>
    </contour>
    <contour>
      <point x="157.5" y="947.2222222222222" type="line"/>
      <point x="157.5" y="892.0307222222222"/>
      <point x="202.3085" y="847.2222222222222"/>
      <point x="257.5" y="847.2222222222222" type="curve"/>
      <point x="257.5" y="947.2222222222222" type="line"/>
    </contour>
  </outline>
</glyph>
<glyph name="O_with_diaeresis" format="2">
  <advance width="308.75"/>
  <unicode hex="00D6"/>
  <outline>
    <contour>
      <point x="35.625" y="95.0" type="line"/>
      <point x="35.625" y="39.8085"/>
      <point x="80.43350000000001" y="-5.0"/>
      <point x="135.625" y="-5.0" type="curve"/>
      <point x="135.625" y="95.0" type="line"/>
    </contour>
    <contour>
      <point x="35.625" y="95.0" type="line"/>
      <point x="135.625" y="95.0" type="line"/>
      <point x="135.625" y="195.0" type="line"/>
      <point x="35.625" y="195.0" type="line"/>
    </contour>
    <contour>
      <point x="35.625" y="195.0" type="line"/>
      <point x="135.625" y="195.0" type="line"/>
      <point x="135.625" y="400.0" type="line"/>
      <point x="35.625" y="400.0" type="line"/>
    </contour>
    <contour>
      <point x="35.625" y="400" type="line"/>
      <point x="135.625" y="400" type="line"/>
      <point x="135.625" y="605.0" type="line"/>
      <point x="35.625" y="605.0" type="line"/>
    </contour>
    <contour>
      <point x="135.625" y="805.0" type="line"/>
      <point x="80.43350000000001" y="805.0"/>
      <point x="35.625" y="760.1915"/>
      <point x="35.625" y="705.0" type="curve"/>
      <point x="135.625" y="705.0" type="line"/>
    </contour>
    <contour>
      <point x="35.625" y="605.0" type="line"/>
      <point x="135.625" y="605.0" type="line"/>
      <point x="135.625" y="705.0" type="line"/>
      <point x="35.625" y="705.0" type="line"/>
    </contour>
    <contour>
      <point x="173.125" y="-5.0" type="line"/>
      <point x="228.3165" y="-5.0"/>
      <point x="273.125" y="39.8085"/>
      <point x="273.125" y="95.0" type="curve"/>
      <point x="173.125" y="95.0" type="line"/>
    </contour>
    <contour>
      <point x="173.125" y="95.0" type="line"/>
      <point x="273.125" y="95.0" type="line"/>
      <point x="273.125" y="195.0" type="line"/>
      <point x="173.125" y="195.0" type="line"/>
    </contour>
    <contour>
      <point x="173.125" y="195.0" type="line"/>
      <point x="273.125" y="195.0" type="line"/>
      <point x="273.125" y="400.0" type="line"/>
      <point x="173.125" y="400.0" type="line"/>
    </contour>
    <contour>
      <point x="173.125" y="400" type="line"/>
      <point x="273.125" y="400" type="line"/>
      <point x="273.125" y="605.0" type="line"/>
      <point x="173.125" y="605.0" type="line"/>
    </contour>
    <contour>
      <point x="273.125" y="705.0" type="line"/>
      <point x="273.125" y="760.1915"/>
      <point x="228.3165" y="805.0"/>
      <point x="173.125" y="805.0" type="curve"/>
      <point x="173.125" y="705.0" type="line"/>
    </contour>
    <contour>
      <point x="173.125" y="605.0" type="line"/>
      <point x="273.125" y="605.0" type="line"/>
      <point x="273.125" y="705.0" type="line"/>
      <point x="173.125" y="705.0" type="line"/>
    </contour>
    <contour>
      <point x="140.625" y="897.2222222222222" type="curve" smooth="yes"/>
      <point x="140.625" y="927.5775522222222"/>
      <point x="115.98033" y="952.2222222222222"/>
      <point x="85.625" y="952.2222222222222" type="curve" smooth="yes"/>
      <point x="55.269670000000005" y="952.2222222222222"/>
      <point x="30.625" y="927.5775522222222"/>
      <point x="30.625" y="897.2222222222222" type="curve" smooth="yes"/>
      <point x="30.625" y="866.8668922222222"/>
      <point x="55.269670000000005" y="842.2222222222222"/>
      <point x="85.625" y="842.2222222222222" type="curve" smooth="yes"/>
      <point x="115.98033" y="842.2222222222222"/>
      <point x="140.625" y="866.8668922222222"/>
    </contour>
    <contour>
      <point x="278.125" y="897.2222222222222" type="curve" smooth="yes"/>
      <point x="278.125" y="927.5775522222222"/>
      <point x="253.48033" y="952.2222222222222"/>
      <point x="223.125" y="952.2222222222222" type="curve" smooth="yes"/>
      <point x="192.76967" y="952.2222222222222"/>
      <point x="168.125" y="927.5775522222222"/>
      <point x="168.125" y="897.2222222222222" type="curve" smooth="yes"/>
      <point x="168.125" y="866.8668922222222"/>
      <point x="192.76967" y="842.2222222222222"/>
      <point x="223.125" y="842.2222222222222" type="curve" smooth="yes"/>
      <point x="253.48033" y="842.2222222222222"/>
      <point x="278.125" y="866.8668922222222"/>
    </contour>
  </outline>
</glyph>
<glyph name="O_with_stroke" format="2">
  <advance width="308.75"/>
  <unicode hex="00D8"/>
  <outline>
    <contour>
      <point x="35.625" y="95.0" type="line"/>
      <point x="35.625" y="39.8085"/>
      <point x="80.43350000000001" y="-5.0"/>
      <point x="135.625" y="-5.0" type="curve"/>
      <point x="135.625" y="95.0" type="line"/>
    </contour>
    <contour>
      <point x="35.625" y="95.0" type="line"/>
      <point x="135.625" y="95.0" type="line"/>
      <point x="135.625" y="195.0" type="line"/>
      <point x="35.625" y="195.0" type="line"/>
    </contour>
    <contour>
      <point x="35.625" y="195.0" type="line"/>
      <point x="135.625" y="195.0" type="line"/>
      <point x="135.625" y="400.0" type="line"/>
      <point x="35.625" y="400.0" type="line"/>
    </contour>
    <contour>
      <point x="35.625" y="400" type="line"/>
      <point x="135.625" y="400" type="line"/>
      <point x="135.625" y="605.0" type="line"/>
      <point x="35.625" y="605.0" type="line"/>
    </contour>
    <contour>
      <point x="135.625" y="805.0" type="line"/>
      <point x="80.43350000000001" y="805.0"/>
      <point x="35.625" y="760.1915"/>
      <point x="35.625" y="705.0" type="curve"/>
      <point x="135.625" y="705.0" type="line"/>
    </contour>
    <contour>
      <point x="35.625" y="605.0" type="line"/>
      <point x="135.625" y="605.0" type="line"/>
      <point x="135.625" y="705.0" type="line"/>
      <point x="35.625" y="705.0" type="line"/>
    </contour>
    <contour>
      <point x="110.625" y="50.0" type="line"/>
      <point x="55.433499999999995" y="50.0"/>
      <point x="10.625" y="5.1915"/>
      <point x="10.625" y="-50.0" type="curve"/>
      <point x="110.625" y="-50.0" type="line"/>
    </contour>
    <contour>
      <point x="173.125" y="-5.0" type="line"/>
      <point x="228.3165" y="-5.0"/>
      <point x="273.125" y="39.8085"/>
      <point x="273.125" y="95.0" type="curve"/>
      <point x="173.125" y="95.0" type="line"/>
    </contour>
    <contour>
      <point x="173.125" y="95.0" type="line"/>
      <point x="273.125" y="95.0" type="line"/>
      <point x="273.125" y="195.0" type="line"/>
      <point x="173.125" y="195.0" type="line"/>
    </contour>
    <contour>
      <point x="173.125" y="195.0" type="line"/>
      <point x="273.125" y="195.0" type="line"/>
      <point x="273.125" y="400.0" type="line"/>
      <point x="173.125" y="400.0" type="line"/>
    </contour>
    <contour>
      <point x="173.125" y="400" type="line"/>
      <point x="273.125" y="400" type="line"/>
      <point x="273.125" y="605.0" type="line"/>
      <point x="173.125" y="605.0" type="line"/>
    </contour>
    <contour>
      <point x="273.125" y="705.0" type="line"/>
      <point x="273.125" y="760.1915"/>
      <point x="228.3165" y="805.0"/>
      <point x="173.125" y="805.0" type="curve"/>
      <point x="173.125" y="705.0" type="line"/>
    </contour>
    <contour>
      <point x="173.125" y="605.0" type="line"/>
      <point x="273.125" y="605.0" type="line"/>
      <point x="273.125" y="705.0" type="line"/>
      <point x="173.125" y="705.0" type="line"/>
    </contour>
    <contour>
      <point x="198.125" y="750.0" type="line"/>
      <point x="253.3165" y="750.0"/>
      <point x="298.125" y="794.8085"/>
      <point x="298.125" y="850.0" type="curve"/>
      <point x="198.125" y="850.0" type="line"/>
    </contour>
  </outline>
</glyph>
<glyph name="e_with_diaeresis" format="2">
  <advance width="308.75"/>
  <unicode hex="00EB"/>
  <outline>
    <contour>
      <point x="35.625" y="95.0" type="line"/>
      <point x="35.625" y="39.8085"/>
      <point x="80.43350000000001" y="-5.0"/>
      <point x="135.625" y="-5.0" type="curve"/>
      <point x="135.625" y="95.0" type="line"/>
    </contour>
    <contour>
      <point x="35.625" y="95.0" type="line"/>
      <point x="135.625" y="95.0" type="line"/>
      <point x="135.625" y="195.0" type="line"/>
      <point x="35.625" y="195.0" type="line"/>
    </contour>
    <contour>
      <point x="35.625" y="195.0" type="line"/>
      <point x="135.625" y="195.0" type="line"/>
      <point x="135.625" y="405.0" type="line"/>
      <point x="35.625" y="405.0" type="line"/>
    </contour>
    <contour>
      <point x="135.625" y="605.0" type="line"/>
      <point x="80.43350000000001" y="605.0"/>
      <point x="35.625" y="560.1915"/>
      <point x="35.625" y="505.0" type="curve"/>
      <point x="135.625" y="505.0" type="line"/>
    </contour>
    <contour>
      <point x="35.625" y="405.0" type="line"/>
      <point x="135.625" y="405.0" type="line"/>
      <point x="135.625" y="505.0" type="line"/>
      <point x="35.625" y="505.0" type="line"/>
    </contour>
    <contour>
      <point x="173.125" y="195.0" type="line"/>
      <point x="273.125" y="195.0" type="line"/>
      <point x="273.125" y="405.0" type="line"/>
      <point x="173.125" y="405.0" type="line"/>
    </contour>
    <contour>
      <point x="273.125" y="505.0" type="line"/>
      <point x="273.125" y="560.1915"/>
      <point x="228.3165" y="605.0"/>
      <point x="173.125" y="605.0" type="curve"/>
      <point x="173.125" y="505.0" type="line"/>
    </contour>
    <contour>
      <point x="173.125" y="405.0" type="line"/>
      <point x="273.125" y="405.0" type="line"/>
      <point x="273.125" y="505.0" type="line"/>
      <point x="173.125" y="505.0" type="line"/>
    </contour>
    <contour>
      <point x="140.625" y="697.2222222222222" type="curve" smooth="yes"/>
      <point x="140.625" y="727.5775522222222"/>
      <point x="115.98033" y="752.2222222222222"/>
      <point x="85.625" y="752.2222222222222" type="curve" smooth="yes"/>
      <point x="55.269670000000005" y="752.2222222222222"/>
      <point x="30.625" y="727.5775522222222"/>
      <point x="30.625" y="697.2222222222222" type="curve" smooth="yes"/>
      <point x="30.625" y="666.8668922222222"/>
      <point x="55.269670000000005" y="642.2222222222222"/>
      <point x="85.625" y="642.2222222222222" type="curve" smooth="yes"/>
      <point x="115.98033" y="642.2222222222222"/>
      <point x="140.625" y="666.8668922222222"/>
    </contour>
    <contour>
      <point x="278.125" y="697.2222222222222" type="curve" smooth="yes"/>
      <point x="278.125" y="727.5775522222222"/>
      <point x="253.48033" y="752.2222222222222"/>
      <point x="223.125" y="752.2222222222222" type="curve" smooth="yes"/>
      <point x="192.76967" y="752.2222222222222"/>
      <point x="168.125" y="727.5775522222222"/>
      <point x="168.125" y="697.2222222222222" type="curve" smooth="yes"/>
      <point x="168.125" y="666.8668922222222"/>
      <point x="192.76967" y="642.2222222222222"/>
      <point x="223.125" y="642.2222222222222" type="curve" smooth="yes"/>
      <point x="253.48033" y="642.2222222222222"/>
      <point x="278.125" y="666.8668922222222"/>
    </contour>
  </outline>
</glyph>
<glyph name="i_with_grave" format="2">
  <advance width="171.25"/>
  <unicode hex="00EC"/>
  <outline>
    <contour>
      <point x="35.625" y="0" type="line"/>
      <point x="135.625" y="0" type="line"/>
      <point x="135.625" y="200" type="line"/>
      <point x="35.625" y="200" type="line"/>
    </contour>
    <contour>
      <point x="35.625" y="200" type="line"/>
      <point x="135.625" y="200" type="line"/>
      <point x="135.625" y="400" type="line"/>
      <point x="35.625" y="400" type="line"/>
    </contour>
    <contour>
      <point x="35.625" y="400" type="line"/>
      <point x="135.625" y="400" type="line"/>
      <point x="135.625" y="600" type="line"/>
      <point x="35.625" y="600" type="line"/>
    </contour>
    <contour>
      <point x="-8.125" y="747.2222222222222" type="line"/>
      <point x="-8.125" y="692.0307222222222"/>
      <point x="36.6835" y="647.2222222222222"/>
      <point x="91.875" y="647.2222222222222" type="curve"/>
      <point x="91.875" y="747.2222222222222" type="line"/>
    </contour>
  </outline>
</glyph>
<glyph name="o_with_grave" format="2">
  <advance width="308.75"/>
  <unicode hex="00F2"/>
  <outline>
    <contour>
      <point x="35.625" y="95.0" type="line"/>
      <point x="35.625" y="39.8085"/>
      <point x="80.43350000000001" y="-5.0"/>
      <point x="135.625" y="-5.0" type="curve"/>
      <point x="135.625" y="95.0" type="line"/>
    </contour>
    <contour>
      <point x="35.625" y="95.0" type="line"/>
      <point x="135.625" y="95.0" type="line"/>
      <point x="135.625" y="195.0" type="line"/>
      <point x="35.625" y="195.0" type="line"/>
    </contour>
    <contour>
      <point x="35.625" y="195.0" type="line"/>
      <point x="135.625" y="195.0" type="line"/>
      <point x="135.625" y="405.0" type="line"/>
      <point x="35.625" y="405.0" type="line"/>
    </contour>
    <contour>
      <point x="135.625" y="605.0" type="line"/>
      <point x="80.43350000000001" y="605.0"/>
      <point x="35.625" y="560.1915"/>
      <point x="35.625" y="505.0" type="curve"/>
      <point x="135.625" y="505.0" type="line"/>
    </contour>
    <contour>
      <point x="35.625" y="405.0" type="line"/>
      <point x="135.625" y="405.0" type="line"/>
      <point x="135.625" y="505.0" type="line"/>
      <point x="35.625" y="505.0" type="line"/>
    </contour>
    <contour>
      <point x="173.125" y="-5.0" type="line"/>
      <point x="228.3165" y="-5.0"/>
      <point x="273.125" y="39.8085"/>
      <point x="273.125" y="95.0" type="curve"/>
      <point x="173.125" y="95.0" type="line"/>
    </contour>
    <contour>
      <point x="173.125" y="95.0" type="line"/>
      <point x="273.125" y="95.0" type="line"/>
      <point x="273.125" y="195.0" type="line"/>
      <point x="173.125" y="195.0" type="line"/>
    </contour>
    <contour>
      <point x="173.125" y="195.0" type="line"/>
      <point x="273.125" y="195.0" type="line"/>
      <point x="273.125" y="405.0" type="line"/>
      <point x="173.125" y="405.0" type="line"/>
    </contour>
    <contour>
      <point x="273.125" y="505.0" type="line"/>
      <point x="273.125" y="560.1915"/>
      <point x="228.3165" y="605.0"/>
      <point x="173.125" y="605.0" type="curve"/>
      <point x="173.125" y="505.0" type="line"/>
    </contour>
    <contour>
      <point x="173.125" y="405.0" type="line"/>
      <point x="273.125" y="405.0" type="line"/>
      <point x="273.125" y="505.0" type="line"/>
      <point x="173.125" y="505.0" type="line"/>
    </contour>
    <contour>
      <point x="60.625" y="747.2222222222222" type="line"/>
      <point x="60.625" y="692.0307222222222"/>
      <point x="105.4335" y="647.2222222222222"/>
      <point x="160.625" y="647.2222222222222" type="curve"/>
      <point x="160.625" y="747.2222222222222" type="line"/>
    </contour>
  </outline>
</glyph>
<glyph name="o_with_circumflex" format="2">
  <advance width="308.75"/>
  <unicode hex="00F4"/>
  <outline>
    <contour>
      <point x="35.625" y="95.0" type="line"/>
      <point x="35.625" y="39.8085"/>
      <point x="80.43350000000001" y="-5.0"/>
      <point x="135.625" y="-5.0" type="curve"/>
      <point x="135.625" y="95.0" type="line"/>
    </contour>
    <contour>
      <point x="35.625" y="95.0" type="line"/>
      <point x="135.625" y="95.0" type="line"/>
      <point x="135.625" y="195.0" type="line"/>
      <point x="35.625" y="195.0" type="line"/>
    </contour>
    <contour>
      <point x="35.625" y="195.0" type="line"/>
      <point x="135.625" y="195.0" type="line"/>
      <point x="135.625" y="405.0" type="line"/>
      <point x="35.625" y="405.0" type="line"/>
    </contour>
    <contour>
      <point x="135.625" y="605.0" type="line"/>
      <point x="80.43350000000001" y="605.0"/>
      <point x="35.625" y="560.1915"/>
      <point x="35.625" y="505.0" type="curve"/>
      <point x="135.625" y="505.0" type="line"/>
    </contour>
    <contour>
      <point x="35.625" y="405.0" type="line"/>
      <point x="135.625" y="405.0" type="line"/>
      <point x="135.625" y="505.0" type="line"/>
      <point x="35.625" y="505.0" type="line"/>
    </contour>
    <contour>
      <point x="173.125" y="-5.0" type="line"/>
      <point x="228.3165" y="-5.0"/>
      <point x="273.125" y="39.8085"/>
      <point x="273.125" y="95.0" type="curve"/>
      <point x="173.125" y="95.0" type="line"/>
    </contour>
    <contour>
      <point x="173.125" y="95.0" type="line"/>
      <point x="273.125" y="95.0" type="line"/>
      <point x="273.125" y="195.0" type="line"/>
      <point x="173.125" y="195.0" type="line"/>
    </contour>
    <contour>
      <point x="173.125" y="195.0" type="line"/>
      <point x="273.125" y="195.0" type="line"/>
      <point x="273.125" y="405.0" type="line"/>
      <point x="173.125" y="405.0" type="line"/>
    </contour>
    <contour>
      <point x="273.125" y="505.0" type="line"/>
      <point x="273.125" y="560.1915"/>
      <point x="228.3165" y="605.0"/>
      <point x="173.125" y="605.0" type="curve"/>
      <point x="173.125" y="505.0" type="line"/>
    </contour>
    <contour>
      <point x="173.125" y="405.0" type="line"/>
      <point x="273.125" y="405.0" type="line"/>
      <point x="273.125" y="505.0" type="line"/>
      <point x="173.125" y="505.0" type="line"/>
    </contour>
    <contour>
      <point x="51.25" y="647.2222222222222" type="line"/>
      <point x="106.4415" y="647.2222222222222"/>
      <point x="151.25" y="692.0307222222222"/>
      <point x="151.25" y="747.2222222222222" type="curve"/>
      <point x="51.25" y="747.2222222222222" type="line"/>
    </contour>
    <contour>
      <point x="157.5" y="747.2222222222222" type="line"/>
      <point x="157.5" y="692.0307222222222"/>
      <point x="202.3085" y="647.2222222222222"/>
      <point x="257.5" y="647.2222222222222" type="curve"/>
      <point x="257.5" y="747.2222222222222" type="line"/>
    </contour>
  </outline>
</glyph>
<glyph name="divide" format="2">
  <advance width="446.25"/>
  <unicode hex="00F7"/>
  <outline>
    <contour>
      <point x="73.125" y="350.0" type="line"/>
      <point x="173.125" y="350.0" type="line"/>
      <point x="173.125" y="450.0" type="line"/>
      <point x="73.125" y="450.0" type="line"/>
    </contour>
    <contour>
      <point x="278.125" y="200.0" type="curve" smooth="yes"/>
      <point x="278.125" y="230.35533"/>
      <point x="253.48033" y="255.0"/>
      <point x="223.125" y="255.0" type="curve" smooth="yes"/>
      <point x="192.76967" y="255.0"/>
      <point x="168.125" y="230.35533"/>
      <point x="168.125" y="200.0" type="curve" smooth="yes"/>
      <point x="168.125" y="169.64467"/>
      <point x="192.76967" y="145.0"/>
      <point x="223.125" y="145.0" type="curve" smooth="yes"/>
      <point x="253.48033" y="145.0"/>
      <point x="278.125" y="169.64467"/>
    </contour>
    <contour>
      <point x="173.125" y="350.0" type="line"/>
      <point x="273.125" y="350.0" type="line"/>
      <point x="273.125" y="450.0" type="line"/>
      <point x="173.125" y="450.0" type="line"/>
    </contour>
    <contour>
      <point x="278.125" y="600.0" type="curve" smooth="yes"/>
      <point x="278.125" y="630.35533"/>
      <point x="253.48033" y="655.0"/>
      <point x="223.125" y="655.0" type="curve" smooth="yes"/>
      <point x="192.76967" y="655.0"/>
      <point x="168.125" y="630.35533"/>
      <point x="168.125" y="600.0" type="curve" smooth="yes"/>
      <point x="168.125" y="569.64467"/>
      <point x="192.76967" y="545.0"/>
      <point x="223.125" y="545.0" type="curve" smooth="yes"/>
      <point x="253.48033" y="545.0"/>
      <point x="278.125" y="569.64467"/>
    </contour>
    <contour>
      <point x="273.125" y="350.0" type="line"/>
      <point x="373.125" y="350.0" type="line"/>
      <point x="373.125" y="450.0" type="line"/>
      <point x="273.125" y="450.0" type="line"/>
    </contour>
  </outline>
</glyph>
<glyph name="o_with_stroke" format="2">
  <advance width="308.75"/>
  <unicode hex="00F8"/>
  <outline>
    <contour>
      <point x="35.625" y="95.0" type="line"/>
      <point x="35.625" y="39.8085"/>
      <point x="80.43350000000001" y="-5.0"/>
      <point x="135.625" y="-5.0" type="curve"/>
      <point x="135.625" y="95.0" type="line"/>
    </contour>
    <contour>
      <point x="35.625" y="95.0" type="line"/>
      <point x="135.625" y="95.0" type="line"/>
      <point x="135.625" y="195.0" type="line"/>
      <point x="35.625" y="195.0" type="line"/>
    </contour>
    <contour>
      <point x="35.625" y="195.0" type="line"/>
      <point x="135.625" y="195.0" type="line"/>
      <point x="135.625" y="405.0" type="line"/>
      <point x="35.625" y="405.0" type="line"/>
    </contour>
    <contour>
      <point x="135.625" y="605.0" type="line"/>
      <point x="80.43350000000001" y="605.0"/>
      <point x="35.625" y="560.1915"/>
      <point x="35.625" y="505.0" type="curve"/>
      <point x="135.625" y="505.0" type="line"/>
    </contour>
    <contour>
      <point x="35.625" y="405.0" type="line"/>
      <point x="135.625" y="405.0" type="line"/>
      <point x="135.625" y="505.0" type="line"/>
      <point x="35.625" y="505.0" type="line"/>
    </contour>
    <contour>
      <point x="110.625" y="50.0" type="line"/>
      <point x="55.433499999999995" y="50.0"/>
      <point x="10.625" y="5.1915"/>
      <point x="10.625" y="-50.0" type="curve"/>
      <point x="110.625" y="-50.0" type="line"/>
    </contour>
    <contour>
      <point x="173.125" y="-5.0" type="line"/>
      <point x="228.3165" y="-5.0"/>
      <point x="273.125" y="39.8085"/>
      <point x="273.125" y="95.0" type="curve"/>
      <point x="173.125" y="95.0" type="line"/>
    </contour>
    <contour>
      <point x="173.125" y="95.0" type="line"/>
      <point x="273.125" y="95.0" type="line"/>
      <point x="273.125" y="195.0" type="line"/>
      <point x="173.125" y="195.0" type="line"/>
    </contour>
    <contour>
      <point x="173.125" y="195.0" type="line"/>
      <point x="273.125" y="195.0" type="line"/>
      <point x="273.125" y="405.0" type="line"/>
      <point x="173.125" y="405.0" type="line"/>
    </contour>
    <contour>
      <point x="273.125" y="505.0" type="line"/>
      <point x="273.125" y="560.1915"/>
      <point x="228.3165" y="605.0"/>
      <point x="173.125" y="605.0" type="curve"/>
      <point x="173.125" y="505.0" type="line"/>
    </contour>
    <contour>
      <point x="173.125" y="405.0" type="line"/>
      <point x="273.125" y="405.0" type="line"/>
      <point x="273.125" y="505.0" type="line"/>
      <point x="173.125" y="505.0" type="line"/>
    </contour>
    <contour>
      <point x="198.125" y="550.0" type="line"/>
      <point x="253.3165" y="550.0"/>
      <point x="298.125" y="594.8085"/>
      <point x="298.125" y="650.0" type="curve"/>
      <point x="198.125" y="650.0" type="line"/>
    </contour>
  </outline>
</glyph>
<glyph name="y_with_diaeresis" format="2">
  <advance width="308.75"/>
  <unicode hex="00FF"/>
  <outline>
    <contour>
      <point x="138.75" y="-160.0" type="curve" smooth="yes"/>
      <point x="138.75" y="-132.40425"/>
      <point x="116.34575" y="-110.0"/>
      <point x="88.75" y="-110.0" type="curve" smooth="yes"/>
      <point x="61.154250000000005" y="-110.0"/>
      <point x="38.75" y="-132.40425"/>
      <point x="38.75" y="-160.0" type="curve" smooth="yes"/>
      <point x="38.75" y="-187.59575"/>
      <point x="61.154250000000005" y="-210.0"/>
      <point x="88.75" y="-210.0" type="curve" smooth="yes"/>
      <point x="116.34575" y="-210.0"/>
      <point x="138.75" y="-187.59575"/>
    </contour>
    <contour>
      <point x="35.625" y="100.0" type="line"/>
      <point x="35.625" y="44.8085"/>
      <point x="80.43350000000001" y="0.0"/>
      <point x="135.625" y="0.0" type="curve"/>
      <point x="135.625" y="100.0" type="line"/>
    </contour>
    <contour>
      <point x="35.625" y="100.0" type="line"/>
      <point x="135.625" y="100.0" type="line"/>
      <point x="135.625" y="200.0" type="line"/>
      <point x="35.625" y="200.0" type="line"/>
    </contour>
    <contour>
      <point x="35.625" y="200" type="line"/>
      <point x="135.625" y="200" type="line"/>
      <point x="135.625" y="405.0" type="line"/>
      <point x="35.625" y="405.0" type="line"/>
    </contour>
    <contour>
      <point x="135.625" y="505.0" type="line"/>
      <point x="135.625" y="560.1915"/>
      <point x="90.81649999999999" y="605.0"/>
      <point x="35.625" y="605.0" type="curve"/>
      <point x="35.625" y="505.0" type="line"/>
    </contour>
    <contour>
      <point x="35.625" y="405.0" type="line"/>
      <point x="135.625" y="405.0" type="line"/>
      <point x="135.625" y="505.0" type="line"/>
      <point x="35.625" y="505.0" type="line"/>
    </contour>
    <contour>
      <point x="173.125" y="-210.0" type="line"/>
      <point x="228.3165" y="-210.0"/>
      <point x="273.125" y="-165.1915"/>
      <point x="273.125" y="-110.0" type="curve"/>
      <point x="173.125" y="-110.0" type="line"/>
    </contour>
    <contour>
      <point x="173.125" y="-110.0" type="line"/>
      <point x="273.125" y="-110.0" type="line"/>
      <point x="273.125" y="-10.0" type="line"/>
      <point x="173.125" y="-10.0" type="line"/>
    </contour>
    <contour>
      <point x="173.125" y="-10.0" type="line"/>
      <point x="273.125" y="-10.0" type="line"/>
      <point x="273.125" y="200.0" type="line"/>
      <point x="173.125" y="200.0" type="line"/>
    </contour>
    <contour>
      <point x="173.125" y="200" type="line"/>
      <point x="273.125" y="200" type="line"/>
      <point x="273.125" y="400" type="line"/>
      <point x="173.125" y="400" type="line"/>
    </contour>
    <contour>
      <point x="173.125" y="400" type="line"/>
      <point x="273.125" y="400" type="line"/>
      <point x="273.125" y="600" type="line"/>
      <point x="173.125" y="600" type="line"/>
    </contour>
    <contour>
      <point x="140.625" y="697.2222222222222" type="curve" smooth="yes"/>
      <point x="140.625" y="727.5775522222222"/>
      <point x="115.98033" y="752.2222222222222"/>
      <point x="85.625" y="752.2222222222222" type="curve" smooth="yes"/>
      <point x="55.269670000000005" y="752.2222222222222"/>
      <point x="30.625" y="727.5775522222222"/>
      <point x="30.625" y="697.2222222222222" type="curve" smooth="yes"/>
      <point x="30.625" y="666.8668922222222"/>
      <point x="55.269670000000005" y="642.2222222222222"/>
      <point x="85.625" y="642.2222222222222" type="curve" smooth="yes"/>
      <point x="115.98033" y="642.2222222222222"/>
      <point x="140.625" y="666.8668922222222"/>
    </contour>
    <contour>
      <point x="278.125" y="697.2222222222222" type="curve" smooth="yes"/>
      <point x="278.125" y="727.5775522222222"/>
      <point x="253.48033" y="752.2222222222222"/>
      <point x="223.125" y="752.2222222222222" type="curve" smooth="yes"/>
      <point x="192.76967" y="752.2222222222222"/>
      <point x="168.125" y="727.5775522222222"/>
      <point x="168.125" y="697.2222222222222" type="curve" smooth="yes"/>
      <point x="168.125" y="666.8668922222222"/>
      <point x="192.76967" y="642.2222222222222"/>
      <point x="223.125" y="642.2222222222222" type="curve" smooth="yes"/>
      <point x="253.48033" y="642.2222222222222"/>
      <point x="278.125" y="666.8668922222222"/>
    </contour>
  </outline>
</glyph>
<glyph name="a_with_breve" format="2">
  <advance width="308.75"/>
  <unicode hex="0103"/>
  <outline>
    <contour>
      <point x="35.625" y="100.0" type="line"/>
      <point x="35.625" y="44.8085"/>
      <point x="80.43350000000001" y="0.0"/>
      <point x="135.625" y="0.0" type="curve"/>
      <point x="135.625" y="100.0" type="line"/>
    </contour>
    <contour>
      <point x="35.625" y="100.0" type="line"/>
      <point x="135.625" y="100.0" type="line"/>
      <point x="135.625" y="200.0" type="line"/>
      <point x="35.625" y="200.0" type="line"/>
    </contour>
    <contour>
      <point x="135.625" y="400.0" type="line"/>
      <point x="80.43350000000001" y="400.0"/>
      <point x="35.625" y="355.1915"/>
      <point x="35.625" y="300.0" type="curve"/>
      <point x="135.625" y="300.0" type="line"/>
    </contour>
    <contour>
      <point x="35.625" y="200" type="line"/>
      <point x="135.625" y="200" type="line"/>
      <point x="135.625" y="300.0" type="line"/>
      <point x="35.625" y="300.0" type="line"/>
    </contour>
    <contour>
      <point x="142.1875" y="550.0" type="curve" smooth="yes"/>
      <point x="142.1875" y="580.35533"/>
      <point x="117.54283" y="605.0"/>
      <point x="87.1875" y="605.0" type="curve" smooth="yes"/>
      <point x="56.832170000000005" y="605.0"/>
      <point x="32.1875" y="580.35533"/>
      <point x="32.1875" y="550.0" type="curve" smooth="yes"/>
      <point x="32.1875" y="519.64467"/>
      <point x="56.832170000000005" y="495.0"/>
      <point x="87.1875" y="495.0" type="curve" smooth="yes"/>
      <point x="117.54283" y="495.0"/>
      <point x="142.1875" y="519.64467"/>
    </contour>
    <contour>
      <point x="173.125" y="95.0" type="line"/>
      <point x="173.125" y="39.8085"/>
      <point x="217.9335" y="-5.0"/>
      <point x="273.125" y="-5.0" type="curve"/>
      <point x="273.125" y="95.0" type="line"/>
    </contour>
    <contour>
      <point x="173.125" y="95.0" type="line"/>
      <point x="273.125" y="95.0" type="line"/>
      <point x="273.125" y="200.0" type="line"/>
      <point x="173.125" y="200.0" type="line"/>
    </contour>
    <contour>
      <point x="173.125" y="200" type="line"/>
      <point x="273.125" y="200" type="line"/>
      <point x="273.125" y="400" type="line"/>
      <point x="173.125" y="400" type="line"/>
    </contour>
    <contour>
      <point x="273.125" y="502.5" type="line"/>
      <point x="273.125" y="557.6915"/>
      <point x="228.3165" y="602.5"/>
      <point x="173.125" y="602.5" type="curve"/>
      <point x="173.125" y="502.5" type="line"/>
    </contour>
    <contour>
      <point x="173.125" y="400" type="line"/>
      <point x="273.125" y="400" type="line"/>
      <point x="273.125" y="502.5" type="line"/>
      <point x="173.125" y="502.5" type="line"/>
    </contour>
    <contour>
      <point x="52.65625" y="747.2222222222222" type="line"/>
      <point x="52.65625" y="692.0307222222222"/>
      <point x="97.46475000000001" y="647.2222222222222"/>
      <point x="152.65625" y="647.2222222222222" type="curve"/>
      <point x="152.65625" y="747.2222222222222" type="line"/>
    </contour>
    <contour>
      <point x="152.65625" y="647.2222222222222" type="line"/>
      <point x="207.84775" y="647.2222222222222"/>
      <point x="252.65625" y="692.0307222222222"/>
      <point x="252.65625" y="747.2222222222222" type="curve"/>
      <point x="152.65625" y="747.2222222222222" type="line"/>
    </contour>
  </outline>
</glyph>
<glyph name="C_with_dotabove" format="2">
  <advance width="308.75"/>
  <unicode hex="010A"/>
  <outline>
    <contour>
      <point x="35.625" y="100.0" type="line"/>
      <point x="35.625" y="44.8085"/>
      <point x="80.43350000000001" y="0.0"/>
      <point x="135.625" y="0.0" type="curve"/>
      <point x="135.625" y="100.0" type="line"/>
    </contour>
    <contour>
      <point x="35.625" y="100.0" type="line"/>
      <point x="135.625" y="100.0" type="line"/>
      <point x="135.625" y="200.0" type="line"/>
      <point x="35.625" y="200.0" type="line"/>
    </contour>
    <contour>
      <point x="35.625" y="200" type="line"/>
      <point x="135.625" y="200" type="line"/>
      <point x="135.625" y="400" type="line"/>
      <point x="35.625" y="400" type="line"/>
    </contour>
    <contour>
      <point x="35.625" y="400" type="line"/>
      <point x="135.625" y="400" type="line"/>
      <point x="135.625" y="600" type="line"/>
      <point x="35.625" y="600" type="line"/>
    </contour>
    <contour>
      <point x="135.625" y="800.0" type="line"/>
      <point x="80.43350000000001" y="800.0"/>
      <point x="35.625" y="755.1915"/>
      <point x="35.625" y="700.0" type="curve"/>
      <point x="135.625" y="700.0" type="line"/>
    </contour>
    <contour>
      <point x="35.625" y="600" type="line"/>
      <point x="135.625" y="600" type="line"/>
      <point x="135.625" y="700.0" type="line"/>
      <point x="35.625" y="700.0" type="line"/>
    </contour>
    <contour>
      <point x="273.125" y="100.0" type="line"/>
      <point x="217.9335" y="100.0"/>
      <point x="173.125" y="55.1915"/>
      <point x="173.125" y="0.0" type="curve"/>
      <point x="273.125" y="0.0" type="line"/>
    </contour>
    <contour>
      <point x="173.125" y="600.0" type="line"/>
      <point x="173.125" y="544.8085"/>
      <point x="217.9335" y="500.0"/>
      <point x="273.125" y="500.0" type="curve"/>
      <point x="273.125" y="600.0" type="line"/>
    </contour>
    <contour>
      <point x="173.125" y="600" type="line"/>
      <point x="273.125" y="600" type="line"/>
      <point x="273.125" y="800" type="line"/>
      <point x="173.125" y="800" type="line"/>
    </contour>
    <contour>
      <point x="209.375" y="897.2222222222222" type="curve" smooth="yes"/>
      <point x="209.375" y="927.5775522222222"/>
      <point x="184.73032999999998" y="952.2222222222222"/>
      <point x="154.375" y="952.2222222222222" type="curve" smooth="yes"/>
      <point x="124.01967" y="952.2222222222222"/>
      <point x="99.375" y="927.5775522222222"/>
      <point x="99.375" y="897.2222222222222" type="curve" smooth="yes"/>
      <point x="99.375" y="866.8668922222222"/>
      <point x="124.01967" y="842.2222222222222"/>
      <point x="154.375" y="842.2222222222222" type="curve" smooth="yes"/>
      <point x="184.73032999999998" y="842.2222222222222"/>
      <point x="209.375" y="866.8668922222222"/>
    </contour>
  </outline>
</glyph>
<glyph name="c_with_dotabove" format="2">
  <advance width="308.75"/>
  <unicode hex="010B"/>
  <outline>
    <contour>
      <point x="35.625" y="100.0" type="line"/>
      <point x="35.625" y="44.8085"/>
      <point x="80.43350000000001" y="0.0"/>
      <point x="135.625" y="0.0" type="curve"/>
      <point x="135.625" y="100.0" type="line"/>
    </contour>
    <contour>
      <point x="35.625" y="100.0" type="line"/>
      <point x="135.625" y="100.0" type="line"/>
      <point x="135.625" y="200.0" type="line"/>
      <point x="35.625" y="200.0" type="line"/>
    </contour>
    <contour>
      <point x="35.625" y="200" type="line"/>
      <point x="135.625" y="200" type="line"/>
      <point x="135.625" y="405.0" type="line"/>
      <point x="35.625" y="405.0" type="line"/>
    </contour>
    <contour>
      <point x="135.625" y="605.0" type="line"/>
      <point x="80.43350000000001" y="605.0"/>
      <point x="35.625" y="560.1915"/>
      <point x="35.625" y="505.0" type="curve"/>
      <point x="135.625" y="505.0" type="line"/>
    </contour>
    <contour>
      <point x="35.625" y="405.0" type="line"/>
      <point x="135.625" y="405.0" type="line"/>
      <point x="135.625" y="505.0" type="line"/>
      <point x="35.625" y="505.0" type="line"/>
    </contour>
    <contour>
      <point x="271.5625" y="100.0" type="line"/>
      <point x="216.371" y="100.0"/>
      <point x="171.5625" y="55.1915"/>
      <point x="171.5625" y="0.0" type="curve"/>
      <point x="271.5625" y="0.0" type="line"/>
    </contour>
    <contour>
      <point x="278.125" y="550.0" type="curve" smooth="yes"/>
      <point x="278.125" y="580.35533"/>
      <point x="253.48033" y="605.0"/>
      <point x="223.125" y="605.0" type="curve" smooth="yes"/>
      <point x="192.76967" y="605.0"/>
      <point x="168.125" y="580.35533"/>
      <point x="168.125" y="550.0" type="curve" smooth="yes"/>
      <point x="168.125" y="519.64467"/>
      <point x="192.76967" y="495.0"/>
      <point x="223.125" y="495.0" type="curve" smooth="yes"/>
      <point x="253.48033" y="495.0"/>
      <point x="278.125" y="519.64467"/>
    </contour>
    <contour>
      <point x="211.875" y="697.2222222222222" type="curve" smooth="yes"/>
      <point x="211.875" y="727.5775522222222"/>
      <point x="187.23032999999998" y="752.2222222222222"/>
      <point x="156.875" y="752.2222222222222" type="curve" smooth="yes"/>
      <point x="126.51967" y="752.2222222222222"/>
      <point x="101.875" y="727.5775522222222"/>
      <point x="101.875" y="697.2222222222222" type="curve" smooth="yes"/>
      <point x="101.875" y="666.8668922222222"/>
      <point x="126.51967" y="642.2222222222222"/>
      <point x="156.875" y="642.2222222222222" type="curve" smooth="yes"/>
      <point x="187.23032999999998" y="642.2222222222222"/>
      <point x="211.875" y="666.8668922222222"/>
    </contour>
  </outline>
</glyph>
<glyph name="c_with_caron" format="2">
  <advance width="308.75"/>
  <unicode hex="010D"/>
  <outline>
    <contour>
      <point x="35.625" y="100.0" type="line"/>
      <point x="35.625" y="44.8085"/>
      <point x="80.43350000000001" y="0.0"/>
      <point x="135.625" y="0.0" type="curve"/>
      <point x="135.625" y="100.0" type="line"/>
    </contour>
    <contour>
      <point x="35.625" y="100.0" type="line"/>
      <point x="135.625" y="100.0" type="line"/>
      <point x="135.625" y="200.0" type="line"/>
      <point x="35.625" y="200.0" type="line"/>
    </contour>
    <contour>
      <point x="35.625" y="200" type="line"/>
      <point x="135.625" y="200" type="line"/>
      <point x="135.625" y="405.0" type="line"/>
      <point x="35.625" y="405.0" type="line"/>
    </contour>
    <contour>
      <point x="135.625" y="605.0" type="line"/>
      <point x="80.43350000000001" y="605.0"/>
      <point x="35.625" y="560.1915"/>
      <point x="35.625" y="505.0" type="curve"/>
      <point x="135.625" y="505.0" type="line"/>
    </contour>
    <contour>
      <point x="35.625" y="405.0" type="line"/>
      <point x="135.625" y="405.0" type="line"/>
      <point x="135.625" y="505.0" type="line"/>
      <point x="35.625" y="505.0" type="line"/>
    </contour>
    <contour>
      <point x="271.5625" y="100.0" type="line"/>
      <point x="216.371" y="100.0"/>
      <point x="171.5625" y="55.1915"/>
      <point x="171.5625" y="0.0" type="curve"/>
      <point x="271.5625" y="0.0" type="line"/>
    </contour>
    <contour>
      <point x="278.125" y="550.0" type="curve" smooth="yes"/>
      <point x="278.125" y="580.35533"/>
      <point x="253.48033" y="605.0"/>
      <point x="223.125" y="605.0" type="curve" smooth="yes"/>
      <point x="192.76967" y="605.0"/>
      <point x="168.125" y="580.35533"/>
      <point x="168.125" y="550.0" type="curve" smooth="yes"/>
      <point x="168.125" y="519.64467"/>
      <point x="192.76967" y="495.0"/>
      <point x="223.125" y="495.0" type="curve" smooth="yes"/>
      <point x="253.48033" y="495.0"/>
      <point x="278.125" y="519.64467"/>
    </contour>
    <contour>
      <point x="153.75" y="647.2222222222222" type="line"/>
      <point x="153.75" y="702.4137222222222"/>
      <point x="108.9415" y="747.2222222222222"/>
      <point x="53.75" y="747.2222222222222" type="curve"/>
      <point x="53.75" y="647.2222222222222" type="line"/>
    </contour>
    <contour>
      <point x="260.0" y="747.2222222222222" type="line"/>
      <point x="204.8085" y="747.2222222222222"/>
      <point x="160.0" y="702.4137222222222"/>
      <point x="160.0" y="647.2222222222222" type="curve"/>
      <point x="260.0" y="647.2222222222222" type="line"/>
    </contour>
  </outline>
</glyph>
<glyph name="e_with_dotabove" format="2">
  <advance width="308.75"/>
  <unicode hex="0117"/>
  <outline>
    <contour>
      <point x="35.625" y="95.0" type="line"/>
      <point x="35.625" y="39.8085"/>
      <point x="80.43350000000001" y="-5.0"/>
      <point x="135.625" y="-5.0" type="curve"/>
      <point x="135.625" y="95.0" type="line"/>
    </contour>
    <contour>
      <point x="35.625" y="95.0" type="line"/>
      <point x="135.625" y="95.0" type="line"/>
      <point x="135.625" y="195.0" type="line"/>
      <point x="35.625" y="195.0" type="line"/>
    </contour>
    <contour>
      <point x="35.625" y="195.0" type="line"/>
      <point x="135.625" y="195.0" type="line"/>
      <point x="135.625" y="405.0" type="line"/>
      <point x="35.625" y="405.0" type="line"/>
    </contour>
    <contour>
      <point x="135.625" y="605.0" type="line"/>
      <point x="80.43350000000001" y="605.0"/>
      <point x="35.625" y="560.1915"/>
      <point x="35.625" y="505.0" type="curve"/>
      <point x="135.625" y="505.0" type="line"/>
    </contour>
    <contour>
      <point x="35.625" y="405.0" type="line"/>
      <point x="135.625" y="405.0" type="line"/>
      <point x="135.625" y="505.0" type="line"/>
      <point x="35.625" y="505.0" type="line"/>
    </contour>
    <contour>
      <point x="173.125" y="195.0" type="line"/>
      <point x="273.125" y="195.0" type="line"/>
      <point x="273.125" y="405.0" type="line"/>
      <point x="173.125" y="405.0" type="line"/>
    </contour>
    <contour>
      <point x="273.125" y="505.0" type="line"/>
      <point x="273.125" y="560.1915"/>
      <point x="228.3165" y="605.0"/>
      <point x="173.125" y="605.0" type="curve"/>
      <point x="173.125" y="505.0" type="line"/>
    </contour>
    <contour>
      <point x="173.125" y="405.0" type="line"/>
      <point x="273.125" y="405.0" type="line"/>
      <point x="273.125" y="505.0" type="line"/>
      <point x="173.125" y="505.0" type="line"/>
    </contour>
    <contour>
      <point x="209.375" y="697.2222222222222" type="curve" smooth="yes"/>
      <point x="209.375" y="727.5775522222222"/>
      <point x="184.73032999999998" y="752.2222222222222"/>
      <point x="154.375" y="752.2222222222222" type="curve" smooth="yes"/>
      <point x="124.01967" y="752.2222222222222"/>
      <point x="99.375" y="727.5775522222222"/>
      <point x="99.375" y="697.2222222222222" type="curve" smooth="yes"/>
      <point x="99.375" y="666.8668922222222"/>
      <point x="124.01967" y="642.2222222222222"/>
      <point x="154.375" y="642.2222222222222" type="curve" smooth="yes"/>
      <point x="184.73032999999998" y="642.2222222222222"/>
      <point x="209.375" y="666.8668922222222"/>
    </contour>
  </outline>
</glyph>
